<svg xmlns="http://www.w3.org/2000/svg" id="svg56" width="835.4" height="1000" fill="none" stroke="#000" stroke-linejoin="round" viewBox="0 0 835.4 1000">
  <defs id="defs4">
    <style id="style2">
      path{fill-rule:evenodd}
    </style>
  </defs>
  <path id="AO" fill="#f2f2f2" fill-rule="evenodd" d="M413 599.1l-36-.2-4.3 1.7-3.5-.3-5.1 1.9-1.1 2.7 6 8.7 2.4 9.3 3.6 13.4-3.8 5.5-.6 2.8 2.9 8.3 3.1 8.4 3.6 5 .6 7.8-1.4 10.3-4 6.1-7.1 9.1-2.9 5.6-4.1 12.5-.8 5.9-4.3 12.7-1.9 12.2 1 8.7 5.9-2.7 7.2-2.3 7.8.4 7.1 6.3 1.9-1 48.8-.6 8.2 6.6 29.1 2 22.4-5.7-7.6-8.6-7.8-11.3 1.6-44 25.3.1-1-4.7 2-5.2-2-6.5 1.5-6.7-1.2-4.3-5.5-.8-7.6 2-5.3-.3-3 1.3.9-16.5-3.9-5.1-.8-8.5 1.9-8.4-2.4-5.3-.1-8.7-14.8.1 1.1-5-6.2.1-.7 2.4-7.6.5-3.1 8.1-1.9 3.4-6.7-1.9-4 1.9-8.1 1.1-4.6-7.2-2.7-4.5-3.5-8.3zm-47.4-2.7l.4-6 2-3.5 4.5-2.9-4.6-4.8-3.7 2.3-5 6 3.3 10.4z" class="map-item" data-id="AO" data-name="Angola"/>
  <path id="BI" fill="#f2f2f2" fill-rule="evenodd" d="M586.7 556.6l-.6-5.4-6.5-.9-3.8 7.9-7.4-1.1 3 6.3.1 2.4 4.3 13.2v.6l1.2-.2 4.5-5 4.9-7.2 3-2.9-.1-4.5z" class="map-item" data-id="BI" data-name="Burundi"/>
  <path id="BJ" fill="#f2f2f2" fill-rule="evenodd" d="M257.7 356.5l-9.3-8-4.3.1-4.1 4-2.6 4.2-6 1.2-2.5 6.1-4.1 1.6-1.6 7.2 3.7 4.1 4.3 4.9.4 6.8 2.5 2.8-.5 31.8 3 9.5 10.1-1.6.6-22.3-.3-8.8 2.3-8.7 3.7-4.3 5.9-8.5-1.3-3.7 2.4-5.6-2.8-8.2z" class="map-item" data-id="BJ" data-name="Benin"/>
  <path id="BF" fill="#f2f2f2" fill-rule="evenodd" d="M218.4 311.3h-7.8l-3-2.6-6.7 1.9-11.3 5.8-2.3 4.3-9.4 6.2-1.7 3.6-5.1 2.8-5.8-1.9-3.4 3.4-1.8 9.5-9.7 11.4.3 4.7-3.4 5.9.8 8 5.5 3 2.1 4.6 5.4 2.9 4.3-3.4 5.7-.6 8.3 3.6-1.6-10.4.3-7.9 21.1-.6 5.4 1 3.9-2.2 5.6 1.1 10.7.3 4.1-1.6 2.5-6.1 6-1.2 2.6-4.2.3-9.5-14-3.1-.4-6.7-6.9-9-1.6-6.3z" class="map-item" data-id="BF" data-name="Burkina Faso"/>
  <path id="BW" fill="#f2f2f2" fill-rule="evenodd" d="M518.3 763.2l-2.2-1-6.9 3.1h-3.6l-7.9 5.4-4.4-5.7-18.7 4.9-9 .4-1.9 49.3-11.8.5-1.4 40.4 3.2 2 6.5 13.2-1.5 8.4 2.5 4.9 8.5-1.4 6.2-6.2 5.8-4.2 3.2-6.6 6-3.2 4.9 1.7 5.5 3.9 9.6.6 7.8-3.2 1.4-4.3 2.4-6.6 6.5-1.1 3.9-5.2 4.4-9.3 11.2-10.3 17.3-10.2-7.3-6.2-9.2-2.1-3.1-8.8.2-4.9-5.1-1.5-13-15.2-3.5-8-2.3-2.4z" class="map-item" data-id="BW" data-name="Botswana"/>
  <path id="CF" fill="#f2f2f2" fill-rule="evenodd" d="M504.7 398.6l-1-.7-4.2-4-.9-4.3 1.9-5.7-.1-5.7-7.2-8.6-1.5-5.9-7.7 2.3-6 5.6-8.6 15.1-11.3 6.4-11.8-.8-3.4 1.2 1.2 4.9-6.3 4.8-5.1 5.4-15.3 5.3-3-3.1-2.1-.3-2.2 3.6-10 1-6.1 14-2.9 2.6-.8 10.7 1.2 5.8-.9 4.1 5.8 7.3 1 4.9 4.6 7.2 5.6 4.4.6 6.3 1.3 4 6.3-12.8 7.3-7.4 8.2 2.4 7.9.7 1-9.6 4.7-7.1 6.5-4.4 10.1 4.7 7.8 5.1 9 1.4 9.1 2.7 3.6-8.4 1.6-1.1 5.6 1.4 13.5-6.9 4.9 3 3.9-.5 1.8-3.3 4.5-1.2 9.2 1.4 7.9.4 4-1.5-2-4.4-9.2-5.5-3.2-8.3-5.2-6-8.3-7.2-.1-4.5-6.8-5.5z" class="map-item" data-id="CF" data-name="Central African Rep."/>
  <path id="CI" fill="#f2f2f2" fill-rule="evenodd" d="M148.1 374.3l-5 2.1-2.9 1.7-1.8-5.9-3.5 1.6-2.1-.3-2.3 4-9.4-.1-3.3-2.1-1.6 1.3-2.5 1.1-1 4.7 2.8 5.7 3 11.1-4.6 1.6-1.1 1.9.9 2.7-.8 6.1H111l-.6 4 1.2 6.7-2.7 6.1 3.6 3.8 3.8.9 5.2 5.8.3 5.5-1.1 1.7-1 11.4 2.3.4 12.1-5.1 8.5-4 14.5-2.4 7.8-.2 8.5 2.7 5.6-.1.5-5.5-5.2-11.9 3.2-15.6 5.1-11.6-3.2-19.7-8.3-3.6-5.7.6-4.3 3.4-5.4-2.9-2.1-4.6z" class="map-item" data-id="CI" data-name="Côte d'Ivoire"/>
  <path id="CM" fill="#f2f2f2" fill-rule="evenodd" d="M395.2 367.1l.4-9.2-1-9.1-4.9-8.9-3.4.8-.4 4.4 4.9 5.5-1.3 2.5-.5 4.6-10.2 10.7-3.1 8.8-1.6 7.2-2.6 3.1-2.4 9.7-6.4 5.7-1.9 7-2.7 5.6-1.1 5.7-8.3 4.7-6.9-5.7-4.6.2-7.2 8.1-3.6.1-5.7 13.4-3.1 9.8-.1 3.8 3.1 2 2.5 6.2 5.6 2.3 4.8 9.2-1.8 10.9 19.9.3 5.8-.9 7.4 1.9 7.3-1.8 1.5.7 15.4.6 9.9 3.6 9.7 3.3.9-7.5-1.3-4-.6-6.3-5.6-4.4-4.6-7.2-1-4.9-5.8-7.3.9-4.1-1.2-5.8.8-10.7 2.9-2.6 6.1-14 1.8-3.7-3.9-9.6-1.8-5.7-5.3-2.3-7.2-8.1 2.5-6.5 5.6 1.3 3.4-.9 6.8.1z" class="map-item" data-id="CM" data-name="Cameroon"/>
  <path id="CD" fill="#f2f2f2" fill-rule="evenodd" d="M536 446.5l-9.2-1.4-4.5 1.2-1.8 3.3-3.9.5-4.9-3-13.5 6.9-5.6-1.4-1.6 1.1-3.6 8.4-9.1-2.7-9-1.4-7.8-5.1-10.1-4.7-6.5 4.4-4.7 7.1-1 9.6-.7 8.4-3.6 7.4-2.4 8.6L431 506l.7 7.8-2 4.8-.3 5.1-1.4 4.4-8.1 6.7-5.6 7.1-5.3 13.4.3 11.4-3.1 4.4-7.2 6.8-7.2 8.7-4.5-2.5-.8-3.9-6.6-.1-4.2 5.3-3.2-1.4-4.5 2.9-2 3.5-.4 6-3.1 1.5 1.6 4.3 5.1-1.9 3.5.3 4.3-1.7 36 .2 2.9 10.3 3.5 8.3 2.7 4.5 4.6 7.2 8.1-1.1 4-1.9 6.7 1.9 1.9-3.4 3.1-8.1 7.6-.5.7-2.4 6.2-.1-1.1 5 14.8-.1.1 8.7 2.4 5.3-1.9 8.4.8 8.5 3.9 5.1-.9 16.5 3-1.3 5.3.3 7.6-2 5.5.8 4.2.3.6 4.3 5.7-.3 7.7 1.3 3.9 6.2 9.7 2 7.5-4.4 2.6 7.3 9.2 1.9 4.3 5.9 4.8 7.6 9.3.1-.6-14.9-3.4 2.5-8.4-5.4-3.2-2.4 1.9-13.9 2.5-16.4-2.6-6.1 3.6-8.8 3.3-1.7 16.4-2.3 2.1.6.6-2.3-3.4-3.7-1.5-7.6-7.3-7.6-4.1-9.9 2.3-5.8-3.2-7.8 2.4-22.1.1.2-.1-2.4-3-6.3 1.2-7.6 1.7-1 .5-8.3 3.5-3.8.1-10.5 2.9-5.3.6-11.1 2.6-6.4 4.6-7.2 4.7-3.7 3.9-4.9-4.9-1.9.6-16.1-10.9-9.2-2.9-5.9-6.8 2.9-5.7-.9-3.2 2.3-5.5-1.7-7.5-11.4-4 1.5z" class="map-item" data-id="CD" data-name="Dem. Rep. Congo"/>
  <path id="CG" fill="#f2f2f2" fill-rule="evenodd" d="M439.2 469.3l-7.9-.7-8.2-2.4-7.3 7.4-6.3 12.8-.9 7.5-9.7-3.3-9.9-3.6-15.4-.6-.9 6.1 3.4 7.1 9.1-1.1 3.1 2.7-5.3 16.1 5.8 8.2 1.3 10.8-1.6 9.2-3.7 6.5-10.8-.6-6.5-6.6-1 6.1-8.3 1.7-4.2 3.5 4.6 9.1-9.3 7.7 9.9 14.6 5-6 3.7-2.3 4.6 4.8 3.2 1.4 4.2-5.3 6.6.1.8 3.9 4.5 2.5 7.2-8.7 7.2-6.8 3.1-4.4-.3-11.4 5.3-13.4 5.6-7.1 8.1-6.7 1.4-4.4.3-5.1 2-4.8-.7-7.8 1.5-12.3 2.4-8.6 3.6-7.4z" class="map-item" data-id="CG" data-name="Congo"/>
  <path id="DJ" fill="#f2f2f2" fill-rule="evenodd" d="M738 359.2l-5.3-3.8 6.8-3.3.1-5.7-3-4.3-3.6 3.4-5.2-1.2-4 6.1-3.9 6.5 1.1 3.8.3 4.2 6.8.2 2.9-.9 2.8 2.4z" class="map-item" data-id="DJ" data-name="Djibouti"/>
  <path id="DZ" fill="#f2f2f2" fill-rule="evenodd" d="M310.1 6.2l-7.8.8-4.8-3.2-12.2.1-10.6 5.5-5.8-2.1L250 8.5 230.6 11l-11 4.3-7.2 5.8-12.4 2.4-11.1 7.7 4.2 9 .7 8.4 3.9 14.7 3.1 2.9-2.2 5.4-15.2 2.3L178 79l-6.7 1.2-.6 10.2-13.8 5.4-4.6 7-9.6 3.7-11.8 2.1-19.2 10.2-.2 16.3v1l-.3 2.7 44.1 33.5 40 30.2 40.4 30.2 2.9 6.4 7.5 4 5.5 2.2.2 8.8 13.3-1.3 16.9-6.2 34.5-27.1 40.5-26.4-5.4-8.7-9.6-6.4-5.5 2.5-4.3-7.7-.6-5.9-7.2-10.1 4.6-5.8-1.3-8.7 1.4-7.6-1-6.3 1.8-11.3-.8-6.4-4.1-12.2-5.7-24.7-7.3-5.6-.2-3.3-9.7-8.3-1.3-10.4 7-7.8 2.4-11.6-2.3-13.4z" class="map-item" data-id="DZ" data-name="Algeria"/>
  <path id="EG" fill="#f2f2f2" fill-rule="evenodd" d="M546.5 88.6l-11.9-4-11.5-3.7-15.6.2-3.7 6.6 2.2 5.9-2.4 8.5 4.2 11.2 2.9 49.2 2.2 50.9h141.9l-2.2-2.8-14.7-12.4-.9-9 2.2-2.4-11.6-15.3-4.4-7.9-4.9-7.5-10.5-21.6-8.4-13.9-6.1-14.5 1.1-1.3 10.1 19.8 5.8 6.2 4.3 4.4 2.5-2.4 2.7-7.2 1.6-10.4 2.8-5.6-1.5-3.5-8.5-20.1-5.4 3.4-9.2-.8-9.6-3.2-2.3 4.5-3.8-6.8-8.5-1.8-10.2 1.2-4.5 3.9-8.6 4.4z" class="map-item" data-id="EG" data-name="Egypt"/>
  <path id="ER" fill="#f2f2f2" fill-rule="evenodd" d="M695.3 304.3l-7-6.8-4-12.7-7.8-16-5.7 7.9-8.8 2.3-3.6 4.2-.7 9.2-4.3 20.3 1.5 5.6 14.3 2.9 3.3-10.4 7.6 6.3 7-3.2 3 2.9 8.3.1 10.8 5.6 3.4 4.8 5.5 4.4 5.4 8.1 4.3 4.5 5.2 1.2 3.6-3.4-6.2-4.2-4-4.7-6.9-8-7.1-7.9z" class="map-item" data-id="ER" data-name="Eritrea"/>
  <path id="ET" fill="#f2f2f2" fill-rule="evenodd" d="M672.5 310.8l-3.3 10.4-14.3-2.9-1.4 11.9-4.5 13.6-7.1 6.8-4.8 10.6-1.1 5.7-5.6 3.8-3.3 14.5.1 1.7.4 10.8-1.8 4.2-6.4.3-4 7.9 7.5 1 6.3 6.7 2.2 5.6 5.7 3.2 7.4 15 6.4 2.4.1 7.7 4.2 4.6h8.5l15.7 11.7 3.8.2 2.9-.4 2.7 1.6 8.2 1.1 3.5-5.8 11.1-5.8 4.9 4.7h8.4l3.3-4.4 7.8-.2 10.7-9.8 15.9-.6 33.5-41.5-10.3.1-40.3-16.4-4.8-5-4.6-6.6-4.8-7.7 2.5-4.9-2.8-2.4-2.9.9-6.8-.2-.3-4.2-1.1-3.8 3.9-6.5 4-6.1-4.3-4.5-5.4-8.1-5.5-4.4-3.4-4.8-10.8-5.6-8.3-.1-3-2.9-7 3.2z" class="map-item" data-id="ET" data-name="Ethiopia"/>
  <path id="GA" fill="#f2f2f2" fill-rule="evenodd" d="M373.6 486.4l-1.5-.7-7.3 1.8-7.4-1.9-5.8.9.1 16.7-17.7-.2-4.2.8-2.4 10.3-3 10.1-2.7 4.4-.3 4.6 7.3 14.3 8.1 11.4 12.5 14 9.3-7.7-4.6-9.1 4.2-3.5 8.3-1.7 1-6.1 6.5 6.6 10.8.6 3.7-6.5 1.6-9.2-1.3-10.8-5.8-8.2 5.3-16.1-3.1-2.7-9.1 1.1-3.4-7.1z" class="map-item" data-id="GA" data-name="Gabon"/>
  <path id="GH" fill="#f2f2f2" fill-rule="evenodd" d="M214.1 365.4l-5.6-1.1-3.9 2.2-5.4-1-21.1.6-.3 7.9 1.6 10.4 3.2 19.7-5.1 11.6-3.2 15.6 5.2 11.9-.5 5.5 10.9 3.9 11-4 6.7-4.7 19.2-8.1-2.8-4.9-3.2-8.8-1-6.8 2.7-12.5-3-5-1.2-10.9v-10.1l-5.1-7.1z" class="map-item" data-id="GH" data-name="Ghana"/>
  <path id="GN" fill="#f2f2f2" fill-rule="evenodd" d="M74.1 345.7l-1.8.7-6.6-1.1-.9 1.6-2.7.3-8.7-3.4-5.8-.1-.3 4.7-1.3 1.4.9 4.6-1.9 1.8-2.7.1-3.2 2.3-3.7-.3-5.5 6.8 3.6 2.2 1.7 3.1 1.3 6.1 3 2.7 3.1 1.8 4.7 5.4 5.3 8.2 6.5-6.1 1.5-3.8 2.1-3 3.3-.3 2.9-2.6h9.7l3.3 5 2.6 5.8-.4 4 1.9 3.6-.1 5.1 3.3-.8 2.6-.3 3.2-1.6 5.1 8.5-.9 5.6 2.4 2.9 3.4.1 2.6-5.6 3.4.4h1.9l.8-6.1-.9-2.7 1.1-1.9 4.6-1.6-3-11.1-2.8-5.7 1-4.7 2.5-1.1-3.7-4 .7-4.1-1.6-1.6-2.6 1.3.6-4.5 2.5-3.5-5-5.8-1.4-3.8-2.7-3.1-2.4-.3-2.9 1.9-4 1.8-3.3 3-5.2-1.1-3.3-3.5-2-.4-3.2 1.8h-2z" class="map-item" data-id="GN" data-name="Guinea"/>
  <path id="GM" fill="#f2f2f2" fill-rule="evenodd" d="M9.6 335.9l11 .2 3-1.9 2.2-.1 4.5-3.2 5.2 2.9 5.2.3L46 331l-2.4-4-4 2.3-3.8-.1-4.7-3.4-3.8.2-2.8 3.3-13.2.4z" class="map-item" data-id="GM" data-name="Gambia"/>
  <path id="GW" fill="#f2f2f2" fill-rule="evenodd" d="M47.6 343.7l-22.4-.6-3.3 1.6-4-.5-6.5 2.3.7 2.9 3.7 3-.1 2.1 2.7 3.9 5.1.9 6.4 5.8 5.5-6.8 3.7.3 3.2-2.3 2.7-.1 1.9-1.8-.9-4.6 1.3-1.4z" class="map-item" data-id="GW" data-name="Guinea-Bissau"/>
  <path id="GQ" fill="#f2f2f2" fill-rule="evenodd" d="M351.6 486.5l-19.9-.3-4.1 15.5 2.2 2.1 4.2-.8 17.7.2z" class="map-item" data-id="GQ" data-name="Eq. Guinea"/>
  <path id="KE" fill="#f2f2f2" fill-rule="evenodd" d="M724.9 463.6h-8.4l-4.9-4.7-11.1 5.8-3.5 5.8-8.2-1.1-2.7-1.6-2.9.4-3.8-.2-15.7-11.7h-8.5l-4.2-4.6-.1-7.7-6.4-2.4-8.1 9.1-7.4 8.3 5.9 9.6 1.5 7 5.5 15.8-4.4 10.1-5.9 9.2-3.5 5.6v.7l2.9 5.2-.8 10.3 44.1 28.2.7 8 17.3 13.8 5-4.6 2.5-9.2 4-5.5 1.9-9.8 4.6-1 3.1-5.8 8.6-5.5-7.2-11.4-.4-50.4z" class="map-item" data-id="KE" data-name="Kenya"/>
  <path id="LR" fill="#f2f2f2" fill-rule="evenodd" d="M111 411.5l-3.4-.4-2.6 5.6-3.4-.1-2.4-2.9.9-5.6-5.1-8.5-3.2 1.6-2.6.3-5.7 6.5-5.5 7.5-.7 4-2.9 4.4 8.1 8.9 10.4 7.6 11 10.5 12.6 6.6 3.2-.1 1-11.4 1.1-1.7-.3-5.5-5.2-5.8-3.8-.9-3.6-3.8 2.7-6.1-1.2-6.7z" class="map-item" data-id="LR" data-name="Liberia"/>
  <path id="LY" fill="#f2f2f2" fill-rule="evenodd" d="M507.5 81.1l-3.1-4.5-11.7-1.6-3.9-2.4h-4.4l-4.4-6.2-15.9-2.8-7.9 1.8-7.9 6.5-3.3 6.7 3.4 10.6-5.3 6.3-5.5 3.6-12.9-6.9-16.7-5.7-10.6-2.7-6.1-12.3-15.7-6.1-9.8-2.3-4.8 1.2-13.8-4.8-.3 10.6-5.6 4-3.4 4.4-7.9 5.3 1.5 5.7-.9 5.8-5.6 3.2 4.1 12.2.8 6.4-1.8 11.3 1 6.3-1.4 7.6 1.3 8.7-4.6 5.8 7.2 10.1.6 5.9 4.3 7.7 5.5-2.5 9.6 6.4 5.4 8.7 19 6 6.9 7.5 8.3-5.1 11.9-7.6 48.4 26.5 48.7 26.5-.1-5.8h13.8l-1-27.7-2.2-50.9-2.9-49.2-4.2-11.2 2.4-8.5-2.2-5.9z" class="map-item" data-id="LY" data-name="Libya"/>
  <path id="LS" fill="#f2f2f2" fill-rule="evenodd" d="M543 940.4l2.5-4.4 6.7-2.2 2.4-4.5 4.1-6.7-3.8-4.2-4.8-4.2-5.7 2.8-6.8 5.4-6.9 8.7 8 10.6z" class="map-item" data-id="LS" data-name="Lesotho"/>
  <path id="MA" fill="#f2f2f2" fill-rule="evenodd" d="M188.9 31.2l-5-.1L172 28l-11 .9-6.8-5.9-8.5-.1-3.8 8.6-8 14.5-8.7 5.7-11.8 6.4-7.7 9.3-1.8 7.3-4.8 11.8 2.5 17.2-10.1 11.5-6 3.7-9.6 9.4-11 1.6-6.1 5.3-.2.2-7.9 14.1-8.1 5.1-4.5 8.5-.5 7.4-3.4 8.1-4 2.2-6.9 8.8-4.4 9.8.7 4.6-4.1 7.3-4.7 3.7-.8 6.4.2.1 27-1.1 1.6-5 5-6.2 4.4-19.1 16.9-15 6-17.4 3.7-1.1 4.2-10.8 10-1.4 4.2 1.8h5.4l3.9-3.2 7.3-.4-.1-7.5h1.8l.2-16.3 19.2-10.2 11.8-2.1 9.6-3.7 4.6-7 13.8-5.4.6-10.2L178 79l5.4-5.1 15.2-2.3 2.2-5.4-3.1-2.9-3.9-14.7-.7-8.4z" class="map-item" data-id="MA" data-name="Morocco"/>
  <path id="MG" fill="#f2f2f2" fill-rule="evenodd" d="M820.6 705.3l-2.5-9.1-3-5.9-3.9-5.9-4.3 6.2-.7 8.3-7.1 9.6-5.1-1.7 1.3 6-4 6.9-10.4 8.5-7.3 7.9-5.4.2-4.6 2.5-6.9 2.8-6 .6-2.2 8.7-4.7 7.8.2 12.7 1.7 8.7 2.4 6.6-1.7 8.8L740 806l-.3 4.6-5.7 2.4-2.8 10 .4 9.9 3.4 11-.1 12.3 2.6 7.3 9.1 5 6.5 3.5 10.9-5.8 9.9-3.3 6.8-16.1 6.1-19.2 9.3-26.2 7.3-19.1 5.9-16.1 1.6-11.7 3.5-3.2 1.5-5.9-1.7-10.2 2.6-4.1 3.5 8.1 2.4-4.1 1.7-6.6-2.8-6.5z" class="map-item" data-id="MG" data-name="Madagascar"/>
  <path id="ML" fill="#f2f2f2" fill-rule="evenodd" d="M265.1 252.8l-13.3 1.3-.2-8.8-5.5-2.2-7.5-4-2.9-6.4-40.4-30.2-40-30.2-18.2.2 5.1 59.7 5.4 59.7 2 1.8-2.7 9.6-48.5.2-1.9 3.1-4.6-.9-6.9 2.7-8.4-3.8-3.8.3-2.2 8.2-4.1 2.5.4 8.6 2.3 7.9 4.5 3.9 1 5.3-.6 4.4.6 5h2l3.2-1.8 2 .4 3.3 3.5 5.2 1.1 3.3-3 4-1.8 2.9-1.9 2.4.3 2.7 3.1 1.4 3.8 5 5.8-2.5 3.5-.6 4.5 2.6-1.3 1.6 1.6-.7 4.1 3.7 4 1.6-1.3 3.3 2.1 9.4.1 2.3-4 2.1.3 3.5-1.6 1.8 5.9 2.9-1.7 5-2.1-.8-8 3.4-5.9-.3-4.7 9.7-11.4 1.8-9.5 3.4-3.4 5.8 1.9 5.1-2.8 1.7-3.6 9.4-6.2 2.3-4.3 11.3-5.8 6.7-1.9 3 2.6h7.8l7.7-.6 4.5-4.9 16.5-1.2 10.7-2.2 1-8.5 6.6-9.2z" class="map-item" data-id="ML" data-name="Mali"/>
  <path id="MZ" fill="#f2f2f2" fill-rule="evenodd" d="M705.9 666.7l-1.7-6.2-10 8.1-13.4 5.3-7.3-.2-4.5 4.2-8.4.3-3.3 1.8-14.4-3.9-4.7.5-3.3 13.1 1.4 15.8h.7l4.2 4.4 4.6 10 .3 17.8-5.4 3-4.1 9.6-7.5-8.6-.5-9.7 2.9-6.5-.5-5.5-4.7-3.5-3.3 1.2-6.8-6.6-37.1 11.4.8 9.9.6 5.1 10-.3 5.5 3 2.5 3.4 5.7 1 6.1 4.4-.8 17.5-2.8 9.6-1 10.4 1.7 4.1-1.7 8.1-1.9 1.3-3.6 9.9-13.4 15.7 4.7 19.5 2.5 9.9-3 15.4.7 5 1.3 6.2.6 6.1 9 .1 1.5-7.3-2.9-.9-.6-5.8 5.5-5.2 14.8-7.5 10.1-4.6 5.3-5 2.1-5.7-2.7-2.4 2.4-6.4 1.1-13.6-2.2.7.1-4.1-1.9-8.1-5.2-10.5 1.6-9.9 5.1-3.2 8.9-9.8 4.7-2.5 14.4-14.9 14-6.7 11.3-5.3 8.1-8.5 5.2-9.6 4.1-9.9-1.8-6.8.4-21.6-1-12.2z" class="map-item" data-id="MZ" data-name="Mozambique"/>
  <path id="MR" fill="#f2f2f2" fill-rule="evenodd" d="M155.3 172.3l-44.1-33.5-.5 20.9-38.9-.7-.4 35.4-11.2 1.3-3.1 7.1 1.9 20-46.9-.1-2.7 4.6 6.1 6 3 6.5-1.4 6.9 1.3 6.9 1 13.7-1.8 13-3.5 6.8.9 7.5 4.2-4.5 6 1.2 5.9-3 6.8-.1 5.7 4 7.9 3.7 7.2 10.2 7.8 9.5 4.1-2.5 2.2-8.2 3.8-.3 8.4 3.8 6.9-2.7 4.6.9 1.9-3.1 48.5-.2 2.7-9.6-2-1.8-5.4-59.7-5.1-59.7z" class="map-item" data-id="MR" data-name="Mauritania"/>
  <path id="MW" fill="#f2f2f2" fill-rule="evenodd" d="M632.3 712.2l.3-5.2-2.7-4.1.4-6-3.3-10.2 3.7-7.7-.2-16.7-4.1-8.9.4-1.5-2.3-3.8-11.9-2.6 5.6 6.2 2.8 11.7-2.2 3.8-2.7 11.2 2 11.5-4 4.8-4.1 12.8 6.2 3.6 6.8 6.6 3.3-1.2 4.7 3.5.5 5.5-2.9 6.5.5 9.7 7.5 8.6 4.1-9.6 5.4-3-.3-17.8-4.6-10-4.2-4.4h-.7l.1 1.9 2.3.5 2.2 7.4-.4 1.7-4.1-5.3-2.2 3.4z" class="map-item" data-id="MW" data-name="Malawi"/>
  <path id="NA" fill="#f2f2f2" fill-rule="evenodd" d="M493.7 760.2l-22.4 5.7-29.1-2-8.2-6.6-48.8.6-1.9 1-7.1-6.3-7.8-.4-7.2 2.3-5.9 2.7.6 10.6 9.5 13.5 2.5 8.7 6 16.6 5.9 11.4 4.6 5.7 1.3 7.6-.1 16.5 3.4 21.3 2.6 10.1 2.2 13.4 4.3 10.1 8.3 10.5 6-6.8 4.5 3.7 1.7 6 5.2 1 7.3 2.6 6.4-1 10.8-7.1 2.2-51.1 1.4-40.4 11.8-.5 1.9-49.3 9-.4 18.7-4.9 4.4 5.7 7.9-5.4h3.6l6.9-3.1V761l-4.7-3.1-7.8-.8z" class="map-item" data-id="NA" data-name="Namibia"/>
  <path id="NE" fill="#f2f2f2" fill-rule="evenodd" d="M376 199.1l-19-6-40.5 26.4-34.5 27.1-16.9 6.2.3 31.9-6.6 9.2-1 8.5-10.7 2.2-16.5 1.2-4.5 4.9-7.7.6-1 6.7 1.6 6.3 6.9 9 .4 6.7 14 3.1-.3 9.5 4.1-4 4.3-.1 9.3 8 .8-12.4 3.5-5.5 1.6-8 3.2-3 13-1.6 12.2 5.1 4.6 5.3 6.1.2 5.8-3.4 14.7 7.1 6.2-.3 7.1-5.9 7.1.4 3.5-1.9 6.5.8 9.4 4 9.4-7.7 2.9.6 8.4 15.1 2.2-.3.4-4.4 3.4-.8 1.1-6.5-7.8-.3-.1-8.9-5.1-5.2 4.9-18.2 15.2-13 .2-18 4-28.1 2.5-6-5.1-4.7-.3-4.4-4.6-3.6-3.4-21.5-8.3 5.1z" class="map-item" data-id="NE" data-name="Niger"/>
  <path id="NG" fill="#f2f2f2" fill-rule="evenodd" d="M385.9 345.1l-2.2.3-8.4-15.1-2.9-.6-9.4 7.7-9.4-4-6.5-.8-3.5 1.9-7.1-.4-7.1 5.9-6.2.3-14.7-7.1-5.8 3.4-6.1-.2-4.6-5.3-12.2-5.1-13 1.6-3.2 3-1.6 8-3.5 5.5-.8 12.4-.5 4.6 2.8 8.2-2.4 5.6 1.3 3.7-5.9 8.5-3.7 4.3-2.3 8.7.3 8.8-.6 22.3h10.7l9.2-.1 8.6 9.1 4.1 10 6.5 8.6 9.8.3 4.7-3.1 4.6.8 12.7-5 3.1-9.8 5.7-13.4 3.6-.1 7.2-8.1 4.6-.2 6.9 5.7 8.3-4.7 1.1-5.7 2.7-5.6 1.9-7 6.4-5.7 2.4-9.7 2.6-3.1 1.6-7.2 3.1-8.8 10.2-10.7.5-4.6 1.3-2.5z" class="map-item" data-id="NG" data-name="Nigeria"/>
  <path id="RW" fill="#f2f2f2" fill-rule="evenodd" d="M585.6 533.5l-7.4 4.3-2.9-1.4-3.5 3.8-.5 8.3-1.7 1-1.2 7.6 7.4 1.1 3.8-7.9 6.5.9 3.5-1.8.8-8.1z" class="map-item" data-id="RW" data-name="Rwanda"/>
  <path id="EH" fill="#f2f2f2" fill-rule="evenodd" d="M111.5 135.1h-1.8l.1 7.5-7.3.4-3.9 3.2h-5.4l-4.2-1.8-10 1.4-4.2 10.8-3.7 1.1-6 17.4-16.9 15-4.4 19.1-5 6.2-1.6 5-27 1.1-.2-.1-.6 5.9 2.7-4.6 46.9.1-1.9-20 3.1-7.1 11.2-1.3.4-35.4 38.9.7.5-20.9.3-2.7z" class="map-item" data-id="EH" data-name="W. Sahara"/>
  <path id="SD" fill="#f2f2f2" fill-rule="evenodd" d="M657.7 292.4l.7-9.2 3.6-4.2 8.8-2.3 5.7-7.9-6.9-5.1-4.8-3.4-5.3-16.5-2.5-14.3 2.5-2.5-4.7-13.6H512.9l1 27.7h-13.8l.1 5.8 2.4 54.9-10.5-.9-5.2 10.2-3 8.5 2.6 3.2-3.8 4.3 1.5 5.7-3 5.8-1.2 5 4.3-.8 2.6 5.4.3 8 4.6 4.1-.1 3.4 1.5 5.9 7.2 8.6.1 5.7-1.9 5.7.9 4.3 4.2 4 1 .7 3.8-1.6 4.1-2.6 2.9-12.3 3.2-6.4 8.8-1.9 2.1 3.8 6.5 8 3.3 1.2 4.4-2.3 8.7.4 1.8 2.9h12.1l.3-2.9 6.3-2.6 1.1-4 4.6-2.9 10.4 8.1 6.2-1.4 5.8-10 6.5-7.6-1.3-8.3-3-4 7.3-.8.7-3 5.7.9-1.2 10.2 1.7 10 6.5 5.5 1.5 4.7v6.9l1.7.3-.1-1.7 3.3-14.5 5.6-3.8 1.1-5.7 4.8-10.6 7.1-6.8 4.5-13.6 1.4-11.9-1.5-5.6z" class="map-item" data-id="SD" data-name="Sudan"/>
  <path id="SS" fill="#f2f2f2" fill-rule="evenodd" d="M625.5 379.7L624 375l-6.5-5.5-1.7-10 1.2-10.2-5.7-.9-.7 3-7.3.8 3 4 1.3 8.3-6.5 7.6-5.8 10-6.2 1.4-10.4-8.1-4.6 2.9-1.1 4-6.3 2.6-.3 2.9h-12.1l-1.8-2.9-8.7-.4-4.4 2.3-3.3-1.2-6.5-8-2.1-3.8-8.8 1.9-3.2 6.4-2.9 12.3-4.1 2.6-3.8 1.6 8.4 5.4 6.8 5.5.1 4.5 8.3 7.2 5.2 6 3.2 8.3 9.2 5.5 2 4.4 7.5 11.4 5.5 1.7 3.2-2.3 5.7.9 6.8-2.9 2.9 5.9 10.9 9.2 5-3.8 7.8 3.1 9.8-3.3 8.6.1 7.4-6.4 7.4-8.3 8.1-9.1-7.4-15-5.7-3.2-2.2-5.6-6.3-6.7-7.5-1 4-7.9 6.4-.3 1.8-4.2-.4-10.8-1.7-.3z" class="map-item" data-id="SS" data-name="S. Sudan"/>
  <path id="SN" fill="#f2f2f2" fill-rule="evenodd" d="M66.5 315.6l-7.8-9.5-7.2-10.2-7.9-3.7-5.7-4-6.8.1-5.9 3-6-1.2-4.2 4.5-3 7.1-6.1 9.7L.5 314l6 4.9 4.8 10.8 13.2-.4 2.8-3.3 3.8-.2 4.7 3.4 3.8.1 4-2.3 2.4 4-5.3 3.1-5.2-.3-5.2-2.9-4.5 3.2-2.2.1-3 1.9-11-.2 1.8 10.6 6.5-2.3 4 .5 3.3-1.6 22.4.6 5.8.1 8.7 3.4 2.7-.3.9-1.6 6.6 1.1 1.8-.7.6-4.4-1-5.3-4.5-3.9-2.3-7.9z" class="map-item" data-id="SN" data-name="Senegal"/>
  <path id="SL" fill="#f2f2f2" fill-rule="evenodd" d="M89.2 401.5l-3.3.8.1-5.1-1.9-3.6.4-4-2.6-5.8-3.3-5h-9.7l-2.9 2.6-3.3.3-2.1 3-1.5 3.8-6.5 6.1 1.4 10.3 2.1 5 6.3 7.4 8.7 5.6 3.3 1 2.9-4.4.7-4 5.5-7.5z" class="map-item" data-id="SL" data-name="Sierra Leone"/>
  <path id="SZ" fill="#f2f2f2" fill-rule="evenodd" d="M591.7 875.4l-5.8-2.6-3.5 1-1.4 4-3.6 5.2-.2 4.8 6.6 7.5 7-1.5 2.8-6.1-.6-6.1z" class="map-item" data-id="SZ" data-name="Swaziland"/>
  <path id="TD" fill="#f2f2f2" fill-rule="evenodd" d="M500.2 246.9l-48.7-26.5-48.4-26.5-11.9 7.6 3.4 21.5 4.6 3.6.3 4.4 5.1 4.7-2.5 6-4 28.1-.2 18-15.2 13-4.9 18.2 5.1 5.2.1 8.9 7.8.3-1.1 6.5 4.9 8.9 1 9.1-.4 9.2 6.8 12.6-6.8-.1-3.4.9-5.6-1.3-2.5 6.5 7.2 8.1 5.3 2.3 1.8 5.7 3.9 9.6-1.8 3.7 10-1 2.2-3.6 2.1.3 3 3.1 15.3-5.3 5.1-5.4 6.3-4.8-1.2-4.9 3.4-1.2 11.8.8 11.3-6.4 8.6-15.1 6-5.6 7.7-2.3.1-3.4-4.6-4.1-.3-8-2.6-5.4-4.3.8 1.2-5 3-5.8-1.5-5.7 3.8-4.3-2.6-3.2 3-8.5 5.2-10.2 10.5.9z" class="map-item" data-id="TD" data-name="Chad"/>
  <path id="TG" fill="#f2f2f2" fill-rule="evenodd" d="M224.8 365.7l-10.7-.3-.9 4.3 5.1 7.1v10.1l1.2 10.9 3 5-2.7 12.5 1 6.8 3.2 8.8 2.8 4.9 9.8-3-3-9.5.5-31.8-2.5-2.8-.4-6.8-4.3-4.9-3.7-4.1z" class="map-item" data-id="TG" data-name="Togo"/>
  <path id="TN" fill="#f2f2f2" fill-rule="evenodd" d="M347.2 59.5l-4.5-2.2-3.2-6.6-6-.2-2.4-7.6 7.3-7 1.1-12.1-4.1-3.5-.2-6.5 5.5-7-.9-2.7-9.5 5.2.1-7.1-8.1-1.7-12.2 5.7-2.2 7.2 2.3 13.4-2.4 11.6-7 7.8 1.3 10.4 9.7 8.3.2 3.3 7.3 5.6 5.7 24.7 5.6-3.2.9-5.8-1.5-5.7 7.9-5.3 3.4-4.4 5.6-4z" class="map-item" data-id="TN" data-name="Tunisia"/>
  <path id="TZ" fill="#f2f2f2" fill-rule="evenodd" d="M589.9 531.8l-4.3 1.7 4.8 7.8-.8 8.1-3.5 1.8.6 5.4 2.6 3.2.1 4.5-3 2.9-4.9 7.2-4.5 5-1.2.2-.7 5.9 2.3 2-.5 5.9 2.3 5.5-2.9 5.3 9.7 9.4.8 8.5 5.9 14.2.6.4 4.8 2.3 7.7 2.4 6.8 4.1 11.9 2.6 2.3 3.8.8-2.7 6.2 7.4.6 14.5 3.9 5.3-.1.2 4.7-.5 14.4 3.9 3.3-1.8 8.4-.3 4.5-4.2 7.3.2 13.4-5.3 10-8.1-4.4-3-4.7-13.6-4-8.7 1-6.6-.6-4.2 3.5-8.4-.3-3.6-7.7-5-.6-7.8 5.9-17.1-17.3-13.8-.7-8-44.1-28.2-6 6.1-4.1 6.3 4.8 4.7-7 3.4-1.5-1.6-7.1.9-5.5 3.1-3.3-5.4 2.3-9.7.5-8.3z" class="map-item" data-id="TZ" data-name="Tanzania"/>
  <path id="UG" fill="#f2f2f2" fill-rule="evenodd" d="M629 459l-7.4 6.4-8.6-.1-9.8 3.3-7.8-3.1-5 3.8-.6 16.1 4.9 1.9-3.9 4.9-4.7 3.7-4.6 7.2-2.6 6.4-.6 11.1-2.9 5.3-.1 10.5 2.9 1.4 7.4-4.3 4.3-1.7 13.4.2-.7-5.3 5.7-8.1 7.7-2 5.2-3.3 6.3 2.7.6 1v-.7l3.5-5.6 5.9-9.2 4.4-10.1-5.5-15.8-1.5-7z" class="map-item" data-id="UG" data-name="Uganda"/>
  <path id="ZA" fill="#f2f2f2" fill-rule="evenodd" d="M440 999.5l5.3-.3 7.5-5.3 10-2.2 12.3-5.5 4.7.7 7.2-1.7 12.3 2.7 5.9-2.6 6.9 2 1.8-3.8 6-.8 12.6-5.3 9.3-6.3 8.9-8.3 14.4-14.2 7.5-9.9 3.9-7.1 5.5-7 2.5-2 8.6-7 3.5-6.2 2.3-11.5 3.7-10.1-9-.1-2.8 6.1-7 1.5-6.6-7.5.2-4.8 3.6-5.2 1.4-4 3.5-1 5.8 2.6-.7-5 3-15.4-2.5-9.9-4.7-19.5-6.3-1.3-4.1 1.6-5.7-2.3-4.9-.2-17.3 10.2-11.2 10.3-4.4 9.3-3.9 5.2-6.5 1.1-2.4 6.6-1.4 4.3-7.8 3.2-9.6-.6-5.5-3.9-4.9-1.7-6 3.2-3.2 6.6-5.8 4.2-6.2 6.2-8.5 1.4-2.5-4.9 1.5-8.4-6.5-13.2-3.2-2-2.2 51.1-10.8 7.1-6.4 1-7.3-2.6-5.2-1-1.7-6-4.5-3.7-6 6.8 7.7 17.9v.1l5.4 11.7 6.9 12.8-.2 10.6-3.9 2.5 3.2 9.3-.5 8.1 1.3 3.8.7-1.9 4.6 6.2 3.8.2zm103-59.1l-4.3 1.3-8-10.6 6.9-8.7 6.8-5.4 5.7-2.8 4.8 4.2 3.8 4.2-4.1 6.7-2.4 4.5-6.7 2.2z" class="map-item" data-id="ZA" data-name="South Africa"/>
  <path id="ZM" fill="#f2f2f2" fill-rule="evenodd" d="M589 636.5l-4.1-1.1.7-3-2.1-.6-16.4 2.3-3.3 1.7-3.6 8.8 2.6 6.1-2.5 16.4-1.9 13.9 3.2 2.4 8.4 5.4 3.4-2.5.6 14.9-9.3-.1-4.8-7.6-4.3-5.9-9.2-1.9-2.6-7.3-7.5 4.4-9.7-2-3.9-6.2-7.7-1.3-5.7.3-.6-4.3-4.2-.3 1.2 4.3-1.5 6.7 2 6.5-2 5.2 1 4.7-25.3-.1-1.6 44 7.8 11.3 7.6 8.6 9.9-3.1 7.8.8 4.7 3.1v1.2l2.2 1 13.4 1.5 3.8 1.6 4.1-.3 7-9 10.9-11.4 4.4-1 1.7-4.8 7-5.5 9.3-1.9-.8-9.9 37.1-11.4-6.2-3.6 4.1-12.8 4-4.8-2-11.5 2.7-11.2 2.2-3.8-2.8-11.7-5.6-6.2-6.8-4.1-7.7-2.4-4.8-2.3-.6-.4.9 2.3-2 .8z" class="map-item" data-id="ZM" data-name="Zambia"/>
  <path id="ZW" fill="#f2f2f2" fill-rule="evenodd" d="M586.8 825.6l13.4-15.7 3.6-9.9 1.9-1.3 1.7-8.1-1.7-4.1 1-10.4 2.8-9.6.8-17.5-6.1-4.4-5.7-1-2.5-3.4-5.5-3-10 .3-.6-5.1-9.3 1.9-7 5.5-1.7 4.8-4.4 1-10.9 11.4-7 9-4.1.3-3.8-1.6-13.4-1.5 4.2 11.1 2.3 2.4 3.5 8 13 15.2 5.1 1.5-.2 4.9 3.1 8.8 9.2 2.1 7.3 6.2 4.9.2 5.7 2.3 4.1-1.6z" class="map-item" data-id="ZW" data-name="Zimbabwe"/>
  <path id="SO" fill="#f2f2f2" fill-rule="evenodd" d="M750.3 373.3l-5.7-5.8-2.5-5.7-4.1-2.6-4.2 7.4-2.5 4.9 4.8 7.7 4.6 6.6 4.8 5 40.3 16.4 10.3-.1-33.5 41.5-15.9.6L736 459l-7.8.2-3.3 4.4-10.5 15.7.4 50.4 7.2 11.4 2.7-3.3 2.9-7.3 13.4-16.7 11.4-10.6 18.1-13.7 12.1-11.2 14.1-18.9 10.1-15.5 10-20.2 7-17.7 5.4-15.5 2.9-14.9 2.4-5-.4-7.3.8-8-.5-3.9-4.6.1-5.5 4.7-6.4 1.4-5.5 2.1-3.9.2-6.9.5-4.2 2.6-6 .9-10.5 4.3-13.2 1.6-11.3 3.5z" class="map-item" data-id="SO" data-name="Somalia"/>
</svg>
