<svg xmlns="http://www.w3.org/2000/svg" id="svg2" width="183.1" height="126.5" fill="none" stroke="#000" stroke-linejoin="round" viewBox="0 0 183.1 126.5">
  <defs id="defs4">
    <style id="style6">
      path{fill-rule:evenodd}
    </style>
  </defs>
  <path id="AG" fill="#f2f2f2" fill-rule="evenodd" d="M171.6 63.6l.2-.1v-.3l-.1-.1-.1-.2-.4-.2-.5.5v.2l.1.3.6.1zm.2-3.5v-.5l-.1-.2h-.3l-.1-.1h-.1l-.1.1.1.6.5.3z" class="map-item" data-id="AG" data-name="Antigua and Barb."/>
  <path id="BS" fill="#f2f2f2" fill-rule="evenodd" d="M111.7 37.1l.2-.6-.3-.1-.5.7-.6.3h-.3l-.7-.3h-.5l-.4.5-.6.1.1.1v.2l-.2.3v.2l.1.3 1.5-.1 1.3-.2.7-.9zm.8-2l-.4-.3-.4.3.1.3zm0-5.8l-.4-.2-.3.5.3.1.7-.1.5.1.5.4.3-.2-.1-.1-.4-.3-.6-.1h-.2zm-6.6 1.3l.7-.6.7-.3.9-1.1-.1-.9.2-.4-.6.1-.1.3-.1.3.3.4v.2l-.2.4-.3.1-.1.2-.3.1-.4.5-.8.6-.2.3zm1.2-3.2l-.6-.2-.2-.4-.4-.1-.1.2v.2l.1.4.2-.1.8.4.4-.3zm-4.1-1.1v-.7l-.4-.5-.6-.4-.1-1.2-.3-.7-.2-.6-.4-.8v.5l.1.1.1.6.4.9.1.4-.1.4-.4.1-.1.2.5.3.8.3.5 1.3zm-4.1-3.5l-.5-.3-.2-.3-.7-.7-.3-.1-.2.4.4.1.9.7.4.2zm7.3-4l-.1-.3h-.1l-.3.1-.3.9h.3zm-17.6-1.1l-.2-.3-.3.2h-.5l-.2.1H87l-.3.2.4.8.3.3.1 1 .2.1-.1.7 1.1.1.4-.8v-1.7l-.3-.5-.4.6-.4-.3.6-.4zm12.9.3l-1-1.4v-.2l-.5-1.5-.3-.1-.1.1-.1.2.4.4v.4l.3.2.4 1.1.4.4-.1.3-.4.3-.1.2h.1l.6-.1h.4zM91 12.8l.5-.2-.3-.2h-.7l-.4.1-.2.2.1.1.4.1zm-2.4 2l-.5-.6-.3-.9-.2-.4.1-.5-.3-.4-.6-.4-.3.1.1 1.1-.2.6-.8 1.1.1.4.1.2-.5.4v-.3l-.6.1.3.5.6.4.3.1.3-.2v.5l.3.4.1.4.3-.3.6-.2.2-.2.7-.4v-.2l.1-.6zm6.7-5l-.3-.5-.1.1-.1.4-.3.4.5-.1.4.1.6.5.7.2.3.6.6.6v.6l-.4.6-.1.7-.6.1.1.1.3.3.1.4.2.2v-.7l.3-.8.4-1.3-.1-.3-.3-.3-.7-.9-.7-.3zm-8.8-7.9l-.5-.4-.2.4V2l-.1.3-.5.4-.5.1-.7-.6-.2-.1.8 1.1.3.1h.4l.9-.3 1.6-.5 1.7-.2.1-.2-.1-.3-.8.2-1-.1-.2.2h-.4zm6.1 5.2l.2-.3.4-1.8.8-.6.1-1.2-.5-.5-.4-.2-.1-.2.1-.2L93 2l-.3-.2-.4-.6-.4-.4-.7-.1-.6-.1-.4-.1-.5.3h.8l1.5.3.7 1.5.5.4.1.4-.2.4v.4l-.3.5-.1.8-.3.4-.7.5.4.2.3.6z" class="map-item" data-id="BS" data-name="Bahamas"/>
  <path id="BB" fill="#f2f2f2" fill-rule="evenodd" d="M182.2 88.7l.4-.4-.3-.3-.6-.8-.3.1v1l.1.3.5.3z" class="map-item" data-id="BB" data-name="Barbados"/>
  <path id="BZ" fill="#f2f2f2" fill-rule="evenodd" d="M19.8 70.9l1.4-2.2 1-.2 1.3-1.7 1-3.2-.3-.6.9-2.3-.4-1L26 57l.3-1.8h-1.1l.1-.9h-1l-2.5 3.9-.9-.8-.7.3-.1 1-.7 5-1.2 7.2z" class="map-item" data-id="BZ" data-name="Belize"/>
  <path id="DM" fill="#f2f2f2" fill-rule="evenodd" d="M173.1 74.9l.3-.7-.1-1-.2-.4-.8-.3v.2l-.1.5.3.8.1 1.1z" class="map-item" data-id="DM" data-name="Dominica"/>
  <path id="DO" fill="#f2f2f2" fill-rule="evenodd" d="M116.9 57.2V59l1.4 1 2.6-4.4 2-.9.6 1.6 2.2-.4 1.1-1.2 1.8.3 2.6-.2 2.5 1.3 2.3-2.6-2.5-2.3-2.4-.2.3-1.9-3 .1-.8-2.2-1.4.1-3.1-1.6-4.4-.1-.8 1.1.2 3.5-.7 2.4-1.5 1.1 1.2 1.9z" class="map-item" data-id="DO" data-name="Dominican Rep."/>
  <path id="GD" fill="#f2f2f2" fill-rule="evenodd" d="M169.4 95.5l.5-.2.2-1.1-.3-.1-.3.3-.3.5v.4l-.2.3z" class="map-item" data-id="GD" data-name="Grenada"/>
  <path id="GT" fill="#f2f2f2" fill-rule="evenodd" d="M20.1 58.7l-5.1-.1H9.8l-.4 3.6H6.8l1.8 2.1 1.9 1.5.5 1.4.8.4-.4 2.1H4.3L1 74.9l.7 1.2-.8 1.5-.4 1.9 2.7 2.6 2.5 1.3 3.4.1 2.8 1.1.2-1 2.1-1.6 1.1-.7-.2-.7 1.4-.4 1.3-1.6-.3-1.3.5-1.2 2.8-1.8 2.8-2.4-1.5-.8-.6.9-1.7-1.1h-1.6l1.2-7.2z" class="map-item" data-id="GT" data-name="Guatemala"/>
  <path id="HT" fill="#f2f2f2" fill-rule="evenodd" d="M117.9 46.5l-4.6-1-3.4-.2-1.4 1.7 3.4 1-.3 2.4 2.2 2.8-2.1 1.4-4.2-.5-5-.9-.7 2.1 2.8 1.9 2.7-1.1 3.3.4 2.7-.4 3.6 1.1.2-1.8-1.2-1.9 1.5-1.1.7-2.4z" class="map-item" data-id="HT" data-name="Haiti"/>
  <path id="HN" fill="#f2f2f2" fill-rule="evenodd" d="M51.4 76.6l-1.3-1.8-1.9-1-1.5-1.4-1.6-1.2-.8-.1-2.5-.9-1.1.5-1.5.2-1.3-.4-1.7-.4-.8.7-1.8.7-2.6.2-2.5-.6-.9.4-.5-.6-1.6.1-1.3 1.1-.6-.2-2.8 2.4-2.8 1.8-.5 1.2.3 1.3-1.3 1.6 1.5.5 1.1 1.3 1.6 1 .1.9 2.5-.8 1.1.5.7.7-.6 2.5 1.7.6.7 2 1.8-.3.8-1.5h.8l.2-3.1 1.3-.2H33l1.4-1.7 1.5 1.3.6-.8 1.1-.7 2.1-1.8.3-1.3.5.1.8-1.5.6-.2.9.9 1.1.3 1.3-.8h1.4l2-.8.9-.9z" class="map-item" data-id="HN" data-name="Honduras"/>
  <path id="JM" fill="#f2f2f2" fill-rule="evenodd" d="M88 58.3l3.9-.1-.8-1.8-2.7-1.5-3.7-.6-1.2-.2-2.4.4-.8 1.5 2.9 2.3 3 1z" class="map-item" data-id="JM" data-name="Jamaica"/>
  <path id="CR" fill="#f2f2f2" fill-rule="evenodd" d="M46.4 102.4l-1.4 1.3-1.7-.4-.8-1.3-1.7-.5-1.4.8-3.5-1.7-.9.8-1.4 1.2 1.5.9-.9 2-.1 2 .7 1.3 1.7.6 1.2 1.8 1.2-1.6-.3-1.8 1.4 1.1.3 1.9 1.9.8 2.1 1.3 1.5 1.5.1 1.4-.7 1.1 1.1 1.3 2.9 1.4.4-1.2.5-1.3-.1-1.2.8-.7-1.1-1 .1-2.5 2.2-.6-2.4-2.7-2-2.6z" class="map-item" data-id="CR" data-name="Costa Rica"/>
  <path id="CU" fill="#f2f2f2" fill-rule="evenodd" d="M76.3 27.1L71.4 25l-4.3-.1-4.7-.5-1.4.7-4.2.6-3 1.3-2.7 1.4-1.5 2.3-3.1 2 2.2.6 2.9-.7.9-1.6 2.3-.1 4.4-3.3 5.4.3-2.3 1.6 1.8 1.3 7 1 1.5 1.3 4.9 1.7 3.2-.2.8 3.6 1.7 1.8 3.5.4 2.1 1.7-4.1 3.5 7.9-.6 3.8.5 3.7-.3 3.8-.8.8-1.5-3.9-2.6-4-.3.6-1.7-3.1-1.3h-1.9l-3-2.8-4.2-4-1.8-1.5-5.2.8z" class="map-item" data-id="CU" data-name="Cuba"/>
  <path id="NI" fill="#f2f2f2" fill-rule="evenodd" d="M51.4 76.6l-1.9-.2-.9.9-2 .8h-1.4l-1.3.8-1.1-.3-.9-.9-.6.2-.8 1.5-.5-.1-.3 1.3-2.1 1.8-1.1.7-.6.8-1.5-1.3-1.4 1.7h-1.2l-1.3.2-.2 3.1h-.8l-.8 1.5-1.8.3-.4.4-.9-1-.7 1 2.6 2.9 2.2 2 1 2.1 2.5 2.6 1.8 2 .9-.8 3.5 1.7 1.4-.8 1.7.5.8 1.3 1.7.4 1.4-1.3-.8-1.1-.1-1.7 1.2-1.6-.2-1.7.7-2.7.9-.7.1-2.8-.2-1.7.4-2.8.9-2.5 1.4-2.2-.3-2.3.4-1.4z" class="map-item" data-id="NI" data-name="Nicaragua"/>
  <path id="PA" fill="#f2f2f2" fill-rule="evenodd" d="M80.8 116.8l-2-1.8-1.7-1.9-2.5-1.1-3.1-.2.3-.6-3.1-.4-2 1.9-3.5 1.3-2.5 1.6-2.7.5-1.5-1.6-.5.5-2.3-.3.2-1.3-1.9-2.3-2.2.6-.1 2.5 1.1 1-.8.7.1 1.2-.5 1.3-.4 1.2.6 1 .3-1.4h2.4l1.4.7 2.3.5 1 2.5 1.8.4.8-1.1.8 3.8 2.6-.3.9-.9 1.5-.9-2.5-3.4.6-1.3 1.3-.3 2.3-1.6 1.2-2.2 2.5-.4 2.7 1.8 1 2.1 1.4.4-1.5 1.7 1 3.5 1.8 1.8.9-3.1 1.8.5 1.1-1.9-1.1-3.8z" class="map-item" data-id="PA" data-name="Panama"/>
  <path id="PR" fill="#f2f2f2" fill-rule="evenodd" d="M138.1 57.1V57h.1v-.1l.1-.1v-.1h-.5v.2l.2.1v.1zm13.6-.3l.7-.2v-.1l-.4-.1h-.6l-.5.2.1.2h.2zm-3.7-2.2l-.1-.2h-.2l-3.5-.1-1.3-.2-.3.1-.3.1-.1.4-.2.2-.3.2.1.3.1.2.2.4-.1.5-.2 1 .3.2.7-.1.3.1.3.1.4-.1.4-.2.9.1.5-.1.6.3.4-.1.2.1h.9l.9-.2.8-.5.3-.5.4-.3.6-.4V55l-.7-.1-.6-.3-1.1-.1h-.1l.1.2h-.1z" class="map-item" data-id="PR" data-name="Puerto Rico"/>
  <path id="KN" fill="#f2f2f2" fill-rule="evenodd" d="M167.2 63v-.3l-.2-.2h-.3v.5l.2.2zm-.5-.7l-.1-.2-.1-.1-.2-.4-.4-.4-.2.1-.1.2v.1l.3.3.4.1.2.4z" class="map-item" data-id="KN" data-name="St. Kitts and Nevis"/>
  <path id="LC" fill="#f2f2f2" fill-rule="evenodd" d="M174.7 84l.1-1.2-.1-.5-.2.1-.3.4-.4.6-.1.3v.6l.6.4z" class="map-item" data-id="LC" data-name="Saint Lucia"/>
  <path id="VC" fill="#f2f2f2" fill-rule="evenodd" d="M171.8 91.2v-.1h.1v-.2h-.1v.2h-.1v.1zm.7-1.9l.1-.2.1-.1-.1-.1v.1l-.2.1v.2h-.2.1l.1.1zm.3-1.1l.3-.2.1-.6-.1-.4h-.2l-.3.1-.2.3-.1.5.4.4z" class="map-item" data-id="VC" data-name="St. Vin. and Gren."/>
  <path id="SV" fill="#f2f2f2" fill-rule="evenodd" d="M24.5 86.8l.6-2.5-.7-.7-1.1-.5-2.5.8-.1-.9-1.6-1-1.1-1.3-1.5-.5-1.4.4.2.7-1.1.7-2.1 1.6-.2 1 1.4 1.3 3.1.4 2.2 1.3 1.9.6 3.3.1z" class="map-item" data-id="SV" data-name="El Salvador"/>
  <path id="TT" fill="#f2f2f2" fill-rule="evenodd" d="M172.7 107.5l.1-.2v-.6l.2-.4-.2-.4-.1-.6.1-.5v-.7l.2-.3.5-.8h-.9l-.6.2-1.1.1-.5.2-.7.1-.4.2.1.1.5.2.2.2.1.2.1.4-.3 1.7-.1.1-.6.1-.2.3-1.4.8.8-.1.9.1 2.4-.1zm1.8-6.7l1.2-.5.1-.4h-.2l-.8.3-.6.5v.2z" class="map-item" data-id="TT" data-name="Trinidad and Tobago"/>
</svg>
