<svg xmlns="http://www.w3.org/2000/svg" id="svg2" width="700.4" height="554.2" fill="none" stroke="#000" stroke-linejoin="round" viewBox="0 0 700.4 554.2">
  <defs id="defs4">
    <style id="style6">
      path{fill-rule:evenodd}
    </style>
  </defs>
  <path id="AF" class="map-item" fill="#f2f2f2" fill-rule="evenodd" d="M301 249.4h-5.4l-3.8-.5-2.5 2.9-2.1.7-1.5 1.3-2.6-2.1-1-5.4-1.6-.3v-2l-3.2-1.5-1.7 2.3.2 2.6-.6.9-3.2-.1-.9 3-2.1-1.3-3.3 2.1-1.8-.8-4.3-1.4h-2.9l-1.6-.2-2.9-1.7-.3 2.3-4.1 1.2.1 5.2-2.5 2-4 .9-.4 3-3.9.8-5.9-2.4-.5 8-.5 4.7 2.5.9-1.6 3.5 2.7 5.1 1.1 4 4.3 1.1 1.1 4-3.9 5.8 9.6 3.2 5.3-.9 3.3.8.9-1.4 3.8.5 6.6-2.6-.8-5.4 2.3-3.6h4l.2-1.7 4-.9 2.1.6 1.7-1.8-1.1-3.8 1.5-3.8 3-1.6-3-4.2 5.1.2.9-2.3-.8-2.5 2-2.7-1.4-3.2-1.9-2.8 2.4-2.8 5.3-1.3 5.8-.8 2.4-1.2 2.8-.7z" data-id="AF" data-name="Afghanistan"/>
  <path id="SA" class="map-item" fill="#f2f2f2" fill-rule="evenodd" d="M159.8 302.6l-10.2-.5-16.7-12.7-8.5-4.5-6.7-1.7-.9 1-10.4 3.1 6.1 6.4-1.7 1-.7 2.2-4 .8-1.1 2.3-2.1 2-6.1-1-.5 2.5v2.2l-.6 3.5h2.7l3.2 4.4 3.7 5.1 2.5 4.7 1.7 1.5 1.7 3.3-.2 1.4 2.1 3.7 3 1.3 2.8 2.5 3.6 7v3.8l.9 4.4 4 6.1 2.5 1 4.1 4.4 1.9 5.2 3.2 5.3 3 2.3.6 2.5 1.8 1.9.9 2.8 2.3-2.1-.7-2.7 1.2-3.1 2.4 1.7 1.5-.6 6.4-.2 1 .7 5.4.6 2.1-.3 1.6 2.1 2.5-1 3.5-6.7 5-2.9 15.7-2.4 16.1-6.4 2.6-12.7-2.9-4.5-1 1.3-16.8-3.2-2.6-6.4-.4-1.5-1.2-2.4-1.5.4-1.8-1.2-1-1.6-.9-2.1-1.7-1.8-1-2.1.4-2.1-.6-2.7-4-2.6-1.2-2.3-2.9-1.4-2.7-5.5-3.8.2-1.7-3.1z" data-id="SA" data-name="Saudi Arabia"/>
  <path id="AM" class="map-item" fill="#f2f2f2" fill-rule="evenodd" d="M150.1 240.7l-.9-4.4-2.5-1.1-2.5-1.7 1-2-3.1-2.2.7-1.5-2.2-1.1-1.4-1.7-6.9 1 1.3 2.2v3.1l4.2 1.5 2.4 1.9 1-.2 1.8 1.7h2.3l.2 1 2.8 3.7z" data-id="AM" data-name="Armenia"/>
  <path id="AZ" class="map-item" fill="#f2f2f2" fill-rule="evenodd" d="M141.2 234.5l-1 .2 1.2 2.4 3.2 2.9 3.7.9-2.8-3.7-.2-1H143zm10.4-9.3l-4.3-3.8-1.5-.2-1.1.9 3.2 3.4-.6.7-2.8-.4-4.2-1.8-1.1 1 1.4 1.7 2.2 1.1-.7 1.5 3.1 2.2-1 2 2.5 1.7 2.5 1.1.9 4.4 5.3-4.7 1.9-.5 1.9 1.9-1.2 3.1 3.8 3.4 1.3-.3-.8-3.2 1.7-1.5.4-2.2-.1-5 4.2-.5-2-1.7-2.5-.2-3.5-4.5-3.4-3.2-2.6 2.5-.5 1.5z" data-id="AZ" data-name="Azerbaijan"/>
  <path id="BD" class="map-item" fill="#f2f2f2" fill-rule="evenodd" d="M417.6 347.5l-4.5-10.1-1.5.1-.2 4-3.5-3.3 1.1-3.6 2.4-.4 1.6-5.3-3.4-1.1-5 .1-5.4-.9-1.2-4.4-2.7-.4-4.8-2.7-1.2 4.3 4.6 3.4-3.1 2.4-.8 2.3 3.7 1.7-.4 3.8 2.6 4.8 1.6 5.2 2.2.6 1.7.7.6-1.2 2.5 1.3 1.3-3.5-.9-2.6 5.1.2 2.8 3.7 1.5 3.1.8 3.2 2 3.3-1.1-5.1 2.1 1z" data-id="BD" data-name="Bangladesh"/>
  <path id="BT" class="map-item" fill="#f2f2f2" fill-rule="evenodd" d="M405.8 311.1l-2.7-1.8-2.9-.1-4.2-1.5-2.6 1.6-2.6 4.8.3 1.2 5.5 2.5 3.2-1 4.7.4 4.4-.2-.4-3.9z" data-id="BT" data-name="Bhutan"/>
  <path id="BN" class="map-item" fill="#f2f2f2" fill-rule="evenodd" d="M548.9 459l2.7 3.3 1.1-2.2 2.7.2.1-4.1.1-3.1-4.6 3.5z" data-id="BN" data-name="Brunei"/>
  <path id="CN" class="map-item" fill="#f2f2f2" fill-rule="evenodd" d="M518.3 368.9l.6-3.6 2-2.8-1.6-2.5-3.2-.1-5.8 1.8-2.2 2.8 1 5.5 4.9 2zm13.2-196.5l-6.1-6.1-4.4-3.7-3.8-2.7-7.7-6.1-5.9-2.3-8.5-1.8-6.2.2-5.1 1.1-1.7 3 3.7 1.5 2.5 3.3-1.2 2 .1 6.5 1.9 2.7-4.4 3.9-7.3-2.3.6 4.6.3 6.2 2.7 2.6 2.4-.8 5.4 1 2.5-2.3 5.1 2 7.2 4.3.7 2.2-4.3-.7-6.8.8-2.4 1.8-1.4 4.1-6.3 2.4-3.1 3.3-5.9-1.3-3.2-.5-.4 4 2.9 2.3 1.9 2.1-2.5 2-1.9 3.3-4.9 2.2-7.5.2-7.2 2.2-4.4 3.3-3.2-2-6.2.1-9.3-3.8-5.5-.9-6.4.8-11.2-1.3-5.5.1-4.7-3.6-4.9-5.7-3.4-.7-7.9-3.8-7.2-.9-6.4-1-3-2.7-1.3-7.3-5.8-5-8.1-2.3-5.7-3.3-3.3-4.4-1.7.5-1.8 4.2-3.8.6 2.5 6.2-1.6 2.8-10.7-2 1 11.1-2 1.4-9 2.4 8.7 10.7-2.9 1.6 1.7 3.5-.2 1.4-6.8 3.4-1 2.4-6.4.8-.6 4-5.7-.9-3.2 1.2-4 3 1.1 1.5-1 1.5 3 5.9 1.6-.6 3.5 1.4.6 2.5 1.8 3.7 1.4 1.9 4.7 3 2.9 5 9.4 2.6 7.6 7.5.8 5.2 3 3.3.6 3.3-4.1-.9 3.2 7 6.2 4 8.5 4.4 1.9-1.5 4.7 2 6.4 4.1 3.2.9 2.5 3.1 4.5 1.2 5 2.8 6.4 1.5 6.5.6 3-1.4 1.5 5.1 2.6-4.8 2.6-1.6 4.2 1.5 2.9.1 2.7 1.8 4.2-.8 3.9-4.8 5.3-4 4.9 1.5 3.2-2.6 3.5 3.9-1.2 2.7 6.1.9 3-.4 2.7 3.7 2.7 1.5 1.3 4.9.8 5.3-4.1 5.3.7 7.5 5.6-1 2.3 5.8 3.7 1.3-.8 5.2 4.5 2.4 2.5 1.2 3.8-1.8.6 2.6.7 1.5 2.9.1-1.9-7.2 2.7-1 2.7-1.5h4.3l5.3-.7 4.1-3.4 3 2.4 5.2 1.1-.2 3.7 3 2.6 5.9 1.6 2.4-1 7.7 2-.9 2.5 2.2 4.6 3-.4.8-6.7 5.6-.9 7.2-3.2 2.5-3.2 2.3 2.1 2.8-2.9 6.1-.7 6.6-5.3 6.3-5.9 3.3-7.6 2.3-8.4 2.1-6.9 2.8-.5-.1-5.1-.8-5.1-3.8-2-2.5-3.4 2.8-1.7-1.6-4.7-5.4-4.9-5.4-5.8-4.6-6.3-7.1-3.5.9-4.6 3.8-3.2 1-3.5 6.7-1.8-2.4-3.4-3.4-.2-5.8-2.5-3.9 4.6-4.9-1.9-1.5-2.9-4.7-1-4.7-4.4 1.2-3 5-.3 1.2-4.1 3.6-4.4 3.4-2.2 4.4 3.3-1.9 4.2 2.3 2.5-1.4 3 4.8-1.8 2.4-2.9 6.3-1.9 2.1-4 3.8-3.4 1-4.4 3.6 2 4.6.2-2.7-3.3 6.3-2.6-.1-3.5 5.5 3.6-1.9-3.1 2.5-.1-3.8-7.3-4.7-5.3 2.9-2.2 6.8 1.1-.6-6-2.8-6.8.4-2.3-1.3-5.6-6.9 1.8-2.6 2.5h-7.5l-6-5.8-8.9-4.5z" data-id="CN" data-name="China"/>
  <path id="CY" class="map-item" fill="#f2f2f2" fill-rule="evenodd" d="M81 264l-.3-.1-.5.2-.4.4-.4.3-.5-.3.2.9.6 1.1.2.3.3.2 1.1.3H82.2l.2.1.2.4h.4v-.4l.2-.2.3-.2h.3l.6-.1.6-.2.5-.4.9-1h1.2l.6-.1-.2-.4-.1-.1-.4-.5-.2-.4.1-.6 2.5-1.9.5-.5-.8.2-.6.4-.4.2-.7.4-2.3.8-.8.1H84l-1-.1-.9-.2v.7l-.2.6-.6.2z" data-id="CY" data-name="Cyprus"/>
  <path id="PH" class="map-item" fill="#f2f2f2" fill-rule="evenodd" d="M615.7 434.2l-.6-2.3-.8-3.2-4.8-3 .8 4.9-3.9.2-.7 2.8-4.2 1.7-2.2-2.8-2.8 2.4-3.4 1.7-1.9 5.4 1.1 1.9 3.9-3.6 2.7.3 1.5-2.7 3.8 3-1.5 3.1 1.9 4.6 6.8 3.7 1.4-3-2.1-4.7 2.4-3.2 2.5 6.4 1.5-5.8-.6-3.5zm-14.5-11.8v-6.1l-3.6 6.1.5-4.2-3 .3-.3 4-1.2 1.8-1 1.7 3.8 4.4 1.6-1.9 1.4-4zm-30.1 6.1l2.6-4.4 3.4-3.5-1.5-5.2-2.4 6.3-2.9 4.4-3.8 4-2.4 4.4zm17.4-16.4l1.2 3-.1 3.3.5 2.9 3.3-1.9 2.4-2.7-.2-2.6H592zm20-1.7l-1.8-2.4-5.4-.1 4 4.8.3 2.4-3.3-.5 1.2 3.9 1.7.3.7 4.5 2.5-1.4-1.7-4-.4-2.1 4.5 1.7zm-22.9-5.8l-2.2-2.3-4.8-.2 3.4 4.8 2.8 3.2zm-6.4-34.6h-3.3l-.9 5.8 1.1 9.9-2.6-2 1.2 6 1.2 2.8 3.3 3.7.4-2.3 1.8 1.4-1.5 1.7.1 2.6 2.9 1.4 5-.9 4 3.8 1.1-2.4 2.5 3.4 4.8 3.1.2-2.9-2-1.6.1-3.4-7.5-3.6-2.3.8-3.1-.7-2-5.1.1-5.1 3-2.1.6-5.3-2.7-4.6.4-2.6-.7-1.6-1.5 1.6z" data-id="PH" data-name="Philippines"/>
  <path id="GE" class="map-item" fill="#f2f2f2" fill-rule="evenodd" d="M131.1 215.8l-7.5-2.9-7.7-1-4.5-1.1-.5.7 2.2 1.9 3 .7 3.4 2.3 2.1 4.2-.3 2.7 5.4-.3 5.6 3 6.9-1 1.1-1 4.2 1.8 2.8.4.6-.7-3.2-3.4 1.1-.9-3.5-1.4-2.1-2.5-5.1-1.3-2.9 1z" data-id="GE" data-name="Georgia"/>
  <path id="IN" class="map-item" fill="#f2f2f2" fill-rule="evenodd" d="M345.2 295.7l-8.5-4.4-6.2-4-3.2-7 4.1.9-.6-3.3-3-3.3-.8-5.2-7.6-7.5-3.7 5.4-5.7 1-8.5-1.6-1.9 2.8 3.2 5.6 2.9 4.3 5 3.1-3.7 3.7 1 4.5-3.9 6.3-2.1 6.5-4.5 6.7-6.4-.5-4.9 6.6 4 2.9 1.3 4.9 3.5 3.2 1.8 5.5h-12l-3.2 4.2 7.1 5.4 1.9 2.5-2.4 2.3 8 7.7 4 .8 7.6-3.8 1.7 5.9.8 7.8 2.5 8.1 3.6 12.3 5.8 8.8 1.3 3.9 2 8 3.4 6.1 2.2 3 2.5 6.4 3.1 8.9 5.5 6 2.2-1.8 1.7-4.4 5-1.8-1.8-2.1 2.2-4.8 2.9-.3-.7-10.8 1.9-6.1-.7-5.3-1.9-8.2 1.2-4.9 2.5-.3 4.8-2.3 2.6-1.6-.3-2.9 5-4.2 3.7-4 5.3-7.5 7.4-4.2 2.4-3.8-.9-4.8 6.6-1.3 3.7.1.5-2.4-1.6-5.2-2.6-4.8.4-3.8-3.7-1.7.8-2.3 3.1-2.4-4.6-3.4 1.2-4.3 4.8 2.7 2.7.4 1.2 4.4 5.4.9 5-.1 3.4 1.1-1.6 5.3-2.4.4-1.1 3.6 3.5 3.3.2-4 1.5-.1 4.5 10.1 2.4-1.5-.9-2.7.9-2.1-.9-6.6 4.6 1.4 1.5-5.2-.3-3.1 2.1-5.4-.9-3.6 6.1-4.4 4.1 1.1-1.3-3.9 1.6-1.2-.9-2.4-6.1-.9 1.2-2.7-3.5-3.9-3.2 2.6-4.9-1.5-5.3 4-3.9 4.8-4.2.8 2.7 2 .4 3.9-4.4.2-4.7-.4-3.2 1-5.5-2.5-.3-1.2-1.5-5.1-3 1.4.1 2.7 1.5 4.1-.1 2.5-4.6.1-6.8-1.5-4.3-.6-3.8-3.2-7.6-.9-7.7-3.5-5.8-3.1-5.7-2.5.9-5.9z" data-id="IN" data-name="India"/>
  <path id="ID" class="map-item" fill="#f2f2f2" fill-rule="evenodd" d="M583 552.9l.5-1.7-1.8-1.9-2.8-2-5.3 1.3 7 4.4zm20.9-.6l4-4.8.1-1.9-.5-1.3-5.7 2.6-2.8 3.9-.7 2.1.6.8zm-35.6-13l-1.6 2.2-3.1.1-2.2 3.6 3 .1 3.9-.9 6.6-1.2-1.2-2.8-3.5.6zm28.1 0l-5.2 2.3-3.8.5-3.4-1.9-4.5 1.3-.2 2.3 7.4.8 8.6-1.8zm-79.5-8.4l-.7-2.3-2.3-.5-4.4-2.4-6.8-.4-4.1 6.1 5.1.4.8 2.8 10 2.6 2.4-.8 4.1.6 6.3 2.4 5.2 1.2 5.8.5 5.1-.2 5.9 2.5 6.6-2.4-6.6-3.8-8.3-1.1-1.8-4.1-10.3-3.1-1.3 2.6zm146.6-3.6l.2-3-1.2-1.9-1.3 2.2-1.2 2.2.3 4.8zm-41-17.5l-1.4-2.1-5.7.3 1 2.7 3.9 1.2zm18.1-2.4l-6.1-1.8-6.9.3-1.5 3.5 3.9.2 3.2-.4 4.6.5 4.7 2.6zm21-12.3l-.8-2.4-9-2.6-2.9 2.1-7.6 1.5 2.3 3.2 5 1.2 2.1 3.7 8.3.1.4 1.6-4-.1-6.2 2.3 4.2 3.1-.1 2.8 1.2 2.3 2.1-.5 1.8-3.1 8.2 5.9 4.6.5 10.6 5.4 2.3 5.3 1 6.9-3.7 1.8-2.8 5.2 7.1-.2 1.6-1.8 5.5 1.3 4.6 5.2 1.5-20.8 1-20.7-6-1.2-4.1-2.3-4.7-2.2h-5l-6.6 3.8-4.9 6.8-5.7-3.8zm-50-16.4l-1-1.4-5.5 4.6-6.5.3-7.1-.9-4.4-1.9-4.7 4.8-1.2 2.6-2.9 9.6-.9 5-2.4 4.2 1.6 4.3 2.3.1.6 6.1-1.9 5.9 2.3 1.9 3.6-1 .3-9.1-.2-7.4 3.8-1.9-.7 6.2 3.9 3.7-.8 2.5 1.3 1.7 5.6-2.4-3 5.2 2.1 2.2 3.1-1.9.3-4.1-4.7-7.4 1.1-2.2-5.1-8.1 5-2.5 2.6-3.7 2.4.9.5-2.9-10.5 2.1-3.1 2.9-5-5.6.9-4.8 4.9-1 9.3-.3 5.4 1.3 4.3-1.3zm19.4 1.9l-.6-2.6-3.3-.6-.5-3.5-1.8 2.3-1 5.1 1.7 8.2 2.2 4 1.6-.8-2.3-3.3.9-3.9 2.9.6zm-60.9-4.5l.9-2.9-4.3-6 3-5.8-5-1h-6.4l-1.7 7.2-2 2.2-2.7 8.9-4.5 1.3-5.4-1.8-2.7.6-3.2 3.2-3.6-.4-3.6 1.2-3.9-3.5-1-4.3-3.3 4.2-.6 5.9.8 5.6 2.6 5.4 2.8 1.8.7 8.5 4.6.8 3.6-.4 2 3.1 6.7-2.3 2.8 2 4 .4 2 3.9 6.5-2.9.8 2.3 2.5-9.7.3-6.4 5.5-4.3-.2-5.8 1.8-4.3 6.7-.8zM501.4 525l.7-9.8 1.7-8-2.6-4-4.1-.5-1.9-3.6-.9-4.4-2-.2-3.2-2.2 2.3-5.2-4.3-2.9-3.3-5.3-4.8-4.4-5.7-.1-5.5-6.8-3.2-2.7-4.5-4.3-5.2-6.2-8.8-1.2-3.6-.3.6 3.2 6.1 7 4.4 3.6 3.1 5.5 5.1 4 2.2 4.9 1.7 5.5 4.9 5.3 4.1 8.9 2.7 4.8 4.1 5.2 2.2 3.8 7 5.2 4.5 5.3z" data-id="ID" data-name="Indonesia"/>
  <path id="IQ" class="map-item" fill="#f2f2f2" fill-rule="evenodd" d="M138.4 250.5l-6.2-.9-2.1 1-2.1 4.1-2.7 1.6 1.2 4.7-.9 7.8-11 6.7 3.1 7.7 6.7 1.7 8.5 4.5 16.7 12.7 10.2.5 3.2-6.1 3.7.5 3.2.4-3.4-3.4-.5-3.3h-1.7l.2-4.6-3.5-4.9-7-3.4-4.6-6.1.5-5 2.3-2.2-1-3.8-3.7-1.9-4.7-7.8-2.3 1.1z" data-id="IQ" data-name="Iraq"/>
  <path id="IR" class="map-item" fill="#f2f2f2" fill-rule="evenodd" d="M144.6 240l-3.2-2.9-1.2-2.4-3.3 1.8 2.9 7.3-.7 2 3.7 5.2 4.7 7.8 3.7 1.9 1 3.8-2.3 2.2-.5 5 4.6 6.1 7 3.4 3.5 4.9-.2 4.6h1.7l.5 3.3 3.4 3.4 1.7-2.5 3.7 2.1 2.8-1 5.1 8.4 4.3 6.1 5.5 1.8 6.1 4.9 6.9 2.1 5.1-3.1 4-1.1 2.8 1.1 3.2 7.8 6.3.8 6.1 1.5 10.5 1.9 1.2-7.4 7.4-3.3-.9-2.9-2.7-1-1-5.7-5.6-2.7-2.8-3.9-3.2-3.3 3.9-5.8-1.1-4-4.3-1.1-1.1-4-2.7-5.1 1.6-3.5-2.5-.9.5-4.7.5-8-1.6-5.5-3.9-.2-7.3-5.7-4.3-.7-6.5-3.3-3.8-.6-2.1 1.2-3.5-.2-3 3.7-4.4 1.2-.2 1.6-7.9 1.7-7.6-1.1-4.3-3.3-5.2-1.3-2.5-4.8-1.3.3-3.8-3.4 1.2-3.1-1.9-1.9-1.9.5-5.3 4.7-1.8.2z" data-id="IR" data-name="Iran"/>
  <path id="IL" class="map-item" fill="#f2f2f2" fill-rule="evenodd" d="M98.9 276.1l-1.4.1-.4 1.1h-1.8l-.1.1-.6 1.6-.6 4.8-1.1 2.9.4.4-1.4 2.1 3.9 9.2.7 1.7 1.7-10.2-.4-2.4-2.4.8.1-1.7 1.2-.8-1.4-.7.7-4.3 2 .9.7-2h-.1l.6-1z" data-id="IL" data-name="Israel"/>
  <path id="JP" class="map-item" fill="#f2f2f2" fill-rule="evenodd" d="M623.6 270.5l-4.5-1.3-1.1 2.7-3.3-.8-1.3 3.8 1.2 3 4.2 1.8-.1-3.7 2.1-1.5 3.1 2.1 1.3-3.9zm24.4-19.3l-3.6-6.7 1.3-6.4-2.8-5.2-8.1-8.7-4.8 1.2.2 3.9 5.1 7.1 1 7.9-1.7 2.5-4.5 6.5-5-3.1v11.5l-6.3-1.3-9.6 1.9-1.9 4.4-3.9 3.3-1.1 4-4.3 2 4 4.3 4.1 1.9.9 5.7 3.5 2.5 2.5-2.7-.8-10.8-7.3-4.7 6.1-.1 5-3 8.6-1.4 2.4 4.8 4.6 2.4 4.4-7.3 9.1-.4 5.4-3 .6-4.6-2.5-3.2zM636.2 207l-5.3-2.1-10.4-6.4 1.9 4.8 4.3 8.5-5.2.4.6 4.7 4.6 6.1h5.7l-1.6-6.8 10.8 4.2.4-6.1 6.4-1.7-6-6.9-1.7 2.6z" data-id="JP" data-name="Japan"/>
  <path id="YE" class="map-item" fill="#f2f2f2" fill-rule="evenodd" d="M202.6 381.8l-2.1-4.4-5.2-10.5-15.7 2.4-5 2.9-3.5 6.7-2.5 1-1.6-2.1-2.1.3-5.4-.6-1-.7-6.4.2-1.5.6-2.4-1.7-1.2 3.1.7 2.7-2.3 2.1.4 2.7-.6 1.3.7 2.9-1.1.3 1.7 2.6 1.3 4.7 1 1.9v3.4l1.6 3.8 3.9.3 1.8-.9 2.7.2.8-1.7 1.5-.4 1.1-1.7 1.4-.4 4.7-.3 3.5-1.2 3.1-2.7 1.7.4 2.4-.3 4.7-4.5 8.8-3 5.3-2.7v-2.1l.9-2.9z" data-id="YE" data-name="Yemen"/>
  <path id="JO" class="map-item" fill="#f2f2f2" fill-rule="evenodd" d="M117.7 283.2l-3.1-7.7-9.6 6.7-6.3-2.5-.7 2 .4 3.9-.6 1.9.4 2.4-1.7 10.2.3.9 6.1 1 2.1-2 1.1-2.3 4-.8.7-2.2 1.7-1-6.1-6.4 10.4-3.1z" data-id="JO" data-name="Jordan"/>
  <path id="KH" class="map-item" fill="#f2f2f2" fill-rule="evenodd" d="M505.9 397.4l-5.2-2.3-2 4.3-4.9-2.4-5.3-1-7.1 1.3-3 5.2 2.1 7.7 3.4 6.6 2.6 3.3 4.7.9 4.7-2.5 5.8-.5-2.8-3.8 8.9-4.9-.1-7.7z" data-id="KH" data-name="Cambodia"/>
  <path id="QA" class="map-item" fill="#f2f2f2" fill-rule="evenodd" d="M189.1 331.1l.8-3.8-.5-3.7-1.9-2-1.4.7-1.1 3.3.8 4.7 1.8 1.2z" data-id="QA" data-name="Qatar"/>
  <path id="KZ" class="map-item" fill="#f2f2f2" fill-rule="evenodd" d="M239.9 139.4l-9-1.3-3.1 2.5-10.8 2.2-1.7 1.5-16.8 2.1-1.4 2.1 5 4.1-3.9 1.6 1.5 1.7-3.6 2.9 9.4 4.2-.2 3-6.9-.3-.8 1.8-7.3-3.2-7.6.2-4.3 2.5-6.6-2.4-11.9-4.3-7.5.2-8.1 6.6.7 4.6-6-3.6-2.1 6.8 1.7 1.2-1.7 4.7 5.3 4.3 3.6-.2 4.2 4.1.2 3.2 2.8 1 4.4-1.3 5-2.7 4.7 1.5 4.9-.3 1.9 3.9.6 6-4.6-.9-4 1 .9 4.5-5-.6.6 2 3.2 1.6 3.7 5.5 6.4 2.1 1.5 2.1-.7 2.6.7 1.5 1.8-2 5.5-1.3 3.8 1.7 4.9 4.9 2.5-.3-6.2-22.8 11.9-3.6 1.1.5 9.1 4.5 4.8 2.3 6.5 5.5 5.7-.9 8.6-.5 7.5 4.5 1.5 6.2 2.5.1 2.6 5 6.6.2 2.3 3h1.9l.9-4.5 5.4-4.3 2.5-1.2.3-2.7 3.1-.8 9.1 2.1-.5-3.6 2.5-1.3 8.1 2.6 1.6-.7 8.6.2 7.8.6 3.3 2.2 3.5.9-1.7-3.5 2.9-1.6-8.7-10.7 9-2.4 2-1.4-1-11.1 10.7 2 1.6-2.8-2.5-6.2 3.8-.6 1.8-4.2-4.3-3.8-6 .9-3.3-2.6-3.9-1.2-4.1-3.6-3.2-1.1-6.2 1.6-8.3-3.6-1.1 3.3-18.1-15.5-8.3-4.7.8-1.9-9.1 5.7-4.4.4-1.2-3.3-7-2.1-4.3 1.5z" data-id="KZ" data-name="Kazakhstan"/>
  <path id="KG" class="map-item" fill="#f2f2f2" fill-rule="evenodd" d="M318.3 218.2l-3.5-.9-3.3-2.2-7.8-.6-8.6-.2-1.6.7-8.1-2.6-2.5 1.3.5 3.6-9.1-2.1-3.1.8-.3 2.7 1.8.6-3.1 4.1 4.6 2.3 3.2-1.6 7.1 3.3-5.2 4.5-4.1-.6-1.4 2-5.9-1.1.6 3.7 5.4-.5 7.1 2 9.5-.9 1-1.5-1.1-1.5 4-3 3.2-1.2 5.7.9.6-4 6.4-.8 1-2.4 6.8-3.4z" data-id="KG" data-name="Kyrgyzstan"/>
  <path id="KR" class="map-item" fill="#f2f2f2" fill-rule="evenodd" d="M568.4 247.3l6.2 5.5-3.4 1.1 5.2 6.8 1.1 4.8 2.1 3.5 4.5-.5 3.2-2.7 4.2-1.2.5-3.6-3.4-7.5-3.3-4.2-8.2-7.6.1 1.6-2.1.4-3.5.3-.7 2.9-2.4-.2z" data-id="KR" data-name="Korea"/>
  <path id="KP" class="map-item" fill="#f2f2f2" fill-rule="evenodd" d="M575.8 217.9l-5.5-3.6.1 3.5-6.3 2.6 2.7 3.3-4.6-.2-3.6-2-1 4.4-3.8 3.4-2.1 4 3.3 1.7 3.4.7.8 1 .4 3.5 1.1 1.2-.9.7-.1 2.9 1.9 1 1.6.6.8 1.2 1.3-.5V246l3.1 1.3.1-.6 2.4.2.7-2.9 3.5-.3 2.1-.4-.1-1.6-4.3-2.8-2.6-1 .2-.7-1.2-2.8 1.3-1.7 2.9-1 1-1.9.3-1.1 1.9-1.4-2.8-4.5.3-2.1.9-2 2.2.3z" data-id="KP" data-name="Dem. Rep. Korea"/>
  <path id="KW" class="map-item" fill="#f2f2f2" fill-rule="evenodd" d="M166.7 297l-3.7-.5-3.2 6.1 4.9.6 1.7 3.1 3.8-.2-2.4-4.8.3-1.5z" data-id="KW" data-name="Kuwait"/>
  <path id="LA" class="map-item" fill="#f2f2f2" fill-rule="evenodd" d="M505.9 397.4l.2-6.4-2-4.5-4.8-4.4-4.3-5.6-5.7-7.5-7.3-3.8 1.3-2.3 3.3-1.7-3-5.5-6.8-.1-3.4-5.7-4-5.1-2.7 1 1.9 7.2-2.9-.1-.7-1.5-4.1 4.1-.8 2.4 2.6 1.9.9 3.8 3.8.3-.4 6.7 1 5.7 5.3-3.8 1.8 1.2 3.2-.2.8-2.2 4.3.4 4.9 5.2 1.3 6.3 5.2 5.5.5 5.4-1.5 2.9 4.9 2.4 2-4.3z" data-id="LA" data-name="Lao PDR"/>
  <path id="LB" class="map-item" fill="#f2f2f2" fill-rule="evenodd" d="M98.9 276.1l.9-3.5 2.6-2.4-1.2-2.5-2.4-.3-.1.2-2.1 4.5-1.3 5.2h1.8l.4-1.1z" data-id="LB" data-name="Lebanon"/>
  <path id="MV" class="map-item" fill="#f2f2f2" fill-rule="evenodd" d="M320.2 467.2l.1-.1v-.2l-.1-.1h-.1l-.1.2v.2zm.3-5.9l.1-.2v-.4l-.1.1-.1.2v.1l-.1.1v.1h.1z" data-id="MV" data-name="Maldives"/>
  <path id="MY" class="map-item" fill="#f2f2f2" fill-rule="evenodd" d="M474.7 448.3l-4.7-2.8-.9 1.1 1.4 2.7-.4 4.7 2.1 3.4 1 5.3 3.4 4.3.8 3.2 6.7 5 5.4 4.8 4-.5.1-2.1-2.3-5.6-2.1-1.8-.5-3.8-.6-2.1.5-2.9-.5-4.3-2.6-4.3-3.5-3.8-1.3-.6-1.7 2.6-3.7.8zm99 11l-1.2-3.1 3.8-.4.3-2.4-4.8-2-3.8-1.7-.4-2.8-3.1-3.2h-2.3l-2.5 5-4.1 4.4-.1 3.1-.1 4.1-2.7-.2-1.1 2.2-2.7-3.3-2.6 4-3.8 5-6.7 1.4-2.4 1.2-.9 5.4-4.4 1.2-4.1-2.2 1 4.3 3.9 3.5 3.6-1.2 3.6.4 3.2-3.2 2.7-.6 5.4 1.8 4.5-1.3 2.7-8.9 2-2.2 1.7-7.2h6.4l5 1z" data-id="MY" data-name="Malaysia"/>
  <path id="MM" class="map-item" fill="#f2f2f2" fill-rule="evenodd" d="M465 351.4l-.6-2.6-3.8 1.8-2.5-1.2-4.5-2.4.8-5.2-3.7-1.3-2.3-5.8-5.6 1-.7-7.5 4.1-5.3-.8-5.3-1.3-4.9-2.7-1.5-2.7-3.7-3 .4.9 2.4-1.6 1.2 1.3 3.9-4.1-1.1-6.1 4.4.9 3.6-2.1 5.4.3 3.1-1.5 5.2-4.6-1.4.9 6.6-.9 2.1.9 2.7-2.4 1.5.5 4.6-2.1-1 1.1 5.1 4.6 5.2 3.4.9-.4 2.2 5.4 7.4 1.9 5.9-.9 7.9 3.6 1.5 3.2.6 5.8-4.6 3.2-3.1 3.1 5.2 2 8.1 2.6 7.6 2.6 3.3.2 6.9 2.2 3.8-1.3 4.8.9 4.8 2.2-6.6 2.6-5.9-2.8-5.8-.2-3-1-3.5-4.2-5.1-1.7-3.2 1.7-1.1 1.4-5.6-2.9-4.2-4.1-4.6-3.5-5.6 2.2-1.1 1.5-6.9 3.9-.3 2.8-2.8 3-1.4.8-2.4z" data-id="MM" data-name="Myanmar"/>
  <path id="MN" class="map-item" fill="#f2f2f2" fill-rule="evenodd" d="M404.8 167.7l-3.7-4.6-6.6-1.5-4.8-.8-6.9-2.5-1.3 6.4 4 3.6-2.4 4.3-7.9-1.6-5-.2-4.7-2.9-5.1-.1-5.3-1.9-5.9 2.9-6.6 5.4-4.7 1 3.3 4.4 5.7 3.3 8.1 2.3 5.8 5 1.3 7.3 3 2.7 6.4 1 7.2.9 7.9 3.8 3.4.7 4.9 5.7 4.7 3.6 5.5-.1 11.2 1.3 6.4-.8 5.5.9 9.3 3.8 6.2-.1 3.2 2 4.4-3.3 7.2-2.2 7.5-.2 4.9-2.2 1.9-3.3 2.5-2-1.9-2.1-2.9-2.3.4-4 3.2.5 5.9 1.3 3.1-3.3 6.3-2.4 1.4-4.1 2.4-1.8 6.8-.8 4.3.7-.7-2.2-7.2-4.3-5.1-2-2.5 2.3-5.4-1-2.4.8-2.7-2.6-.3-6.2-.6-4.6-5.5.5-3.9-2.1-3.3-.7-4.5 4.4-5.8 1-3.6 1.6-6.7-1h-4.5l-4.9-3.1-6.5-3-5.4-.8-5.7.8-3.9 1.1z" data-id="MN" data-name="Mongolia"/>
  <path id="NP" class="map-item" fill="#f2f2f2" fill-rule="evenodd" d="M386.3 310.4l-6.5-.6-6.4-1.5-5-2.8-4.5-1.2-2.5-3.1-3.2-.9-6.4-4.1-4.7-2-1.9 1.5-2.8 2.9-.9 5.9 5.7 2.5 5.8 3.1 7.7 3.5 7.6.9 3.8 3.2 4.3.6 6.8 1.5 4.6-.1.1-2.5-1.5-4.1z" data-id="NP" data-name="Nepal"/>
  <path id="OM" class="map-item" fill="#f2f2f2" fill-rule="evenodd" d="M232.1 353.4l2.1-2 .8-1.8 1.6-3.8-.1-1.4-2.1-.8-1.6-2.1-2.9-3.7-3.3-1.1-4.1-.9-3.3-2.3-2.9-4.3h-2.8l-.1 4.2 1.1.8-2.4 1.3.3 2.6-1.4 2.6.1 2.6 2.9 4.5-2.6 12.7-16.1 6.4 5.2 10.5 2.1 4.4 2.5-.3 3.6-2.2 3.1.6 2.5-1.8-.2-2.5 2.1-1.6h3.4l1.2-1.3.2-3.1 3.3-2.4h2.6l.4-.8-1-4.2.6-3.2 1-1.5 2.5.3zM215.5 323l.2-2.6-.7-.6-1.3 2.2 1.3 2.2z" data-id="OM" data-name="Oman"/>
  <path id="PK" class="map-item" fill="#f2f2f2" fill-rule="evenodd" d="M319.4 261.9l-9.4-2.6-2.9-5-4.7-3-2.8.7-2.4 1.2-5.8.8-5.3 1.3-2.4 2.8 1.9 2.8 1.4 3.2-2 2.7.8 2.5-.9 2.3-5.1-.2 3 4.2-3 1.6-1.5 3.8 1.1 3.8-1.7 1.8-2.1-.6-4 .9-.2 1.7h-4l-2.3 3.6.8 5.4-6.6 2.6-3.8-.5-.9 1.4-3.3-.8-5.3.9-9.6-3.2 3.2 3.3 2.8 3.9 5.6 2.7 1 5.7 2.7 1 .9 2.9-7.4 3.3-1.2 7.4 7.6-.9 8.9-.1 9.9-1.2 4.9 4.8 2.1 4.6 4.2 1.6 3.2-4.2h12l-1.8-5.5-3.5-3.2-1.3-4.9-4-2.9 4.9-6.6 6.4.5 4.5-6.7 2.1-6.5 3.9-6.3-1-4.5 3.7-3.7-5-3.1-2.9-4.3-3.2-5.6 1.9-2.8 8.5 1.6 5.7-1z" data-id="PK" data-name="Pakistan"/>
  <path id="RU" class="map-item" fill="#f2f2f2" fill-rule="evenodd" d="M263.4 10.7l-4.5-4-13.6-4.1-9.4-2.1-6.2.9-5.3 2.9 5.8.8 6.6 3.2 8 1.7 11.5 1.3zM84.7 3.4l.9-.6-5.7-.9-2.8.7-1.3 1-1.5-1.2-5.2.1-6.2.8 7.7.1-1.1 1.3 4.4 1 3.6-.7.1-.7 2.9-.3zm200.5 9.9l-1.5-1.8-12.5-2.6-3-.3-2.2.5 1.2 6zm15.2 6.3l-9.2-.7 3.4-1.2-8.2-1.5-6.1 1.9-1 2 1.5 2.1-6.9-.1-5.3 2.6-4.3-1.1-9.3.5.3 1.3-9.2.7-4.9 2.4-4.2.2-1.2 3.3 5.5 2.6-7.7.7-9.5-.3-5.8 1.1 4.8 5.4 6.9 4.3-9.6-3-7.9.3-5.1 2 4.5 3.8-4.9-1-2.1-5-4.2-2.8-1.8.1 3.6 3.7-4.6 3.5 8.1 4.2.4 5.4 2.9 2.9 4.7.5.4 3.5 4.4 3.1-1.9 2.6.5 2.7-3.7 1.4-.5 2-5.3-.8 3.5-7.8-.5-3.6-6.7-3.3-3.8-7.3-3.7-3.7-3.6-1.6.8-4.2-2.9-2.9-11.3-1.4-2.1 1 .5 4.7-4.3 4.7 1.2 1.7 4.7 4.1.1 2.6 5.3.5.8 1.1 5.8 2.9-1 2.8-18.5-6.1-6.6-1.7-12.8-1.6-1.2 1.7 5.9 3.1-2.7 3.6-6.4-3.2-5 2.2-7.6.1-2.1 1.9-5.3-.6 2.5-3.3-3.2-.2-12.3 4.6-7.6 2.6.4 3.5-6 1.2-4-1.9-1.2-3 5-.7-3.6-3-12.2-1.8 4.3 3.4-.8 3.2 4.7 3.3-1.1 3.8-4.6-1.9-4-.3-8 5.4 4.2 4.1-3.2 1.4-11.4-3.5-2.1 2.1 3.3 2.4.2 2.7-3.8-1.4-6-1.7-1.9-5.8-1-2.6-8-4 2.9-.7L70 76.7l6.4-1.5 3.7-2.9-1.6-3.6-4-2.6L56.9 60l-11.6-1.3-7.6-3.2-3.6 1.8-6.4 2.2-3.2.5.4 3.7 7.2 3.7-2.8 4.1 6.4 6.3-1.7 4.8 4.9 4.1-.9 3.7 7.3 3.9-.9 2.9-3.3 3.3-7.9 7.4 5.3 2.8-4.5 3.2.9 1-2.6 3.4 2.5 5.5-1.6 1.9 2.4 1.4 1 2.8 2.1 3.6 5.2 1.5 1 1.4 2.3-.7 4.8 1.4 1 2.9-.6 1.6 3.7 3.9 2.2 1.1-.1 1.1 3.4 1.1 1.7 1.6-1.6 1.3-3.9-.2-.8.6 1.5 2 2 3.9 1.8.2 1-1.4 1.5.3 4.8-.5 3.8 3.4-.9 1.3.7 1.9 4 .2 2.2 2.7.2 1.2 6.6 2.2 3.5-1 3.6 2.9 2.9-.1 7.6 2 .4 1.9-1.3 3.2 1.8 3.4-.3 2.1-4.7.5-2.2 1.7.4 2.8 4.2-1 .4 1.3-6.8 2.6 3.2 2.4-3.2 5.2-3.4 1 5 3.6 6.2 2.4 7.4 5.1.5-.7 4.5 1.1 7.7 1 7.5 2.9 1.1 1.2 2.9-1 5.1 1.3 2.1 2.5 3.5 1.4 1.5.2 4.3 3.8 2.4.4.5-1.5 2.6-2.5-7.3-7.3-.4-4.1-5.9-5.9 3.5-6.3 4.6-1.1 1.4-3.7-2.8-1-.2-3.2-4.2-4.1-3.6.2-5.3-4.3 1.7-4.7-1.7-1.2 2.1-6.8 6 3.6-.7-4.6 8.1-6.6 7.5-.2 11.9 4.3 6.6 2.4 4.3-2.5 7.6-.2 7.3 3.2.8-1.8 6.9.3.2-3-9.4-4.2 3.6-2.9-1.5-1.7 3.9-1.6-5-4.1 1.4-2.1 16.8-2.1 1.7-1.5 10.8-2.2 3.1-2.5 9 1.3 4.3 6.3 4.3-1.5 7 2.1 1.2 3.3 4.4-.4 9.1-5.7-.8 1.9 8.3 4.7 18.1 15.5 1.1-3.3 8.3 3.6 6.2-1.6 3.2 1.1 4.1 3.6 3.9 1.2 3.3 2.6 6-.9 4.3 3.8 1.7-.5 4.7-1 6.6-5.4 5.9-2.9 5.3 1.9 5.1.1 4.7 2.9 5 .2 7.9 1.6 2.4-4.3-4-3.6 1.3-6.4 6.9 2.5 4.8.8 6.6 1.5 3.7 4.6 8.4 2.6 3.9-1.1 5.7-.8 5.4.8 6.5 3 4.9 3.1h4.5l6.7 1 3.6-1.6 5.8-1 4.5-4.4 3.3.7 3.9 2.1 5.5-.5 7.3 2.3 4.4-3.9-1.9-2.7-.1-6.5 1.2-2-2.5-3.3-3.7-1.5 1.7-3 5.1-1.1 6.2-.2 8.5 1.8 5.9 2.3 7.7 6.1 3.8 2.7 4.4 3.7 6.1 6.1 9.9 1.9 8.9 4.5 6 5.8h7.5l2.6-2.5 6.9-1.8 1.3 5.6-.4 2.3 2.8 6.8.6 6-6.8-1.1-2.9 2.2 4.7 5.3 3.8 7.3-2.5.1 1.9 3.1 1.4 1.1-.4-2 4-4.5 5.1 3 3.2-.1 4.4-3.6 1-3.7 2.1-7.1 1.9-7.2-1.3-4.3 1-9-5.2-9.9-5.5-7.3-1.3-6.2-4.7-5.1-12.7-6.7-5.6-.4-.3 3-5.8-1.3-5.7-3.8-8-.7 4.9-14.1 3.5-11.5 13.1-1.8 14.9 1 2.5-2.8 7.9.8 4.3 4.3 6.4-.6 8.4-1.6-7.7-3.5v-9.8l9.1-1.9 12.1 7.1 3.6-6.4-3.2-4.7 4.7-.5 6.5 8.1-2.4 4.6-.8 6 .3 7.5-5.7 1.3 2.8 2.7-.1 3.6 6.4 8.3 16 13.4 10.5 8.8 5.7 4.3 1.6-5.7-4.5-6.2 5.7-1.5-5.4-6.9 5-3.1-4.7-2.6-3.4-5 4.1-.2-9-8.6-6.7-1.4-2.9-2.4-1.1-5.6-3.1-3.9 7 .8 1.3-2.5 4.7 2.2 6.1-4.6 11.4 4-1.7-2.6 2-3.6 1.5-4 3.1-.7 6.5-4.3 9.8 1.2-.9-1.5-3.8-2.3-4.1-1.6-9.1-4.6-8.1-3 6.1.4 2-2.5-32.9-21.9-9.4-2.3-15.7-2.6-7.9.3-15.2-1.4 1.8 2.3 8.5 3.4-2.5 1.8-14.2-4.8-6.8.6-9.2-1.1-7 .2-3.9 1.1-7.2-1.6-5.1-3.8-6.5-2.2-9.2-.9-14.7 1-16.1-4-7.8-3-40.1-3.4-2.1 2.2 9.3 4.8-7.5-.7-1 1.5-9.7-1.6-5 1.4-9.3-2.4 3 5.5-8.9-2.1-10-4.1-.4-2.2-6-3.3-9.8-2.6h-6.1l-9.3-.9 4.7 3.9-17.2-.8-3.9-2.3-13.3-.9-5.3.8-.1 1.3-5.8-3.2-2.3.9-7.2-1.2-5.6-.7 1.1-1.5 6.6-2.8 2.3-1.5-2.4-2.5-5.5-1.9-11.5-2.3-10.8-.1-1.9 1.2zM138.2 51.2l-9.9-4.3-3.1-4.3 3.3-4.9 2.8-5 8.6-4.7 9.8-2.4 11.3-2.4 1.3-1.5-4.2-1.9-6.6.6-4.9 1.8-11.7.9-10.1 3.1-6.8 2.7 2.5 2.2-6.6 4.4 3.9.7-5.4 4.3 1.6 2.8-3.4 1.1 1.9 2.8 7.9 1.4 2.2 2.3 13.4.7zm314-24.7l-17.9-2.6-10.2-.2-3.4.9 3.4 3.4 12.4 3.2L441 30l14.2.2zm25.2 2.3l-11.7-1.3-8.2-.7 1.7 1.6 10.3 2 6.8.4zm-12.5 9.5l-2.5-1.4-8.3-1.9-4.1.5-.8 2 1.1.2 8.8.6zm162.6 12.3l-6-3.6-1.4 2.2 3.5 1.6zM15.1 144.5l-.6-1.5.2-1.7-2.2-.9-5-1.1-6.3 2-.7 2.6 5.9.7zm589.7 21.8l-7.2-6.2-5.1-6-6.8-5.8-4.9-4-1.3.8 4.4 2.8-1.9 2.8 6.8 8.3 7.8 6 6.4 8.3 2.4 4.6 5.5 6.8 3.8 6 4.6 5.2-.1-4.8 6.5 3.8-3-4.4-9.5-6.3-3.7-9 8.9 2z"/>
  <path id="SG" class="map-item" fill="#f2f2f2" fill-rule="evenodd" d="M492.1 479.3l.1-.2-.2-.2-.3-.1-.5-.2-.6.1-.3.6.9.4z" data-id="SG" data-name="Singapore"/>
  <path id="LK" class="map-item" fill="#f2f2f2" fill-rule="evenodd" d="M363.3 448.3l2.3-1.8.6-6.6-3-6.6-2.9-4.5-4.1-3.5-1.9 10.3 1.4 9.1 2.8 5.1z" data-id="LK" data-name="Sri Lanka"/>
  <path id="SY" class="map-item" fill="#f2f2f2" fill-rule="evenodd" d="M114.6 275.5l11-6.7.9-7.8-1.2-4.7 2.7-1.6 2.1-4.1-5.9 1.1-2.8-.2-5.7 2.5h-4.3l-3-1.2-5.5 1.8-1.9-1.3.1 3.6-1.2 1.5-1.2 1.4-1 2.6 1.1 5 2.4.3 1.2 2.5-2.6 2.4-.9 3.5.3 2.6-.6 1h.1l6.3 2.5z" data-id="SY" data-name="Syria"/>
  <path id="TW" class="map-item" fill="#f2f2f2" fill-rule="evenodd" d="M573.4 342.8l1.2-10.2.1-3.9-2.9-1.9-3.3 4.8-1.9 6.3 1.5 4.7 4 5.4z" data-id="TW" data-name="Taiwan"/>
  <path id="TJ" class="map-item" fill="#f2f2f2" fill-rule="evenodd" d="M275.2 231.3l-2.1.2-1.3-1.8.2-2.9-6.4 1.5-.5 4-1.5 3.5-4.4-.3-.6 2.8 4.2 1.6 2.4 4.7-1.3 6.6 1.8.8 3.3-2.1 2.1 1.3.9-3 3.2.1.6-.9-.2-2.6 1.7-2.3 3.2 1.5v2l1.6.3 1 5.4 2.6 2.1 1.5-1.3 2.1-.7 2.5-2.9 3.8.5h5.4l-1.8-3.7-.6-2.5-3.5-1.4-1.6.6-3-5.9-9.5.9-7.1-2-5.4.5-.6-3.7 5.9 1.1z" data-id="TJ" data-name="Tajikistan"/>
  <path id="TH" class="map-item" fill="#f2f2f2" fill-rule="evenodd" d="M493.8 397l1.5-2.9-.5-5.4-5.2-5.5-1.3-6.3-4.9-5.2-4.3-.4-.8 2.2-3.2.2-1.8-1.2-5.3 3.8-1-5.7.4-6.7-3.8-.3-.9-3.8-2.6-1.9-3 1.4-2.8 2.8-3.9.3-1.5 6.9-2.2 1.1 3.5 5.6 4.1 4.6 2.9 4.2-1.4 5.6-1.7 1.1 1.7 3.2 4.2 5.1 1 3.5.2 3 2.8 5.8-2.6 5.9-2.2 6.6-1.3 6.1-.3 3.9 1.2 3.6.7-3.8 2.9 3.1 3.2 3.5 1.1 3.2 2.4 2.4.9-1.1 4.7 2.8.6 3.3 3.7-.8 1.7-2.6-3.1-3.3-3.4-.8-3.3-3.6-1.4-5.5-2.6-5.8-3.7-.2-.7-4.6 1.4-5.6 2.2-9.3-.2-7 4.9-.1-.3 5 4.7-.1 5.3 2.9-2.1-7.7 3-5.2 7.1-1.3z" data-id="TH" data-name="Thailand"/>
  <path id="TL" class="map-item" fill="#f2f2f2" fill-rule="evenodd" d="M607.9 547.5l4.9-1.8 6-2.8 2.2-1.7-2-.8-1.8.8-4 .2-4.9 1.4-.8 1.5.5 1.3z" data-id="TL" data-name="Timor-Leste"/>
  <path id="TR" class="map-item" fill="#f2f2f2" fill-rule="evenodd" d="M97.7 224.5l-9.7-4.4-8.5.2-5.7 1.7-5.6 4-9.9-.8-1.6 4.8-7.9.2-5.1 6.1 3.6 3-2 5 4.2 3.6 3.7 6.4 5.8-.1 5.4 3.5 3.6-.8.9-2.7 5.7.2 4.6 3.5 8-.7 3.1-3.7 4.6 1.5 3.2-.6-1.7 2.4 2.3 3 1.2-1.4 1.2-1.5-.1-3.6 1.9 1.3 5.5-1.8 3 1.2h4.3l5.7-2.5 2.8.2 5.9-1.1 2.1-1 6.2.9 2.1 1.6 2.3-1.1-3.7-5.2.7-2-2.9-7.3 3.3-1.8-2.4-1.9-4.2-1.5v-3.1l-1.3-2.2-5.6-3-5.4.3-5.5 3.2-4.5-.6-5.8 1zm-49.6 4l2-1.9 6.1-.4.7-1.5-4.7-2-.9-2.4-4.5-.8-5 2 2.7 1.6-1.2 3.9-1.1.7.1 1.3 1.9 2.9z" data-id="TR" data-name="Turkey"/>
  <path id="TM" class="map-item" fill="#f2f2f2" fill-rule="evenodd" d="M256.7 249.8l-.8-4-7.7-2.7-6.2-3.2-4.2-3-7-4.4-4.3-6.4-2-1.2-5.5.3-2.3-1.3-1.9-4.9-7.8-3.3-3.3 3.6-3.8 2.2 1.6 3.1-5.8.1-2.5.3-4.9-4.9-3.8-1.7-5.5 1.3-1.8 2 2.5 4-.5-4.5 3.7-1.6 2.4 3.6 4.6 3.7-4 2-5.3-1.5.1 5.2 3.5.4-.4 4.4 4.5 2.1.7 6.8 1.8 4.5 4.4-1.2 3-3.7 3.5.2 2.1-1.2 3.8.6 6.5 3.3 4.3.7 7.3 5.7 3.9.2 1.6 5.5 5.9 2.4 3.9-.8.4-3 4-.9 2.5-2-.1-5.2 4.1-1.2.3-2.3 2.9 1.7z" data-id="TM" data-name="Turkmenistan"/>
  <path id="UZ" class="map-item" fill="#f2f2f2" fill-rule="evenodd" d="M270.9 218.7l-2.5 1.2-5.4 4.3-.9 4.5h-1.9l-2.3-3-6.6-.2-2.6-5-2.5-.1-1.5-6.2-7.5-4.5-8.6.5-5.7.9-6.5-5.5-4.8-2.3-9.1-4.5-1.1-.5-11.9 3.6 6.2 22.8 5.8-.1-1.6-3.1 3.8-2.2 3.3-3.6 7.8 3.3 1.9 4.9 2.3 1.3 5.5-.3 2 1.2 4.3 6.4 7 4.4 4.2 3 6.2 3.2 7.7 2.7.8 4h2.9l4.3 1.4 1.3-6.6-2.4-4.7-4.2-1.6.6-2.8 4.4.3 1.5-3.5.5-4 6.4-1.5-.2 2.9 1.3 1.8 2.1-.2 4.1.6 5.2-4.5-7.1-3.3-3.2 1.6-4.6-2.3 3.1-4.1z" data-id="UZ" data-name="Uzbekistan"/>
  <path id="VN" class="map-item" fill="#f2f2f2" fill-rule="evenodd" d="M502.7 350.6l-5.9-1.6-3-2.6.2-3.7-5.2-1.1-3-2.4-4.1 3.4-5.3.7h-4.3l-2.7 1.5 4 5.1 3.4 5.7 6.8.1 3 5.5-3.3 1.7-1.3 2.3 7.3 3.8 5.7 7.5 4.3 5.6 4.8 4.4 2 4.5-.2 6.4 1.8 4.2.1 7.7-8.9 4.9 2.8 3.8-5.8.5-4.7 2.5 4.5 3.7-1.3 4.3 2.3 4 6.6-5.9 4.1-5.3 6.1-4.1 4.3-4.2-.4-11.2-4-11.7-4.1-5.1-5.6-4-6.4-8.3-5.3-6.7.5-4.4 3.7-6z" data-id="VN" data-name="Vietnam"/>
  <path id="AE" class="map-item" fill="#f2f2f2" fill-rule="evenodd" d="M215 324.2l-1.3-2.2-3 3.9-3.7 4.1-3.3 4.3-3.3-.2-4.6-.2-4.2 1-.3-1.7-1 .3.4 1.5 2.6 6.4 16.8 3.2 1-1.3-.1-2.6 1.4-2.6-.3-2.6 2.4-1.3-1.1-.8.1-4.2h2.8z" data-id="AE" data-name="United Arab Emirates"/>
</svg>
