<svg xmlns="http://www.w3.org/2000/svg" id="svg2" width="263.3" height="431.1" fill="none" stroke="#000" stroke-linejoin="round" viewBox="0 0 263.3 431.1">
  <defs id="defs4">
    <style id="style6">
      path{fill-rule:evenodd}
    </style>
  </defs>
  <path id="AR" class="map-item" fill="#f2f2f2" fill-rule="evenodd" d="M150.6 428.2l.9-3-7.3-1.5-7.7-3.6-4.3-4.6-3-2.8 5.9 13.5h5l2.9.2 3.3 2.1zm-50.4-208.1l-7.4-1.5-4 5.7.9 1.6-1.1 6.6-5.6 3.2 1.6 10.6-.9 2 2 2.5-3.2 4-2.6 5.9-.9 5.8 1.7 6.2-2.1 6.5 4.9 10.9 1.6 1.2 1.3 5.9-1.6 6.2 1.4 5.4-2.9 4.3 1.5 5.9 3.3 6.3-2.5 2.4.3 5.7.7 6.4 3.3 7.6-1.6 1.2 3.6 7.1L95 358l-.8 2.6 2.8 1.3 1.3 2.3-1.8 1.1 1.8 3.7 1.1 8.2-.7 5.3 1.8 3.2-.1 3.9-2.7 2.7 3.1 6.6 2.6 2.2 3.1-.4 1.8 4.6 3.5 3.6 12 .8 4.8.9 2.2.4-4.7-3.6-4.1-6.3.9-2.9 3.5-2.5.5-7.2 4.7-3.5-.2-5.6-5.2-1.3-6.4-4.5-.1-4.7 2.9-3.1 4.7-.1.2-3.3-1.2-6.1 2.9-3.9 4.1-1.9-2.5-3.2-2.2 2-4-1.9-2.5-6.2 1.5-1.6 5.6 2.3 5-.9 2.5-2.2-1.8-3.1-.1-4.8-2-3.8 5.8.6 10.2-1.3 6.9-3.4 3.3-8.3-.3-3.2-3.9-2.8-.1-4.5-7.8-5.5-.3-3.3-.4-4.2.9-1.4-1.1-6.3.3-6.5.5-5.1 5.9-8.6 5.3-6.2 3.3-2.6 4.2-3.5-.5-5.1-3.1-3.7-2.6 1.2-.3 5.7-4.3 4.8-4.2 1.1-6.2-1-5.7-1.8 4.2-9.6-1.1-2.8-5.9-2.5-7.2-4.7-4.6-1-11.2-10.4-1-1.3-6.3-.3-1.6 5.1z" data-id="AR" data-name="Argentina"/>
  <path id="BO" class="map-item" fill="#f2f2f2" fill-rule="evenodd" d="M136.5 208l1.6-1.3-.8-3.6 1.3-2.8.5-5-1.6-4-3.2-1.7-.8-2.6.6-3.6-10.7-.3-2.7-7.4 1.6-.1-.3-2.8-1.2-1.8-.5-3.7-3.3-1.9-3.5.1-2.5-1.9-3.8-1.2-2.4-2.4-6.3-1-6.4-5.7.3-4.3-.9-2.5.4-4.7-7.3 1.1-2.8 2.3-4.8 2.6-1.1 1.9-2.9.2-4.2-.6 5.5 10.3-1.1 2.1.1 4.5.3 5.4-1.9 3.2 1.2 2.4-1.1 2.1 2.8 5.3-2.8 6.9 3.1 4.3 1.2 4.6 3.2 2.7-1.1 6.2 3.7 7.1 3.1 8.8 3.8-.9 4-5.7 7.4 1.5 3.7 4.6 1.6-5.1 6.3.3 1 1.3 1.5-7.6-.2-3.4 2.1-5.6 9.5-1.9 5.1.1 5.4 3.3z" data-id="BO" data-name="Bolivia"/>
  <path id="BR" class="map-item" fill="#f2f2f2" fill-rule="evenodd" d="M139.8 67.6l-1.4.2-3.1-.5-1.8 1.7-2.6 1.1-1.7.2-.7 1.3-2.7-.3-3.5-3-.3-2.9-1.4-3.3 1-5.4 1.6-2.2-1.2-3-1.9-.9.8-2.8-1.3-1.5-2.9.3.7 1.8-2.1 2.4-6.4 2.4-4 1-1.7 1.5-4.4-1.6-4.2-.8-1 .6 2.4 1.6-.3 4.3.7 4 4.8.5.3 1.4-4.1 1.8-.7 2.7-2.3 1-4.2 1.5-1.1 1.9-4.4.5-3-3.4-1.1.8-1-3.8-1.6-2-1.9 2.2-10.9-.1v3.9l3.3.7-.2 2.4-1.1-.6-3.2 1v4.6l2.5 2.4.9 3.6-.1 2.8-2.2 17.4-5.1-.3-.7 1-4.6 1.2-6.2 4.3-.4 3-1.3 2.2.7 3.4-3.3 1.9.1 2.7-1.5 1.1 2.6 5.8 3.3 3.8-1 2.8 3.7.3 2.3 3.4 4.9.2L63 140l.2 9.7 2.6.7 3-1.1 4.2.6 2.9-.2 1.1-1.9 4.8-2.6 2.8-2.3 7.3-1.1-.4 4.7.9 2.5-.3 4.3 6.4 5.7 6.3 1 2.4 2.4 3.8 1.2 2.5 1.9 3.5-.1 3.3 1.9.5 3.7 1.2 1.8.3 2.8-1.6.1 2.7 7.4 10.7.3-.6 3.6.8 2.6 3.2 1.7 1.6 4-.5 5-1.3 2.8.8 3.6-1.6 1.3 1.9 3.6.4 8.6 6 1.2 2.1-1.2 3.9 1.7 1.2 1.9 1 5.8.9 2.5 2 .3 2-1.1 2.1 1.2.3 3.5-.3 3.8-.7 3.6 2.6-1.2 3.1 3.7.5 5.1-4.2 3.5-3.3 2.6-5.3 6.2-5.9 8.6 3.4-.7 6.2 4.9 1.9-.2 6.2 4.1 4.8 3.5 3.8 4.3-1.9 3 2.1 3.7 2.9-3.7 1.5-6 3.2-3 3.9-5 4.5-11.2 3.4-3.5.8-3.1.3-6.4-1.3-3.5.3-4.8 4.1-6.3 6-5.1 6-1.8 3.6-2.9 8.5-2.4h5.9l1.1-3.8 4.2-2.8.6-6.5 5.1-8.3.5-8.5 1.6-2.6.3-4.1 1.1-9.9-1-11.9 1.4-4.7 1.4-.1 3.9-5.5 3.3-7.2 7.7-8.8 2.7-4.2 2-10.5-1-3.9-2-8.1-2.1-2-4.8-.2-4.3-1.9-7.3-7.1-8.4-5.3-8.4.3-10.9-3.4-6.5 2 .8-3.5-2.7-3.8-9.4-3.8-7.1-2.3-4.2 4.1-.3-6.3-9.9-1-1.7-2 4.2-5.2-.1-4.4-3-1-3-11.2-1.3-3.5-1.9.3L164 59l-1.8 4.7-2.1 2.4-2.7.5-.8-1.8-1.2-.3-1.8 1.8-2.4-1.3-3.2-1.4-2.7.7-2.3-.6-.5 1.8.9 1.3-.5 1.3z" data-id="BR" data-name="Brazil"/>
  <path id="CL" class="map-item" fill="#f2f2f2" fill-rule="evenodd" d="M129.2 412.7l-3.7-.7-3.3 2.5.2 4.1-1.2 2.8-7.2-2.2-8.6-4-4.5-1.3 9.7 6.8 6.3 3.2 7.5 3.4 5.3.9 4.3 1.8 3 .5 2.3.1 3.2-1.8.5-2.4-2.9-.2h-5zM81.9 216.4l-3.7-7.1 1.1-6.2-3.2-2.7-1.2-4.6-3.1-4.3-1.2 3.3-2.7 1.6 2.1 9 1.5 10.4-.1 14.2v13.2l.9 12.3-1.9 7.8 2.1 7.8-.5 5.3 3.2 9.5-.1 9.5-1.2 10.2-.6 10.5-2.1.2 2.4 7.3 3.3 6.3-1.1 4.3 1.9 11.6 1.5 8.8 3.5.9-1.1-7.7 4 1.6 1.8 12.7L81 360l2 10.2-2.7 5.5 8.2 1.8-3.4 4.8.2 6 5 10.6 4.2 4.1.2 3.6 3.3 3.8 7.5 3.5 7.4 4.2 6.2 2 2-.1-1.8-5.7 3.4-2.2 1.7-1.5h4.2l-4.8-.9-12-.8-3.5-3.6-1.8-4.6-3.1.4-2.6-2.2-3.1-6.6 2.7-2.7.1-3.9-1.8-3.2.7-5.3-1.1-8.2-1.8-3.7 1.8-1.1-1.3-2.3-2.8-1.3.8-2.6-3.1-2.3-3.6-7.1 1.6-1.2-3.3-7.6-.7-6.4-.3-5.7 2.5-2.4-3.3-6.3-1.5-5.9 2.9-4.3-1.4-5.4 1.6-6.2-1.3-5.9-1.6-1.2-4.9-10.9 2.1-6.5-1.7-6.2.9-5.8 2.6-5.9 3.2-4-2-2.5.9-2-1.6-10.6 5.6-3.2 1.1-6.6-.9-1.6-3.8.9z" data-id="CL" data-name="Chile"/>
  <path id="EC" class="map-item" fill="#f2f2f2" fill-rule="evenodd" d="M33.9 80.6l-2.4-1.5-2.8-2.1-1.6 1-4.7-.9-1.4-2.7-1 .1-5.6-3.6-3.9 2.5-3.1 1.4.4 2.6-2.2 4.1-1 3.9-1.9 1 1 5.8L2.6 94 6 96.7l2.1-2.9 1.3 2.8-2.9 4.7.7 2.7-1.5 1.5.2 2.3 2.3-.5 2.3.7 2.5 3.2 3.1-2.6.9-4.3 3.3-5.5 6.7-2.5 6-6.7 1.7-4.1z" data-id="EC" data-name="Ecuador"/>
  <path id="GY" class="map-item" fill="#f2f2f2" fill-rule="evenodd" d="M136.9 41.7l-2.1-2.3-2.9-3.1-2.1-.1-.1-3.3-3.3-4.1-3.6-2.4-4.6 3.8-.6 2.3 1.9 2.3L118 36l-3.4 1.1V40l-1.6 1.8 3.7 4.8 2.9-.3 1.3 1.5-.8 2.8 1.9.9 1.2 3-1.6 2.2-1 5.4 1.4 3.3.3 2.9 3.5 3 2.7.3.7-1.3 1.7-.2 2.6-1.1 1.8-1.7 3.1.5 1.4-.2-3.3-5.6-.7-3.5-1.8-.1-2.4-4.6 1.1-3.3-.3-1.5 3.5-1.6z" data-id="GY" data-name="Guyana"/>
  <path id="CO" class="map-item" fill="#f2f2f2" fill-rule="evenodd" d="M59.1 4.7l1.2-2.1L59 .9l-2-.4-2.9 3.1L51.8 5l-4.6 3.2-4.3-.5-.5 1.3-3.6.1-3.3 3-1.4 5.4-.1 2.1-2.4.7-4.4 4.4-2.9-.2-.7.9 1.1 3.8-1.1 1.9-1.8-.5-.9 3.1 2.2 3.4.6 5.4-1.2 1.6 1.1 5.9-1.2 3.7 2 1.5-2.2 3.3-2.5 4-2.8.4-1.4 2.3.2 3.2-2.1.5.8 2 5.6 3.6 1-.1 1.4 2.7 4.7.9 1.6-1 2.8 2.1 2.4 1.5 1.5-.6 3.7 3 1.8 3 2.7 1.7 3.4 6.7 4.2.8 3-1.7 2.1 1.1 3.3-.6 4.4 3-3.5 6.5 1.7.1 2.9 3.4 2.2-17.4.1-2.8-.9-3.6-2.5-2.4v-4.6l3.2-1 1.1.6.2-2.4-3.3-.7v-3.9l10.9.1 1.9-2.2 1.6 2 1 3.8 1.1-.8-1.7-6.4-1.4-2.2-2-1.4 2.9-3.1-.2-1.5-1.5-1.9-1-4.2.5-4.6 1.3-2.1 1.2-3.4-2-1.1-3.2.7-4-.3-2.3.7-3.8-5.5-3.2-.8-7.2.6-1.3-2.2-1.3-.6-.2-1.3.8-2.4-.4-2.5-1.1-1.4-.6-2.9-2.9-.5 1.8-3.7.9-4.5 1.8-2.4L53.8 9l1.6-3.2z" data-id="CO" data-name="Colombia"/>
  <path id="PY" class="map-item" fill="#f2f2f2" fill-rule="evenodd" d="M136.5 208l-.3-1.9-5.4-3.3-5.1-.1-9.5 1.9-2.1 5.6.2 3.4-1.5 7.6 11.2 10.4 4.6 1 7.2 4.7 5.9 2.5 1.1 2.8-4.2 9.6 5.7 1.8 6.2 1 4.2-1.1 4.3-4.8.3-5.7.7-3.6.3-3.8-.3-3.5-2.1-1.2-2 1.1-2-.3-.9-2.5-1-5.8-1.2-1.9-3.9-1.7-2.1 1.2-6-1.2-.4-8.6z" data-id="PY" data-name="Paraguay"/>
  <path id="PE" class="map-item" fill="#f2f2f2" fill-rule="evenodd" d="M65.1 107l-2.9-3.4-1.7-.1L64 97l-4.4-3-3.3.6-2.1-1.1-3 1.7-4.2-.8-3.4-6.7-2.7-1.7-1.8-3-3.7-3-1.5.6.8 4.9-1.7 4.1-6 6.7-6.7 2.5-3.3 5.5-.9 4.3-3.1 2.6-2.5-3.2-2.3-.7-2.3.5-.2-2.3 1.5-1.5-.7-2.7-4.4 4-1.6 4.5 3 6.1-1.7 2.8 4.1 2.6 4.5 4.1 2 4.7 2.4 2.9 6 12.7 6.2 11.7 5.4 8.4-.8 1.8 2.8 5.3 4.6 3.9 10.7 6.9 11.6 6.4.7 2.6 5.9 3.7 2.7-1.6 1.2-3.3 2.8-6.9-2.8-5.3 1.1-2.1-1.2-2.4 1.9-3.2-.3-5.4-.1-4.5 1.1-2.1-5.5-10.3-3 1.1-2.6-.7-.2-9.7-4.4 3.8-4.9-.2-2.3-3.4-3.7-.3 1-2.8-3.3-3.8-2.6-5.8 1.5-1.1-.1-2.7 3.3-1.9-.7-3.4 1.3-2.2.4-3 6.2-4.3 4.6-1.2.7-1z" data-id="PE" data-name="Peru"/>
  <path id="SR" class="map-item" fill="#f2f2f2" fill-rule="evenodd" d="M148.8 41.3l-4.6.5-.6 1.1-6.7-1.2-1 5.7-3.5 1.6.3 1.5-1.1 3.3 2.4 4.6 1.8.1.7 3.5 3.3 5.6 3.1.5.5-1.3-.9-1.3.5-1.8 2.3.6 2.7-.7 3.2 1.4 1.4-2.7.6-2.9 1-2.8-2.1-3.7-.4-4.4 3.1-5.5z" data-id="SR" data-name="Suriname"/>
  <path id="TT" class="map-item" fill="#f2f2f2" fill-rule="evenodd" d="M116.2 15.2l.1-.2v-.6l.2-.4-.2-.4-.1-.6.1-.5v-.7l.2-.3.5-.8h-.9l-.6.2-1.1.1-.5.2-.7.1-.4.2.1.1.5.2.2.2.1.2.1.4-.3 1.7-.1.1-.6.1-.2.3-1.4.8.8-.1.9.1 2.4-.1zm1.8-6.7l1.2-.5.1-.4h-.2l-.8.3-.6.5v.2z" data-id="TT" data-name="Trinidad and Tobago"/>
  <path id="UY" class="map-item" fill="#f2f2f2" fill-rule="evenodd" d="M173.3 294.5l-2.1-3.7 1.9-3-3.8-4.3-4.8-3.5-6.2-4.1-1.9.2-6.2-4.9-3.4.7-.5 5.1-.3 6.5 1.1 6.3-.9 1.4.4 4.2 3.9 3.5 3.6-.2 5.4 2.7 2.7-.6 4.2 1.2 5.3-3.5z" data-id="UY" data-name="Uruguay"/>
  <path id="VE" class="map-item" fill="#f2f2f2" fill-rule="evenodd" d="M122.8 26.4l-2.2-1.5-2.9.2-.7-5.1-4.1-3.2-4.4-.4-1.8-3 4.8-1.9-6.7.1-6.9.4-.2 1.6-3.2 1.9-4.2-.7-3.1-2.9-6 .7-5-.1-.1-2.1-3.5-3.5-3.9-.1L67 2.3l-2.1 2 .6 3-7.1 2.6v4.8l1.6 2.2-1.5 4.6-2.4.4-1.9-5 2.7-3.7.3-3.3L55.5 7l3.3-.8.3-1.5-3.7 1.1L53.8 9l-2.2 1.8-1.8 2.4-.9 4.5-1.8 3.7 2.9.5.6 2.9 1.1 1.4.4 2.5-.8 2.4.2 1.3 1.3.6 1.3 2.2 7.2-.6 3.2.8 3.8 5.5 2.3-.7 4 .3 3.2-.7 2 1.1-1.2 3.4-1.3 2.1-.5 4.6 1 4.2 1.5 1.9.2 1.5-2.9 3.1 2 1.4 1.4 2.2 1.7 6.4 3 3.4 4.4-.5 1.1-1.9 4.2-1.5 2.3-1 .7-2.7 4.1-1.8-.3-1.4-4.8-.5-.7-4 .3-4.3-2.4-1.6 1-.6 4.2.8 4.4 1.6 1.7-1.5 4-1 6.4-2.4 2.1-2.4-.7-1.8-3.7-4.8 1.6-1.8v-2.9L118 36l1.5-1.2-1.9-2.3.6-2.3z" data-id="VE" data-name="Venezuela"/>
</svg>
