<svg xmlns="http://www.w3.org/2000/svg" id="svg44" width="835.9" height="651.1" fill="#ececec" stroke="#000" stroke-linecap="round" stroke-linejoin="round" stroke-width=".1" version="1.2" viewbox="0 0 836 652">
  <path id="AL" d="M509.05 527.15l.5.4 2 2.9 1.4.5 1.9 1.3 1.4 3.2.1 2.2-.5 2.6.3 2.1-.8.8.7 2 .2 1.9 1.2 2.2 1.2 1.1 1.3 2.4 1.6-.2 1.3 1.1v1.1l1.1 1.8-.8 2.6-1.7.8-1.2 3.1-.3 2-.6.5-1.9.3-1.7 1.3 1 2.2-.9.7-.3 1.5-.7.7-2.7-.9-.7-2.5-1.7-2.7-4.9-2.6-1.2-1.1.4-1.5-.1-1.4-1.4-2.4.3-2.6.8-2.2-.3-2.7.1-2.1-.7-2.9.5-2.1.9-1.3-.2-2.2-1.5-1.1-1.6-.2v-3.1l-.3-.6h1.7l-1.7-2.8 3.2-5.3 1.1.3.8 2.1z" class="map-item"/>
  <path id="AD" d="M277.75 527.85l-2.8 1.1-.7-.4v-2.1l.9-.7 2.6.6z" class="map-item"/>
  <path id="AT" d="M462.15 433.95l-.9 2.4.1.8 1.6 2.9 2.3 2.9-.6.7-.6 1.9.7 2-3.9.3-2.5-.9-1.3 1.4 2.6.7.5 1.1-.5 1.4-2.2 1.2.4 1.5-.5.7 1.1 1.6-.3 1.8-2.5.5-1.8 1.7-1.3.9-.1 1.9-2.4-.5-1.6.2-2.3 1.1-2.8-.2-2.6.2-1.9.7-1 1.3-3 1.2-5-.7-5-.9-2.6-.5-4-.3-8.6-1.5-1.1-.5-3.1-3.5v-2.3l-4.7 1.5-3.1-.2-3.4.3-1.4.6-1.2 2.2-1.1.4-2.1-.4-.9-.8-3-.3-.5-1.5-.8-.3-2 1.9-2.3-.4-1.5-.8-.4-1-3.3-.8.3-.8-1.1-2.5 1-3-.9-.7 1.7-.5.7-.5 3.5 1.6.9 1.4 1.2.3-.1 1.3 1.6-.5 1-1.6.2-1.9 2.8-.1 2.7.4 1.4 1.9 3.8-.5 1.1-.9 3.9-1.5 5.7-.5.1-1.4 2 .3 1.5.8 2.5-.5 1.1.5.2 1.1 1.2.9 1.7.4.3-1.5-.3-1.9-1.7-.3.6-1.3-.1-1.3-2.5-2.8.6-1.3 3.1-1.8 2.9-.8 1-1 .7-2.9 2.3.9 1.3-.9.2-2.8 2.2 1.2.8 1.3 3.9.4 1.4-.7 2.5.4.1-1.1 1.3-1.6h1.2l.3-3.2 1.2-.2 1.6.8 1.4-.4 4.8 1.7 1.5-.1 3 1.7 3.8.2 1.2-.9 5.1 1.5z" class="map-item"/>
  <path id="BE" d="M324.35 400.85l1.6-.5.8.8 1.2.1 3 2.3-.4 1.5 1.7.7.4 2-2.3 1.3-.6 1.7-1.7-.7-1.3 1.3-1.4 2.5-.2 1.7 2 2.4-1.1 1.7-3.4.4-2.8-2.6-3.3-1.5-1.7-.1-.4-2-.6-.6.8-2.7-1.9.6-.5 1.4-1.3.6-2.2.3-2.3-.3-.5-.6.7-1.4-.7-.7.4-1.6-1.6-1.1-3.6-.4-.9.3-.6-2-4.2-1.1-.5-2-1.6-1.8-3.2 1-2.9-2.4v-1.2l-.9-2.2 5.1-2.5 4.7-1.7.3 1.3 1.2.7 1.2-.6 3.9 1.1 3.2-1.5.6-1.2 2.1.3-.2-.9 1.4-.7 1.5.8 1.5-1 1.1 1.3 2.5-.8.5 1.6 2.6 1.4 1.9-.4 1.7 1.3 2.6 1.1-1 2.9-1.1 1.3z" class="map-item"/>
  <path id="BG" d="M613.95 508.65l.2 3.7-.9 1.8-2-.6-2.2.5-1 2-1.2 1.2v2.6l.4 4.2-1.6.7-2.9 3.7 3 1.8 1.7 2.2 2.4 2.5.5 1.2-1.7-.2-.9.4h-1.8l-1.5.6-3.4-2.5-3.5.3-1.5 1.1-3.4.4-1 2.2-1.9.3-.3 1.4-1.6-.5-1.6 1.1.7 1 .9 2.7-.2.8-2.5 1.2-1.8-.3-3.2.4-3.4.9-1.7-1.1-3.7-1.2-.9.6-2.4-1.4-1.2-1.7-1.6.5-4.2-.1-.2.9-1.9.2-3 1.1-2.6-.2-2.4.2-1 1-3-.2v-4.2l.5-1.7-.9-1-1.7-3.3-3.4-1.8-3.3-3.2 1-.3 1.1-1.7-1.4-2.9v-3.3l1.1-.6 1.8-.1 1.1-1.6 1.6-1.7.3-1.4-1.6-1-1.3-1.6-2.9-1.5-2.4-3.9-.6-2.4.4-2.3 2.1-1 .2-1.9.9-.7 4.3 2.5-1.8 2 .9 1.8 3.7-.6 3.9.3 5.3 1 3.5.4 2.5-.5 9.4 1.7 4.2.2 2.3-.6 1.6-.9 1.2-1.6 3.3-2.1 3.2-1.2 4.4-.9 2.9-.4 4.5 2.3 3.2.4.9.6 1.7-.5 2.5 2.6 2.2.7 2.6.5z" class="map-item"/>
  <path id="BA" d="M492.55 491.25l2.8-.7 1.5.8-.5 2.5-1.6 2.7-.1 2.6.5.8 2.4 1.2 3.3 2.9-.3.8-3.1-.1-.5.8 3.2 3.7-.2 2.2-2.5-.3-.7.8-3.2.5 1.4 2.2-2.3.2-2 1.7-.5 1.7.1 1.5-1.7.2-.5.7.6 3 1.1 1.6-.1.8-1.1 1-1.7-.7-6.2-3.8-.6-.9-1.6.1-1.1-.6.3-1.6-3-2.5-1.5-1.6-.4-2.2-2.4-1.1-5-4.1-1.7-2-2.8-2.3-2.3-2.4-1.3-4-3.4-3.2-1.9-1.3-.1-1.4.3-5 1.2-.6 1.8.4 1.7 1.8 1.8 1 2.7-3.2 3.2.3 1.5-1.2 2.7 1.6 2.5.1 2.8.7 1.7-.6 1.6 1.3 2.2-1 1.8.3 1.8-.2 2.6.7 2.2.2 1.1.8 1.3 2.2z" class="map-item"/>
  <path id="BY" d="M578.85 320.55l1.8 1.3 1.2-.4 1.9-.1 3.1 2.2 1.6-.9 1.5-.3 3.6 1.2.2 2.3 1.7 1.5 2.1-1.3 2.7-1.1h3.4l2.7.9 2.4 1.8 3.5 1.4.4 2.5-.6 1.8 2.1 2.1.5 1.3-1.3 2v2l4.1 2 .5.5-.5 1.8 1.4.6 1.8 2.4 1.5 1.4 4.9 2.1.7.8-.4 2.8 5.3.5 3.2 1.3v1.1l.7 1.1 2.8 1.4.6 1.7-2.6 1-.3.9-3 1.8-3.5-.2-2.4-1.5-2.9.1-1.4 2.7 3.9 3.3.6 1-.2 1.5 1 1.5.5 3.3 1.6 1.4 1.3 1.8-5-.1-1.4.8-1.7-.4-1.1.5-2.2 2.3-.8 1.2-1 3.3 1.8 3.6-.8 1.4-2.7-.9-.5-1.2-2-1.1-7.1.6-2.3.8-.6-.5-2.5-3-3.8 1.6-.6 1.1-1-.3-.8-1.3-5.1-1-1.9.7-1.9-.5-1.2 1.7-.8-1.4-1.1-.4-3 .1-1-.3-1.8-2.1h-2.3l-6.1-.9-6.5-1.5-7.8-.4-2.4.1-2.3.5-5.9.5-.8 1.4-1.6 1.6-1.9 1.2-1.1-.5-1.9-.3-1.1.5.1 1.4-1-1.6-.1-1.3.8-1.5-.4-1.1.2-2.4-.8-1-1.8-1-3.3-1.3v-1.2l2-2.7.8-.5 4-1.7.6-1.6-.9-3.9-1.7-3.6-2.9-4.9-2.1-5.1 2.9.4 1.6-.3 3.7-.3 1.6.9 3.3-1.3 1.8.1.8-2.6 2 .2 1.4-1.2 2.1-.5 1-.7 1.7 2.3 2-.2v-1l-.9-1.1-1.9-.5.5-2 1-1.5-.4-2.3 1.1-3 2.6-.6.8-.6 1-2 3.6.1.4-1.1 1.3-1-3.9-1 .7-3.1v-1.8l2.6-.6 1.2-1.5 1.1-.3 3 .4 3.1.1.4-1.7 2.5-2.4 1.4-.8z" class="map-item"/>
  <path id="CH" d="M368.45 448.15l.8 1.1 2.6 1.3h1.2l.9.7-1 3-.5 1.5.1 1.7 1.2.1 3.3.8.4 1 1.5.8 2.3.4 2-1.9.8.3.5 1.5-.5 3.1.5 1.8-1.9-.2-1-.9-1.3.3-.6 1.8 1.5 3.5-1.2.3-1.4-1.9-.7-.1-2.9 1.1-2-.8-.8-2.1-2 .1v2.9l-.5 1.1-2.2 2.6-.2 1 .7 1.7-1.2.7-.9-1.4-1.3-1.2.4-1.2-2.2-.6-2.4-2-.2-2.5-1-.6-3.4 2.9.6 1.5-1.6 2.2-2.4 1.4-3.1-.8-2.6 1-2.4.5-1.4-.7-.9-1.4-2.3-2.3.5-1.7-.8-2.2-2.2-.3-1.9.1-2.3 1.5.5 1.3-2.3 1.6-1.4-.1v-1l1.5-1 .3-1.5-.8-.7 1.1-2.9 3-2.2.5-2.9 2.1-.9 3.8-4 .6-.9-1.3-1.1 1.8-1.4h1.1l.8.8 2.7-.3.8-1.4 1.5-.7 1 .3 2.8.1 3.3-.6 2.6.2-.2-1.5 1.3-1.2h1.3l1.4 1 .8-.2 1.1.9z" class="map-item"/>
  <path id="CZ" d="M433.25 399.55l2.1-.4-.1-1.9 3.3.8.3 1.1 1 1.1 4.6 1.1 2.7 1.1.8.9 3.2-.7 1.8 1.2-.7 1.1-1.6 1.2 1.6.9 2 1.8 1.5 1.9 1 .4 3.5-2.5-1.7-2.4h1.3l2.2.6 3.3 1.9 3.6-.7v1.6l-1.4.5 2.7 2.3 1 .6 1.8-1 3.5 1.8.5-.2 2.7.8.5 1.8 2.8 2.2.5 1.6-2.8.3-2 1.5-.6.8-2.3 1.2-.7 3-1.6.8-2.1 1.9-1.5.7-1.7.2-3.6-.5-1.4 1.2-1.1 2.8-1-1.6-5.1-1.5-1.2.9-3.8-.2-3-1.7-1.5.1-4.8-1.7-1.4.4-1.6-.8-1.2.2-.3 3.2h-1.2l-1.3 1.6-.1 1.1-2.5-.4-1.4.7-3.9-.4-.8-1.3-2.2-1.2-.6-.7-2.9-2.2h-1.3l-1.3-1.6-2.5-1.5-2.9-2.6h-1.3l-2.3-2-1.8-2.7-1.4-1.5 1.2-1.7-.6-1.6-2.3-1.3-2.5-3.4.5-.7 1.9 2 1.9-2.6 1.1-.6 2.6-.6 2.1.4.8-1.3 2-.3.6-1 1.6-.7 1.1.1.6-1.2 4.4-1 3.5-1.5 1.9-.6-1.5-1.5.8-.6 2.2.4 1.5 1.5v.9l1.4.6z" class="map-item"/>
  <path id="DE" d="M422.25 354.25l-3.4-.1-.2-1.7-1.1-1-.1-1 4.7 2.6zm-34.8-8.1h-1.8l-1.4-.7.8-1 1.7.4zm28.3.5l-1.3.7h-1.3l-1.3 1.3-2.1-1.1-.5-1.1.1-2.2.6-1.4 2-.9.9 1.2 1.7.6-.5 1.7zm-46.6-6.6l1.8.7 1.6 1.6.1 1.4-1.7 1.6 3.2-.3.8 1.2 1.7-.4 4.5 1.8 3.2-.9.7 1.4-.6 1.5-2.2 1.6 1.4 1.2 2.1-.2 3.6.9 3.3-2.5 1.1-.5 3.6-.3 5.1-4.5 5.3.9 1.5 1.9 3.7 2.1 3.2-.2 1.3 2 .8 2.5 1.9 1.3 2.8.5.7 2.6 1.8 4.1-.3 2.7-1.9 1.8-.7 1.6 1.6 1.4 3.3 2.1 1.4 1.7-.6 2.6 2 2.3.8 1.9-.7 2.6-.8 1.1 1.9 3.1v1.6l2.2.9 1.6 3.2-.4 2.3-1.6 3.6-.9.7-1.4-.6v-.9l-1.5-1.5-2.2-.4-.8.6 1.5 1.5-1.9.6-3.5 1.5-4.4 1-.6 1.2-1.1-.1-1.6.7-.6 1-2 .3-.8 1.3-2.1-.4-2.6.6-1.1.6-1.9 2.6-1.9-2-.5.7 2.5 3.4 2.3 1.3.6 1.6-1.2 1.7 1.4 1.5 1.8 2.7 2.3 2h1.3l2.9 2.6 2.5 1.5 1.3 1.6h1.3l2.9 2.2.6.7-.2 2.8-1.3.9-2.3-.9-.7 2.9-1 1-2.9.8-3.1 1.8-.6 1.3 2.5 2.8.1 1.3-.6 1.3 1.7.3.3 1.9-.3 1.5-1.7-.4-1.2-.9-.2-1.1-1.1-.5-2.5.5-1.5-.8-2-.3-.1 1.4-5.7.5-3.9 1.5-1.1.9-3.8.5-1.4-1.9-2.7-.4-2.8.1-.2 1.9-1 1.6-1.6.5.1-1.3-1.2-.3-.9-1.4-3.5-1.6-.7.5-2.2-1.2-5.1-2.3 1 1.6-3.7.2-1.1-.9-.8.2-1.4-1h-1.3l-1.3 1.2.2 1.5-2.6-.2-3.3.6-2.8-.1-1-.3-1.1-1.3v-1.5l.6-2-.2-2.4.3-1.5 1-1.8 1.4-5.5 3.5-3.8-.1-1.3-1.6-.6-4.8-.8-2-1.4-3 .6-2.1-.1-.3-.9-1.4-.4-1.8.7-3.5-4.3-1.4-.1.6-3 .9-.9v-1.4l-2.8-1.1-1.5-1.6-.3-2.2.6-1.7 2.3-1.3-.4-2-1.7-.7.4-1.5-3-2.3.6-2.4-1.9-1.2.5-.8 2.2-1.6-.7-1.2 1.3-2.8v-1.2l-3.1-4.1.7-1.1 1.8-.7 2.3.8 4.5-1.3.7-1-1-.9.3-.9 2.6-1.6.6-2.6-.8-1-2.6-.3-.7-1 .6-1.6 3.1.1 1.1-3.8.7-1.7-.1-4.3-1.7-1.4.5-2.7 1.1-1.4.9-.4 4-.3 4.5.1 1.9 2.2-.6 1.2 1.6.3.9-2.4 1.4.8 1.1-.1-.5-1.7.2-1.6.9-1.4 3.3.6 3.6-.3.1-.6-2.8-.5-.9-1.1-.2-3.9-1.5-.8-1.6.3v-1.5l3.4-1.1v-1l-3.4-3.8-.2-1.6 2.7.1 5.2 1.3 3.1-.7z" class="map-item"/>
  <path id="DK" d="M387.85 339.05l2.1 1 2.4.3.4 1.9-3.5.7-5.1-2.1.1-2.5 2.3-.2zm13.7-1.1l-2.3.1-1.9 1-.3-1.2 1.6-1 1.2.2zm-28.8 1.2l-1.2.2-1.7-.5-.6-2.3 2.7 1.1zm8 2l-1.4-1.5 2.5-2.9.7-.2zm50.1-4l-2.4-.2-2.4-1 .1-2 .5-.9 4.5 2.3zm-52.1-8.7l2.3 4.3-.1 2.8-1.8 1.2h-2.1l-5.4-1.7-1.7-2.9-.1-2.3 4.8-1.4 2.6.8zm23.3.2l-1 .6-.7-.9.9-.9zm-23.9-2.8h-.9v-3l1.5 1.6zm22.6 0l.1 1.5-.7.7-2 .7-1.1 1.8 2 1.2.5 1.5-1 .7-2.6.7v5.6l-2.2.6-1.5-2.1-.1-.9-1.3-3.1-2-.4-2.2.1-1.5-1.8.1-2.1-1-2-1.3-.6.4-1.4 3.1-.2 1.5-1.9v-.9l1.8-.2.8.7.1 2.6 1.6.5 1.1-2.9-.9-1.1 3.9-2.2 1.1-.1 3 .9-.4 2.1zm-31.6 14.2l-1.5-.4-3.1.7-5.2-1.3-2.7-.1-.5-2.1-.8-1.4 1.1-.3-.9-3.9-3.2-1.3-2.5-1.4.5-5.6-1-2.3.1-6.9 1.3-.1 3.1.8 1.5.9.6-1.9 1.6-1.6 2-.8 1.6 1.3.3-4.5-1.6-.5-1.3.4-1.3 1.9-1 2.4-1.9.2-1.5.7-2.4-1.4.1-1.4 1.6-1.9 2-1.9h2.2l1.6-.6 3.9.1 2.8-1.3 2.8-3.6 1.5-1.5 3.3-.5 3-1.7-.8 2.5 1.2 1.7v3l-.9 1-1.4 2.5.2 5.6 2.5 1.5h4.1l1 1.1-.7 2.2-2.6 1.4h-.9l-1.4-1.1-1.1.9-1.2 5.1-2-.1-1.2.5 1.4 1.2-1.3.8-3.4 3.1 1.1 3.4-.2.9-1.5 1.3-.6 1.1 2.3.3z" class="map-item"/>
  <path id="EE" d="M509.85 284.35l3.9.2 4 1.8-1.8.7-3.7 2.5-.3.5-2.6-.1-1.4.2-1 .9-.9 2.8-1.6.5-.3-.9 1.6-1.8-1.5-1.4-1.9-.7.9-1.8-1.6-1.6 1.5-.2 1 .5 2-.5.5-1zm8.3 1l-.9.2-2.4-1.1 1-1 1.9.5zm-5.4-4l-.8.7-.9-.6-.9 1.6-1.3.3-1.9-2.5-2.9-.5-1.3-.7 4.5-.4 1.2-1.6 1.3.1.4.9 2.1.3.9 1zm53.2 18.9l-1.9-.2-3.4-1-4 1.2-2.8-1.1-3.5-2.7-.6-.7-2.3-.5-5.6-2.5-1.1.7-1.5-1-8.4 2.8 1-3.4.1-3.6-2.3-.4-.9 1.3-1.3.3-4.1-1.3-1.2-2.1-1.6-1.1-.8-1.2v-1.8l-1.5-2 .7-1.1-.7-2.8 3-1.2 3.3-.2.9-1.3 2-1.3 2.3.2 3.1-1 6.3.1.4-1.7h3.2l7.6 1.2h1.8l2.8 1.2 1.4.3h4l6.3.5 1.2-1 1.5 1.2-1 1.4-1.2.4-.9 3.2-.8 1-1.7-.3-2.5.2-2 .5-1.3 1.1.1 1.1 2.6 2.3 1.4 2.8 2.6 2.2.8 1.3 2.4 2.9 1.8 2.5-2.3.6-1.2 2z" class="map-item"/>
  <path id="FI" d="M500.85 259.05l2 .2-.6 2.8-2.3-1.8zm-1.9.5l-2.1-.6.9-.8zm-6.5-2.7l-1.5.7-.3-1.7zm25.5-62.9l-1.5.5-1.3-.3-.2-.9 2-.6zm30.1-54.6l-3.7 1.3 1.6.8.8 1.2-2 3.2.1.6 3.1 4 7.2 1.7 2.3 1.8 3.6 2.3 1.8.9.1 1.9-3 3-2.6 3.1-1.2 1.7.4 1.7 2.6 2.1 2.3 2.2 3 3.5 3 2.5 3 4.2.4 1.4-3.7.7 1.2.9-.6 1.3.3 1.9-.5 1.5 1.9.3.3 1.3-1.7 1v.9l1.4 1.7 1 .6 3.2.6.9 1.6-1 1.7 1.8 2.2 4.5 1.8.7 1.3.2 1.7-2.4 3-2 .8.7.8 4.5 2.6 6.6 2.9 2.6 1.3 2.1 1.9 2.2 1.6.5 1-1.6 4.5-.7 1.2-2.2 2.2-3.4 2.8-2.3 2.3-5.3 5.9-1.9 1.5-2.1 2.2-4.9 3.3-.7.8-2.5 1.5-5.6 5.2-3.5 1-2.6-1.1-1.8.2-1.2.8-2.5.2-2 .6-1-.7-.7.6-1.9.2-2-1 .3 1.5-3.3 1.5-.8-.9-2 1-2.1.2-1.1.8-5.9 1.1-1.5 1.3-1.2-.3-6.7 1.1-2.9-.2-2.7 2-1.8.4 1.5-3-2.4-1.1-1.2-1.6-.7.4-.3 1.5-1.5.8-2-.1-.4-2.4.8-2.3-3.6-.6-3.8-1.4-.9-.1-.7-1.3-2 .9-2.1-.9-1.7-5.3v-1.3l.9-1.6-.1-3.4-.6-2 1.1-.6-.9-1.6-2.2-3-1.6-1.1.5-3.3-.6-1.6-1.9-1.1-1.1-2.9.6-2.4 2.4-2.2v-1.2l.9-1.1-.5-1.3 2.7-.5 1 .4 2.4-.4 1.9-1-1.1-1.8 1.5-.7 1.2-1.2-.1-1 2.3-.5 2.4-1.9 2.3-1.1 2.3-1.9 1.1-.1.3-1.3 2.5-1.9.8-1.6 2.3-1.8 2.2-3.9 3.8-1.2 3.8.3-.6-1.7 1-.3-.6-1.3-1-.6v-4.6l-1.3-.9-4.5-1.6-1.7-.1-1.2-1.2-4.6-.7-1.6-2.5-1.9-2.2-1.8-.6-1.3-2.6v-1.3l1.5-1.3-.1-1.8.7-1.4-.6-.9-3.3-2.6-.8-1.6.1-1.1 1-.8-.6-1.3-2.8-.4.3-1.9-.7-1.4-.4-2.4 1.1-1-1.8-.9-1.9-1.5-1.4-.1-1.2-1.6-3.5-1.8-8.3-1.7-4.2-1.8-4.8-2.3-2.9-1.1-.4-.9-2.9-.8.5-.4h2.1l1.9.4.5-.6-1-1.4 1.9-1.1h3.6l7.9 5.5 1.4 1.8 6.9.6.8.5 1.8-.1 3.7-.9 1.2-1.2 1.5.1 3.6 1.1 3.9.8 2.6.8 1.3-.6.5-1.7 1.6-1.3 2.1-.3 1.5-1.4-.7-3.2.6-1.7.7-3.8 2.6-1.7 1.7-1.8 2.1-.2 3.8.4.9-.2 3.5-1.6 2.9-.3 1.8 1.2 4.2 2 4.2 1.1 3.6.8 2.6 2.7-.7 1-3.2 2.9v.7z" class="map-item"/>
  <path id="GB" d="M243.45 402.15l-1.6 1.3-1.3.2-2.5-1.2v-.5l2.5-1.1 2 .6zm-36.5-39.7l1.3.9-3.4 1.9-1.2-.6-.9-1.2-.1-1.9 1.2-.5h1.8zm-23.3-11.4l-2.1.4h-2.9l.1-1.5-1.4-.5-1.8-2.7-1.3-.5-1.9 1.6.5.9-2.4 1.8-2.9-.3-.8-.7-2.1-.4-.2-1-2.7-2 1-1.4 2.9-.9-1-1.4.2-.8 1.6.1 2.2-.8 1.2-1.6 1-2.3 1.9-.9 1.3.6 1.9-2 2.8-.1 2.7-.7 3.9.3 1.1 1.1.5 1.7 1.3 1.7 1.7 1.4v.9l-2 1.1 3.5.3 1.2 2.5-2.1.3-.1 1.4 1.1.2-.6 1.4-2.6.6-1.4 2.2-1 .5zm13.7-20.2l-2.6-.5-.6-2 .9-1.4 1.8.7.6 1.3zm-11.5-7.1l.7 3.4-2.4 1.3-.8-2.4-1.4 1 .2-1.9 1.5-.3zm1.7 1.7l-1.1-1.2 1.6-2.2 1.7-1-.1 1.6zm2.5-7.8l-4.6.8.6-3-1.9-.9.3-.9 2.1-.5 1.7 1.7 2.1.6zm-16.2-11.4l-1.5-.2-.4-1.4.2-2.3 1.6.2zm12.8-5.7l-.1 2.8 2.9.8 2-.1.4.6-3.3 2.7-.7-.1-.2-2.2-1.4.3-1.9-.3-1.2-1.9-2.7-.5-.9-1.1 1.4-.6.3-1.2 2.8-.6 1.5-.7.9 1zm-11.9-2.6l1.2.9-1.1 1.3h-1.5l-2.2-1 .2-.5zm11.8-9.9l-1.6 2.6-1 .7-.2 1.7-3 1.6-3.2 2.4-1.4-1 2.6-1.7-2.1-1-.2-2.6.8-.7 1.4.7 1.9-.3-.7-1.2 6.3-3.2zm34.8-2.2v1.2l-1.3 1.6-2.2 1.2-4.2 2.8-2.5 1.3-.5 1.6 1.4.1.2.8-2.2 1.6-.6 1.5 3-.4 5.3-1.5 3.6.5 2.6-.3 6.9.2 1.9-.3 2.3 1.3 1 1.7-2.8 3.4-.8 2.3-2 3.5-1.9 2-2 2.5-2.1 1.1-3.1.5 4.5 1.9-1.4 1.8-2.4.1-2.3 1.7-2.1.7 3.6 1.1 2.4-1 2.7-.1 5.2 1.9 3.6 3.4 2 1.5.5 1.1 2.1 6.9 1.5 3.8 1.6 1.8 4.5 1.6 1.1.6 3.4 3.3 3.4 2.4-1.4 1.5.4 1.2 2.1 2.9.3 1.6-1.3-.1-2.3-1.4-.3.7 5 3.3 1.6 2 1 2.7-.6 1.1-3 2.7 2.8 1.4 1.2-.2 2-2.1 1.7-.2 4.2.3 3.8 1 3.3 2.1.7 1.1.4 3.1-2.2 5.8-2.8 1.9-.5 1.7-2.1.9-1.7-.3-2.4 1.2 1.7.6v1.7l-1.1.6-2.5.2 1.1 2 2.5.4 4.3-.2 1.9.2-.2 2.7-.4.4-3.8 1.7-1 1.8-2.2-.1-1.1.7-5.7 1.9-4.9-.8-2.9.1-4 .6-4.2-1.2-1.8-.2-2.8 1.7-4.2.5-2-.2.9 1.5-.9.4-3.8-.5-1 .5-1.4-.2-2.7-1.4-2.6-.1-4.9 1.2-1 1.3-1.3 3.5-1.1 1.2-1.4.2-4.5-2.5-1.5.5-2.5.3-2.7.7-3.9 2.4-.9 1.5-1.3.2-1.1-.9-1.4-.3-2.3.8-.3-1.3 1-1 2.8-.7 2.5-1.9 2.2-2.3 4.6-3.8.8-3.1 2.7-.7 1.4-2.5 4.1-.6h2.8l2.8.5 2.9-.1 1.1-.7 1.9-2.4 3.6-3-4.7 1-3.8 2.3-3.2-.4-2.3-1.9-2.1-.8-2.1.4-.7-.9-2.4-1.7h-2.6l-3.6 1.7-2.6-1.2-.9-2.3.3-1.4 1.1-.7 2.5-.6 3.8-1.7 2.2-.7 2.8-1.9 1.2-2.3-.3-2 .5-1.4-.9-1.7.3-1.5-3 .3-2.7 1.2-.7-1.1 2.8-1.8 1-1.4 2.6-1.7 3.6-1.3 1.9.1 3.7-.7 2.7 1.3-.8-2.1 1.2-.4.1-2.4 1.6-2.2-1.2-.6.1-2 1.5-.8.7-2.6-1.7-.5-2.1.6-1.7-1.5-2.8-3.6-.3-1.4 1.6-3.1 2.3-2-1.9-.8-1.4.2-2.7 1.2-2 1.3h-2.1l-.8-.9-1.1.1-2.5 1.1-3.5-1.3-1.1 2.3-2.6-2.5-.3-1.9h1.3l1.2-2.4 2.9-4 .6-1.2-.5-1.4-1.9-1.5.3-2.6.8-1 1.5-.4-1.9-1.2-2.9.9-1.8.9.3-2-.6-.4-1.5 1.4.1 3.3-2.1 5.7-1.1.9-1.4-.5 1.1-3.9 1.4-2.5-.6-.3.3-3.6 1-2.9 1.7-3.8 2.2-3.5-4.1 2.7-1 .5-2.4-.4-.8-.7-1-2.3 1.8-.2 1.7-1.1-1.5-.7 1.5-.9 1.7-2.1.4-1.9-1-1.5-1.6-.6-.2-.9 1.7-1.9-.7-1.5 1.6-3.1 3 .1 1.9-.4-2.3-2 .7-2.9 3.7-.3-.8-1.8.3-2 1.6-.9 1.3.2 1 .9 2.6-.9.6.8 2.8-.6 3.7-.3 4.5-.6 2.2-.4 2.3.2zm-.6-4l-1.3.1-1.3-1.4 1.5-.3zm1.3-3.4l2.7.6-.6 1.4-1.4-.7-2 .3-1.9-1 .4-2.1 1.7-.1 1.2.5zm3.7-2.3l-1 .3-.4-1.2-1.7-.6.4-.8zm16.1-19.5l1.6 1.8 1 .5-1.3 3.8-.2 1.6-1 1.7-.8-.4.9-2.9-.5-1.1-1.7.3-.4-.9 1.6-1.4-.8-2-1.1-.2 1.5-1.6zm2.9.4l-1.4-1.3 1.3-.6z" class="map-item"/>
  <path id="GR" d="M567.25 636.75h2.3l1.7-1 2.2 3.7 1.7-.1 3.5-.9 3.7.2 1.4 1 2.6.2 2.3.5 3.3-.7.4.4.1 2.8 1.2.2.7-.7 1.7-.6h1.8l1.6-.8-.4 3.5-.9.4-4.4-.1-8.1 1-5.3.4-.7-.2-.7-2.2-3.3-1.1-6.2-1-1.5-.4-3.1.2-1.1-1-.4-1.8.2-1.9 1.4.3.4-1.4zm43.4 1.1l-1.6-2.1 1.1-.5 1.2 2.4zm-54.7-11.4l-1.4.2-.7-2.2.5-1 2.1 2.1zm62.7 4.1l-1.7-.4.4-1.8-.7-1.6 2.3-2.7 3.2-1.3.9.9-.9 2.5-.9 1.3.4 1-1.6.2zm-19-10.3l-1.5 1.2-.9-.6 1.9-1.2zm6.2-2.2v-.7l1.3-1.1 2.5-1 1.2.6-2.5 1.4-1.5.1zm-22.2-5.4l-.9 1.3-1.3-.7.4-1.2 1.1-.6zm3.6 1.6l-1.1.6-1.4-2.2 1.9-2 .9.7.1 1.8zm5.4-8.8l.6-1.6 1.6-.1v1.1zm-21.7-.7l-1-.4.4-1.2 1.1.5zm31.6-3.7l2.8.7-.7 1-1.6.9-1.7-.9-1.2-1.2zm-76.7.1l.4 1.2-1.1 1-1.6-1.2-1.2-1.8.9-1.1.9 1.2zm53.1.7l-1.4-.1-2.4-2.1.9-1.4.9 1.2 1.3.1zm-57.3-9.7l.3 1.8.9.3 1.3 1.6-.2 1.2-2.1-.8-1 .2-1.1-2-1.3.2.6-1.8 1.4.1zm70.8 2.5l-1.1.9-1.8-1.7 1.4-1.3-2.1-2.4-.1-1 2.1-.5 1.3.9.6 1.2.4 2.6zm-70.2-6.1l-1.3.1-.4-.9.8-2.4 1.1.3.2 2.5zm34.6-5.4l.9 1.7 5.5 2.5 2.8.3 1.7 2.6-.2.6 1.5 3.8 1.1.9 2.7.3.4 1.9-.9.8-1.9-.7-2.1-1.6-.4-1.3-2.2-2.9-3.6-.2-1.5-.7-.6-1.7-1.5-.9-2-1.9-1.5-1.1-3-1.1-.6-.7 1.9-1.3 2.1-.5zm37.9-5.8l-.1.9 1.9 1.5.7 1-1.2 2.1-4-.8-.8-.8 1.6-1.3-.9-.5-1.2 1.5-2.2-.7-.9-.9.7-1.4 1.5.1 1.7-.8v-.6l2.3-.2zm-81.3-1.6l-1.3.3-1.2-.8-1.2-1.9-2.2-2.2.7-1.1 1.6-.4 1.4 1.2-1.1 1.2.8.7.9 2.4zm67.8-8.6l-.7 1.4-.1 1.3-3.8-.7-.3-2.3 2.2-.1.8.8 1-.9zm2.4-6.9l-1.4.4-1.7-1.3 1.4-.5zm-11.9-3l-1.6.6-1.8-1.1 1.1-2.3 1.3.1 1 1.3zm15.9-1.7l-.5-.7-2.1-1.2-4.6-.6-2.3-.9-.9.2-2-1-1.2.4-2.5 1.7-1.5-.2-1.6-1-2.2.4-1.7 1.9-1.8 1-1.8-.4h-2.3l-.2 1.1 2 2.1-.5 1 .5 1 2.1.1 2.5 1.3-.7.7-3.2-1.2-1.2-.1-1.2 1.2 3.5 2.7.5 1.4-.6.9-1.5-.8-2.5-3.2-3.1-.6-.4.6 1.2 2.4 2.9 1.7-.6.6-3-1-1.1-1.6-.4-2-5.5-2.8-1.4-2.8-2.2 1.3.4 2-.6 3.8.4 1.3 3.5 3.7 1.3 2.7 2.6 2.1 2.6 3.2.7 1.8-1.3 1.1-1.3-.5.3-1.9-2.2-1.2-1.9 1.2 1.5 2.3.5 1.2-.4 1.3-1.6.8-2.6.1 2.4 1.4 3.3 1 1.6 1.1 1.5.1 1.7 2.1 2.6.6 1.7 2.1 2 .5 1.7.8 1 2.1.3 2.9.6 2.1.1 1.7-1.1.5-1.3-1.6-4.2-3.6-1-.4-1 .7-2.9.5-1.9 1.3 1.5 1.3.1 1.2.8 1.5 2 .4 2 2.4-3 1-1.1.7-.8-.5-.2-1.2-4.3-2.2-.6.6.7 2.4 1.3 1.6 2.2 4.3 1.3 3.7-.2 2.1 1 1.5.1 1.5-1.7-1.2-2.2-2.5-.8-1.5-2.2.1-1.3 3.3.2 1.9-1.6-1.1-.2-2.9-2.1-2.8-.9-.4-1.3-1.9-1.5.6-.1 2.9-.4 1-2.2-1.9-2.3-3.5-.2-1.8 1.4-1.7-.3-1.2-1.6-2.5-2.1-1.5-1.2-.5-.7-1.6-2-1.3v-1l2-1.7 1-2.6 1.9.5 1.4-.2 2-2.4 1.6.1 3.9 2.1 4.2 1.2 2.1 1 1.2 1.1 1.6.3-.5-1.4.8-.4h2.1l.2-1.6-2-.6-.8.2-2.4-1.4-2.3-.8-2.2-1.5-1.2 1.3h-1.2l-3.4-.9-2.1.7-4.2.7-1.1-1.3-2.6 1-1-.7-1.9-4.2-1.7-1.9-1.2-.5-.2-1.9 1.5-.2 2.4.9.9-.6-.6-1.6-2.5-.2-1.8.5-2.8-2.2-1.5-1.7-2.2-1.1-1.7-3.4-2.6-2.6 2.7.9.7-.7.3-1.5.9-.7-1-2.2 1.7-1.3 1.9-.3.6-.5.3-2 1.2-3.1 1.7-.8.8-2.6-1.1-1.8v-1.1l4.6-.3.9-.6 2.3.6 2.4-1.3 1.7-2.5.8-.3 3-.4 3.3.6 2.9-1 .2-2.1 2-.3 3 .2 1-1 2.4-.2 2.6.2 3-1.1 1.9-.2.2-.9 4.2.1 1.6-.5 1.2 1.7 2.4 1.4.9-.6 3.7 1.2 1.7 1.1 3.4-.9 3.2-.4 1.8.3 2.5-1.2.2-.8-.9-2.7-.7-1 1.6-1.1 1.6.5 1.2.3 2.3 1.5.9 3.1-3.4 2.5.5 4.4-2.5 3.2z" class="map-item"/>
  <path id="HR" d="M465.55 520.25l2.3.4-1.1.9zm12.9 1.5l1.6-.1.6.9 6.2 3.8 1.7.7 1.2 1.9-4.8-3.1-4.4-2.5-3.1-.7-4.3-2-.5-.9zm-6.3-3.5l-.8.1-5.6-.1-1.7-.3-.5-1.3 1.8.2.5.6zm-5.3-2.3l-2 .1-2.6-.8.3-1.1 4.8.6zm-21.2-16.5l-.3.4-3.3-2.7-.3-1.9 2.8 2.7zm-4.9-6.5l-1.9-.2.8-1.1zm-4.2 1.5l-.9-.1-1.7-4.2.4-1.2-.8-2 .9-.3.5 2.1 1 .9-.1 1.6zm3.7-4.9l-1.5.3-1-1-1.3-.2-1-1 1-.7.5-1.2zm49.5-14.7l-.7 1.5 1.6 2.7.2 1.6 1.3.4-.4 2 1.2 1 3 1 .9 1.5-2.3.1-1.7.4.7 2.6-1 1.6-2.2-.2-1.3-2.2-1.1-.8-2.2-.2-2.6-.7-1.8.2-1.8-.3-2.2 1-1.6-1.3-1.7.6-2.8-.7-2.5-.1-2.7-1.6-1.5 1.2-3.2-.3-2.7 3.2-1.8-1-1.7-1.8-1.8-.4-1.2.6-.3 5 .1 1.4 1.9 1.3 3.4 3.2 1.3 4 2.3 2.4 2.8 2.3 1.7 2 5 4.1 2.4 1.1.4 2.2 1.5 1.6 3 2.5-.3 1.6-3.5-2.8-2.6-1.5-3.1-2.8-3.8-1.1-2.7-1.2-3.3.6-1.8-.2-.7-2.2-5.8-3.9-4.3-4-.8-1.3 3.1-1.2-1.4-.8-3.9-3.4-1.2-1.6-.1-4.1-.8-1.7-2.9-2.2-1.1-1.1-2.1-.7-1.4.9-.3 1.9-3 5h-1.3l-3.1-4.2-.5-1.9-1.3-3.9.7-.5.5.6 3.3.8 1.4-1.3 1.1.5 3.6-.1.6-.3 1.2-2.2 2.6 2.1 1.5.7 1.3-.5 2 .7 1.6.2 1.2-.4-.8-2.3.7-.7-1-1.1 2.1-1 2.1-.6.4-1.1-.2-2.2-.9-.9.4-1.4 4.4-1.7.7-1h2v-1.7l.9-.8 2.5.6 2.9 1.2 1.7 1.2.9 1.3 2.7 1.8 2.2 2.2 1.3.7 2.5.6 1.3 1.3 3.3.9 4.9.2 2.5-.9 1.1-1.4z" class="map-item"/>
  <path id="HU" d="M525.35 436.85h1.5l1.4 2.3 2.2.8.9 1.1 2.3.4.9.7.7 1.7-2.2 2.3-4.6 1.1-1.9 2.4-1.2 1 .1 1.7-1.4 1.4-.7 2.5-1.4 1.5v1.2l-1.6 2.7.2 1.3-2.1 1.5-1.5 4.7-1.3.9-2.6-.3-2.5 2-1.4-.5-3.2.9-1-.5-2.8-.3-1.1.2-2.9-.4-1 .3-1.5 1.6-2.2 1-1.6-.5-2.1 1.3-2.9.4-1.1 1.4-2.5.9-4.9-.2-3.3-.9-1.3-1.3-2.5-.6-1.3-.7-2.2-2.2-2.7-1.8-.9-1.3-1.7-1.2-2.9-1.2-1.9-2.2-1.4-3.3-2.4-.1 1.8-1.7 2.5-.5.3-1.8-1.1-1.6.5-.7-.4-1.5 2.2-1.2.5-1.4-.5-1.1-2.6-.7 1.3-1.4 2.5.9 3.9-.3-.7-2 .6-1.9.6-.7 2.1.3 4.2 2.7 1.6.7 4.7.1 7-.4.6-1-.5-1.3.4-1 1.4-.7 4.3-.4 2.4-.6 1-1.5.7-.2 3.5 1.4 5-2.5 1.6-3.5 1.8-.4 2.7.1 2.5.6 4.6-.7 1.4.9 2.2 2.2.6.2z" class="map-item"/>
  <path id="IE" d="M183.65 351.05l.7 1.1-2.2.4 1.5 5.2.6.9v4.1l.9 3.2.1 2.5-1.3 1.8-.9 2.1-.2 1.8-1.6 2.1-1.5.9 1.6 1.5-2.8.8-2.6-.3-1.3.8-3.9.2-3.7.7-1.7 1.8-2.5.7-1 1-2.3.8-1.7-1.2-1 .2.2 2.1-2.9 1.3-1.8.3-1 .7-5.8 1.4-1.9-.5-3.3.8-1.2-.1 1.6-1.8 1.6-1.3-3.8.6-1.4.5-.6-.6 3.2-1.9-3.3.1-3-.4-.4-1 2.9-2.3 2.4-.9-.1-.9-5.1.1.5-1.1 1.7-1 1.8-.1 1.5.6 1.1-.8-.6-1.7 3.9-2.3 3-.3 3.3-.7 3.3-.8-2.4-1.2-2.3 1.8-2.6.3-1.9-.5h-2.1l2.7-2 1.6-1.7-.8-.7 2-2.3 3.6-1-1.6-1.3-3.9.2-1.4-1.3-2.6.1.4-1.2-3.5-.2.5-1-.6-1.1 2.8-.6-.2-2 1.9-.8 2-.4.1-1.1-2-.2-2 .4.8-2.1-.8-1-.4-1.7-.9-1 2.8-.2 1.2-.5 4.7.1 1.9 1.3 1.7-1.2 4.8.9.6-2.6 3.8-1.5 1.2-2-3.7.4-3.6-1 .7-.8 2.1-.7 1.9-1.6-.3-1.1 1.7-2.7 3.1-.8h2.4l1.6-.9 1.2 2-1 1 .6.9 1.2-.8-.5-2.1.9-1.3 1.9-.3.6-.8 3.2 1.7-2.5 1.5-.5.7-1.9.9-1 2.3-1.2 1.6-2.2.8-1.6-.1-.2.8 1 1.4-2.9.9-1 1.4 2.7 2 .2 1 2.1.4.8.7 2.9.3 2.4-1.8-.5-.9 1.9-1.6 1.3.5 1.8 2.7 1.4.5-.1 1.5h2.9z" class="map-item"/>
  <path id="IS" d="M94.65 176.95l1.2.1 2.8-.8 2.2-1.1.5 1.1-2.5 2.4 2.2.9 2 .3-.1 1.7-1.7 1.6.8.3 3.5-.5 1 2.3 1.5-.2 2.4.3 1.4 1.2 1.2-.3.5.9-.7 1.2-1.5.6 2.1 2.9v1.1l-1 .7h-1.3l-1 2.1-1.2 1.1-2 1-2.6-.5-1.1 1.5.2 1.4-1.3 1.3-5.3 2.1h-2.5l-2.6.5-6.2 2-4.7 2.8-2 .7-3.1.3-1.8.5-5.9.8-2 .5-1.2 1.1-.5 1.4-4 1.1-3.8.7-6.4-.5-5.4-1.3-4.5-.3-3.8-2.5-2.9-1-3.6-1.8-2.3 1.1-12.4.3-.8-.5-.2-2.1 1.1-.8 1.3 1.2 5-1.1 2.7-1.9 2.5-2.7-3.5 1.2-.2-1.9-.9-1.1-1.7-.8-.3-.8 1.1-.9-2.3-1.2-2.6.1-6.6-.5-3.8 1-2 .1-.9-1v-1.1l1.5-.3 1.8.1 4.1-.6 1.4-.6.8.5 3.6-1.1 1 .2 4-.2 4.4-.1 1.1-.8.4-1.1-2.8.9-3.7-.5-.6-.9 3.6-1.6 2.7-.8-.8-1.3-3.2.2-.7-.8-2.6-.4-1.8.3-.9-.5-2.4.6-5.2.9-3.3.9-3.1-1.1-2.4-.2 1.4-1.4 2-.1 1.7.8.1-3.2 1.2.3 2.8 1.1-.7-2.8 2.2.1-2.2-1.6.5-1 1.6-.3.8-1h2.4l2.3 1.1.2 1.4h2.1l1.1-.8.9.6.5 1.2h1.2l.4-2.2-3.6-1.1-.3-1.4 3.7-.1-1.7-1.1-3 .2-1.4-.4 2.6-1.2h3.4l1.4.2 2.3 1.7 2 .6 3.1 2.3 2.2.9v1.2l.7.8-2.3 3.4.9.7-.8 1.6 1.9.6 1 1.7.9-1.8 1.5-1.9 2.3-1.3.9.1.9 1 .9.1 1.4-2 .7-4.3 1.7-.9 1.8.7 1.3 1.6 2.6 2.1 1.8-.5.1-2.3 1-1.3 2-.3 2.2-.8 2.3-.2 1.7 1.4 1.2 1.4 1.7 1.1.7 1.8.9-.3-.2-1.7-1.4-2.6.3-.9 4.1.2 3 2.3 1.3-.3 3.6-2.8 2.3.8 1.8.1 2.8-.8.8-1.2-.9-2.3.6-.4 2.6-.6 2.7.1 2.6 2.1-.1 1z" class="map-item"/>
  <path id="IT" d="M456.95 594.65l-1.2 2.5-2.8 4.3-1.5 5.1.3 2 1.6 1.4-.7.5 1.6 1.8.1 1.3-1.8 1.9-.4 1.7.1 1.5-2.9-.6-1.4.3-3.7-1.4-1.9-2.8-3-2h-3l-1.4-.5-2.9-1.9-3-1.4-2.6-2.1-1.7-.4-1.5-1h-2.9l-2.3-1.6-1.3-2.3 1.3-3.7 1.4-.8.9-1.2 2.3 2.3 1.8-.8 1.4-1.6 2.4.1.5.9 1.4.3 2.5 1.6 1.4.4 3.4-1 3 .4 2.8-.5 1.7-.6 1.2-1 1.4-.3 3.5.3 2-1.2.8.2 2-1.2zm-78.3-41.5l.7.9 1.8 5-.6 1.6-1.3 2 .8 2.8-.6 11.5-.6 2.9-.9.4-2.9-1.2-1.5.3-1.2-.6-.3 3-1.8 2.1-3-.2-.7-.6-2.4-3.8-.4-4.3.6-1.3v-2.5l1.1-.1v-1.7l-1.8-1.2v-1.9l.7-1.4-.1-2.6-.8-.9-.8-2.3-2.2-2.4.1-3.4 3.4.6 1.3-.3 3.1-1.5 2.1-2.5 1.4-.5 1.5-1.8.7.9 2.2.8 1.2 1.5.9.5-.7 1.4zm8.3-30.8l.3 1.4-2.5.5-1.1-1.1 2.9-.2zm37.9-56.6l-.2.9-3.3 2.3.7 1.4 2.3.7-1.6 2.1.3 1 1.3.2-.4 2 1.9 1.1 1.5 1.3.2 1.3-1.5.1.7-.6-2-2.2-2 .9-3.2-.9-2.1 2-1.5.4-1.7 1.1-3.2 1.2-1.8-.4-1 .7-.4 3.1.8.6 1.5 2.6 1.7 1.1-.7 1.9-.9.7-1.3-.5-.3 1.7.9 4.5 1.4 3.2 1.2 1.3 2.7 2.2 2.7 1.1 5.1 3.7 2.8 1.1.7.7 1.8 2.8 1.6 3.2 1.8 5.1 1.3 2.5 2.3 2.9 4.8 4.1 4.3 2.9 4 1.9 3 .3 7-.4 2.6.7.4 1.2-.4.9-2.9 2.1v1.7l1.5 1.2 7.1 3.2 7.2 2.6 2.2 1.4 2.7 2.1 6.4 2.9 1.1 1.4 4 3 1.8 2.4.5 1.8-1.5 4.4-1.6-.5-1.9-1.3-3.1-5.4-5-.5-2.9-1.3-.7-1.4-2.3-.4-1.3.9-1.4 2-1.5 3-1.5 4.3v1.7l1.1 1.7 2.9 1 2.4 1.5 1.6 1.6.3 3.8.9 2.1-.9 1.3-1.9-.3-2.5.7-1.7 1.4-.7 1.4.5 3.4-.3 1.4-3.3 2.5-1.6 2.5-1 2.3h-4.3l-1.1-1.5-.1-2.2.6-1.3 1.6-.7.9-2.8-.5-2 1.1-1.6 2.8-.7v-2.9l-1.4-1.3-1.4-5.1-2.4-4.3-1.4-3.8-1.1-1.8-1.4-1-3.7-.3-4.6-2.6-.3-1.1.6-1.1-1.1-2.8-2-1.7-2.6.6-1.2-.1-.1-1.5-2-1.3-2.7-.2-.7-.7-2.6-4-1.7-1.7-2.3.1-3.9-.9-2 .7-3.2-2.6-2.8-.9-5.7-5.3-1.8-2-3.5-2.2-2.3-3.2-1.8-1.2-4-1.4-.3-1.3-3.1-3.1-1.7-1-1.3-2.1-2.5-.5.1-2.7-1.2-3.5-1.7-2.2-1.2-5.3-.8-1.5-1.8-1.1-4-1.2-5.7-3.4-1.1-.1-3.4-1.3-2.1-.2-2.6 1.2-3.1 3.2-2.5 3.4-.9.6-3.4 1.2-3 .5-.2-1.5 2.1-2.6-.3-2-3.3.6-5.1-2.4-.9-.9-.1-1.4-.7-1.3 1.4-2.5.8-.7-.5-1.7-3.2-1.4-1.5-3.1.8-.4 1.9.2 1.7-1.3 1.2-.3.8-2.5-1.8-1.6-1.7-2.6-.9-.6-.1-1.6 2.6-1.7 1.4.7 2.4-.5 2.6-1 3.1.8 2.4-1.4 1.6-2.2-.6-1.5 3.4-2.9 1 .6.2 2.5 2.4 2 2.2.6-.4 1.2 1.3 1.2.9 1.4 1.2-.7-.7-1.7.2-1 2.2-2.6.5-1.1v-2.9l2-.1.8 2.1 2 .8 2.9-1.1.7.1 1.4 1.9 1.2-.3-1.5-3.5.6-1.8 1.3-.3 1 .9 1.9.2-.5-1.8.5-3.1 3 .3.9.8 2.1.4 1.1-.4 1.2-2.2 1.4-.6 3.4-.3 3.1.2 4.7-1.5v2.3l3.1 3.5 1.1.5 8.6 1.5 4 .3z" class="map-item"/>
  <path id="LI" d="M373.75 457.55l-1.2-.1-.1-1.7.5-1.5 1.1 2.5z" class="map-item"/>
  <path id="LT" d="M562.25 327.55v1.8l-.7 3.1 3.9 1-1.3 1-.4 1.1-3.6-.1-1 2-.8.6-2.6.6-1.1 3 .4 2.3-1 1.5-.5 2 1.9.5.9 1.1v1l-2 .2-1.7-2.3-1 .7-2.1.5-1.4 1.2-2-.2-.8 2.6-1.8-.1-3.3 1.3-1.6-.9-3.7.3-1.6.3-2.9-.4-.8-3-1.1-.9-4.5-2.2-2.3-.7-.6.6-1.3-2v-2.1l1-3.1-1.3-1.3-1.4-.6-.9-1.3-5.7-.1-2.4-.6-3.9-1.4-2-1.2-1.8.2-.6-1.2.2-1.6-1.1-2.4-1.6-2.9-.7-3.8 2.8-1.7 3.6-1.9 4.7-1.4 5.9.5 4.3-.1 1 .9 1.6-.7 4.9.5 2.3.1 3.7.9 4.6-.4 1.7-1.3 2.3-.2 2.4 2.9 6.1 1 .9.4 5.4 3.1 2.6 2.1 1.5.7z" class="map-item"/>
  <path id="LU" d="M329.75 410.75l.3 2.2 1.5 1.6 2.8 1.1v1.4l-.9.9-.6 3-1.3-.7-2 .6h-1.4l-2.1-1.2 1.1-1.7-2-2.4.2-1.7 1.4-2.5 1.3-1.3z" class="map-item"/>
  <path id="LV" d="M565.95 300.25l1.9.3.5 1.1 3.2 1.7.7 2.2-.8 1.6-.3 3.1 1.8-.3 1 .6.3 1.2 1.7 2.1 1.3.8 1.9 4.2-.3 1.7-1.3.2-1.4.8-2.5 2.4-.4 1.7-3.1-.1-3-.4-1.1.3-1.2 1.5-2.6.6-2.3-.5-1.5-.7-2.6-2.1-5.4-3.1-.9-.4-6.1-1-2.4-2.9-2.3.2-1.7 1.3-4.6.4-3.7-.9-2.3-.1-4.9-.5-1.6.7-1-.9-4.3.1-5.9-.5-4.7 1.4-3.6 1.9-2.8 1.7-.8-2.8-.6-5.5.1-2.8 1.9-1.6.8-1.2.6-4.5 2.5-3.6 2.4-.4 3.1-1 3.5-.9 1.4 1.9 4.9 3 1.2 1 2.3 3.4 4.4 1.8 3.1-.6 3.6-2.4 1-1.1v-1.1l-1.2-4.7-1.1-2 .1-1.3 8.4-2.8 1.5 1 1.1-.7 5.6 2.5 2.3.5.6.7 3.5 2.7 2.8 1.1 4-1.2 3.4 1z" class="map-item"/>
  <path id="MD" d="M605.75 482.25l-2-2.3.9-.7-1.4-5-.1-2.6.9-4.8-.5-2.9-1.4-2.3-1.4-2.9-3-2.1-1.3-1.7-2.1-1.8-2.5-3.2-1.5-1.3-3-4.9-2.5-3-2.5-1.6h-2.1l.2-.6 2.3-1.4.7.2 4 .1 1.2-1 .8.3 1.6-1 3.5 1 3.6 2.4 2.5.3.6 1.2 5.6.6 1.4 1.9 1.4 1 1.4-.7 1.4 1.4.6 2.3-.6 3.1.6 1.2 2.3 1.2 2.9 2v2.4l.9 1.9 2 1.3 2.1.8 1 1.6.2 2.9 2.9 1.7-.6.7-2.9.4-1.2-1.3-1.6.6-2.1-.8-1.9-.2-2.1-1-2.5 1.6.5 2.1 1 1.7-.4 2-2.3 1.7v1.3l-2.5 2.9.5 1.4-.4 1-2 .2z" class="map-item"/>
  <path id="MK" d="M538.15 530.85l3.3 3.2 3.4 1.8 1.7 3.3.9 1-.5 1.7v4.2l-2 .3-.2 2.1-2.9 1-3.3-.6-3 .4-.8.3-1.7 2.5-2.4 1.3-2.3-.6-.9.6-4.6.3-1.3-1.1-1.6.2-1.3-2.4-1.2-1.1-1.2-2.2-.2-1.9-.7-2 .8-.8-.3-2.1.5-2.6 1.7.3.5-.8.2-2.6 3.4-1.5 1-.1 1.6 1.2 1.5-1.9 2.1-.4 2.2-.3 2-.9 1.9.3 2.3-.8z" class="map-item"/>
  <path id="ME" d="M496.75 511.95l.4 1.2 2.6 1.7 1.9 2 3 1.6 2.1.5 5.3 2.9.1 1-1.6.4-.2.7-2 .4.9 1.5-.2 1.3-3.4 1.2-.8-2.1-1.1-.3-3.2 5.3-.8.3-2.5-.2 1.6 1.9 1.7.8.3.6v3.1l-2.1-1.2-.9-1.8-3.1-2.9-3.5-2 .1-1-1.6.1-1.2-1.9 1.1-1 .1-.8-1.1-1.6-.6-3 .5-.7 1.7-.2-.1-1.5.5-1.7 2-1.7 2.3-.2-1.4-2.2z" class="map-item"/>
  <path id="NO" d="M312.35 259.95l.1 1.7-1-.1-.7-1.1-.2-2 .7-.5zm-1.8-11.1h-1.8l.3-1.3.9-.3zm32.5-31.9l-2.3-.2-1-.8 2.8-.8.7.5zm3.6-4.6l-.3-.9 2.7-.6.9 1zm28-16.6l-4.2.3-.3-1.1 2.1-.8h1.2zm6.8-10.5l-2 .3.1-1.1 1.8-.3zm4.1-5.7l-.1-1.1 1-1.2 1 .4-.3 1.5zm3.1-24.9l-1.5.7 1.1-2.6 1.1-.7.4 1.5zm8.5-5.2l2.3.2-.5.8-1.4.3-1.1.8-1.9.2-1.9 1-1.6.3-.4-1.2.9-1h1.3l1-1.2zm12.4-9l2.2 2.1-.3 1.5-1.2.7-3.3.1-1.6-.9-2.2.6-1.6-1.1 1.6-1.4 2.6.4.5-1.7 1.7.3.4-1.5zm6.3 5l1.3-1.1 1.5-.4.6-2.2 1.8-.5 1.6 1 .9 1.2-.2 1.1-3.1 1.2-2.5 2-1.6-.2-.7.7-2.4.6-1.7-.9-.9.9-1.4.4-1.2-.4-2.9 1.5-2.8.3-1-1.1 3.1-1.9 5.1-.6 2.9-2.3.4-2.5.6-.9-1.3-.6.2-1.7 2.4-1.7 1.3-1.4 1.5-.3.9 1.1-1.1 1.4-1.6 1.2 1.1 1.5.6 2.4zm15.5-13.7l1.4.8 1.5-.3 2.3.7 1 1.5-1.2.9.4 1.7-3.8.5-.9-.5-1.5.9-1.4 1.4-2.2-.6.2-1.6-.3-2.3.7-.5 2.9.3-.4-2zm124-2.6l-1.8.4.2-1.8zm-92.4-3.8l-1.3.4-1.8-.3-.7-1 2.2-1 1.7.3zm-15.1.3l1 .7 1.5-.5 1.1 1-1.4.8-.8 1.2-2 .1-2.9 2.3-.1.8-5 .5-1.5-.3 1.7-2.7h1.7l1.7-.8-.3-.8 2.5-2 .6-1.7 1.4-1zm4.8-2l1.4.2 1.3 1.6h-2.3l-2-1.8zm37.3-4.3l.5 1.1-3.3 2.1-1.6.1-2.1-1.2.1-.8 1.9-.9.9.1 2.7-1.4zm3.9-.3l-1.8.5-1.7-.9-.2-1.6.8-.3 3.2 1.2zm-6.4-3.2l-.4.8-2.7 2.1-2.2.7-1.8-.3-.8.6h-2l-2-.6-2-1.2 3.5-.1.6-.5h1.5l2.8-.4 1.1.3 2.1-1.4zm60.6 23.5l-1.7-1.3v-.7l3.2-2.9.7-1-2.6-2.7-3.6-.8-4.2-1.1-4.2-2-1.8-1.2-2.9.3-3.5 1.6-.9.2-3.8-.4-2.1.2-1.7 1.8-2.6 1.7-.7 3.8-.6 1.7.7 3.2-1.5 1.4-2.1.3-1.6 1.3-.5 1.7-1.3.6-2.6-.8-3.9-.8-3.6-1.1-1.5-.1-1.2 1.2-3.7.9-1.8.1-.8-.5-6.9-.6-1.4-1.8-7.9-5.5h-3.6l-1.9 1.1 1 1.4-.5.6-1.9-.4h-2.1l-.5.4-5.1.2 2.6 1.6.1 2-1.4 1.9-1.6.9 2.9.9-2.5 1.6-1-.1-8.6-1.7-2.9-.1-4.1-.9-2.1.5v.8l.8 3.6-2.1 3.1-6.3-1.8-1.5.9-3.7 1.9-1.5 3.5-1.1 1.1-2.7.6-.5 1.1 2.7 2.3 1 1.3-.2 1.4-1.5 1-3.3 2.9-3 2.9-1.3.9 1 2.5-3.3 1.5-2.4.5-3.8.4 1.4 3.9-.6 2.7-.1 4.7-3.3 5-4.4 5 4.7 1.6 1.1 2.9.1 1.2-1.7 2.2-7.1-.9-3.3.4-3.3 1.5-3.5 3.8-1.2 1 .5 1.5-2 2.8 2.7 4.1-1.1 1.1.6 2.8-.1 1.8 2.5 4.4v1.6l-.9 6.4 3.8 2.1 1.2.4 3.4 2.7-.4 1.9-1.3 2.5h-2.4l-1.8.6.3 1.6 3.1 4.9.5 1.4-.6 2.1-.1 2.8-1.9 2-1.3.8-2.6.7-.9 2.4-1.5 1.5 1.6 4.4-.6 3.9-.7 1.4-1.9.2-1-1.8-.4-1-6-1.2-2.3-2.9-.4-3.1-2.5 1.2.6 1.1v2.3l-2.5 3.9-1.1-.2-1.3.8-1.3.2-.6-1-1.1.2-.8 1-3.4 1.3 1 .7-1.7 1-.6.9-2.7 1.5-4.3 3.9-2.3 1.1-1.6 1.2h-1.4l-1.8.9-4.6.9-3.1-.4-2.1.4-1.1-.7v-1.1l-1.2-.1-.8 1.2-1.6-.4.7-2.4-3.1-.1-3.8-1.6-.9-.8-3.1-1.3-1.4-1.4-.8-1.6.3-3.6.6-.5 2.7.8 2.8 1.3-.1-1.2-2.4-1.6.8-1.8-.2-1.6 2.6-2.1-.4-.7-3.4 2-3.1.9-1.1 1.2-1.1.6h-2.1l-.5-.9.5-3.3 1.2-2.7 1.8-1 3.4.7 1-1 1.3-.2 2.4-1.2-4.1.5-1.2-1 2.8-2.4 1.2-1.4.3-1.5 2.2-1.7 1.8-.8 1.6.6 1.5-1.9-5 1.1-2 1.1-2.7 2.8-.2 1.1-2 .9-1.5 1.5-.6 1.2-2.8 1.9-1.4.3v-2.4l1.1-2-.3-1.6 3.2.2 1.8-1.2h-2.7l-1.4-.7-1.2-1.5-.6-1.9 1.1-1.8-2.2-2-.5-2.2-.1-2.5.9-.5 2.1.4 2.4-.2 5.2-.9 3.4.6 1.4-.1 2-.7 1.9-.1 2.2 1.2.7-.5 5.4-1.2-3-1.5.1 1.4-3.6.3-3.2-.6-1.3-.6-.5 1.3-1.1.3-3.4-.5-4.7.3-2.1.7-1.4-.1-2.5-1.2-.9-.9-.3-2.6 2.8-.3-1.9-2.3-1.9-1.3-.2-1.4.7-1.3 1.5.2 3.8-.1 6 1.5 4.9-.3-.8-.6h-2.9l-7.2-1.3-2.2.1-1.2-.3-.7-1 .4-1.9 1.1-.4 1.2.6 1.9-2.3 1.9-1 2-.5 2 1 1.3-.1 4-.8-1.3-.5-3.5.5-.2-.5 2.4-2.3 4.2-.4 5.9.5 2.3.8.4-1.8 5.3-1.4-6.8.8-1.8-.5-4.9.7-.1-1.3 2.3-2.3 4.1-.9 1.9-1.1 3.1-.2 2.6.3 1.2 1.3 4.4 1.7-5.1-4 1.1-1.7 3.3-.4v-1.6l-2.2-.3v-1.2l1.9-.9 2.8-.7 3.2.8-.6 1.3.9.5 1.7-1.5 3.9-.8 2.8 2.1.5 1.1 1.1-.5 2.7-.5 2.7.3 1.8-.2-1-1.3.4-1 2.4-1 1.7-.3 2.6-1.2-.8-1-1.4-.3 2.9-1.5-1.7-.6-2.4.9-1.6.9 1.5 1-1.1 1.1-6.1 2.8-3 .8-1.4-.1-1.9-2.5-2.1-.1 1.3-2.2 1.6-.8 1.4-2.3 2.3-1.3 3.2-3.3 2.8-1.1.9-1.1 3-1.5 3-.9.3-1-2.7.9.4-2.1 1.4-1 6.8-2.8 1.6 1.3 2.1-.2 2.3-1.6-.3-.7-2.1 1h-1.5l-.4-.6-2.1-.5-.3-1.2 1.3-2.8 3.4-3.3.5-1.3 1.3-.7 1.7.2-.2-1.1-2.1-1.1 6.2-1.1h3l2.4-.9.5-1-6.4 1.1-2.4.1-.8-2.7.2-1.5 1.9-2.2 1.4-.2 1.7-1.1.1-1.5 2.3-.8 2.1-2.1 2.3-.5 1.4.2 3-.7 6.6-.1.1-.6-6.3-.3-3.5.2-.4-.6 2.8-2.7 2-1 1.7.2 1.8 1 .6-.8-1.6-1.5.7-1.5-2.6 1.1-1.8.3-.9-2 2.3-2h2.3l.3-1.5 3.3-1.3 1.9-.2 1.5-.6.6.4.9 2.3 1.5.3 1-.8-1.3-1.1-1.1-1.8 2-1.5 2.3-.2 2.6.7 2.3-.2.9-1.2-6.3-.1-.8-.9 1.2-1.2 2.2-.8 2.5-.1 2.4-1.4.9-1.1.3-1.6 1.4-1.3 3.9-.8-.6-2.2.8-1.4 1-.6 2.1 1.5 1.8.5-.5-1.4.3-1.2h2.1l1-.5.3-1.3 1.4-1.2 4.7-.7.5 2.5.7 1.4.8-2.8 1.6-2.1 2.4-.9.9 1.1-.4 4.3-1.9 2.4 1.5-.2 2.5-2.3.6-1.2-.7-2.8.6-.8 3.5-.1 1.9.4.7-1.5 1.7-.1 1.8.9 4.1 1.4-1.3-2.2-1-.8-2.1-.5-2.2-1 1.2-1 2.4.3 2-.8 2.2-.2 1.1.6.8-1 2.5-.5 2.8.9 1.6 2.7 2.4 1.4-.1-1.4.6-1.9 2.3-2 2.1-1 1.4-.1 2.9-3.4-1.6-1 3.3-2.3 1.1-.1 5.4 2.1 1.5-.9 3.4.8-.8 1-3.1 2.9-.5.8-.1 2.2-1.2 1.4.8 1.4 1.6-.4 1.8-1.3.1-1.3 4.3-3.7 1.9-2.1 2.3-1.7 1.5-.3.9 1.1-.2 1.5.2 4.3 3.7-1.4 1.1-3 1.1-.7-.8-1.4.4-1.1 2.3-1.3 2.2.4 3.3.3 2.7.8.2 1.4-.8.9-2.9 1.1.7.7 2-.6.9 5.5.9-2.1 1-.7.1-1.5.8-1.9 1.8-1.3h2.7l3.3 1.7 2.5.3 1.8.8 2.4-.7 2 1 .1 1 3.8.3 3.8 1.6.6 1.6-4.4 1-1.8 1-3.3.4-11.5-.7.4.7 8.3 1.5.6.5.4 2.1 1.8.7 3.5-.2v-1.3l3.2.6 3.8.2 1.1 1.7-.3 1.5-2.4.1-4.2-1.4-.4 2.3-1.1.9-5.8 1.3-1.1 2.6zm-40.5-27.7l3.7.5 2.2 1.4-3.6.5-1.7-.1-2-1.8zm-339.6 3.9l-.1-1 4.5-1.5 1.9-1.4 3.4-.5-.2 1.8-3 .8-3.3.5zm269.2-45l-1 .5-1.9-.8-.8-1.2 3-.1zm9.6-50.1l3.9.2 2 1.9 1.4 2 1.3.2 4.7-.4 3.4.7-1.4 1.1v1.2l5.5 1.3 1.8.1 3-.4 6.5 1.7-6.6 1.1-2 1.9-3.7 1.3h-2.6l-2.3 1.3-2.2.1-1.5-1.9 2.2-1.3-3.1-.4-1.2.5-10.5 1-1.1-.2-.9-1.2 2.8-.6.2-1.1 2.5-2.4-5.5-1.6-2-1.2-.8-1-2.5-.9v-1l-1.7.1-.4-1.2zm46.2-.6h-1.3l-2.6-.8.7-1zm-137.6.4l3.5 1.5 1.9.5 2.3 1.5-.7.9-2-1.2-3.6-1.3-2.3-.2-3.3-2.5-1.5-.8-.8-1.7 3.6.7 1.6 1-.3.8zm155.6-3.4l2.7.1-.1.6-7.3-.4-3.8.7.4-.9 2.4-.6 3.7-.1zm-109.9-10.8l1.4-.6 5.4.8 2.5.9 1.3 1-1.9 1.9 1.7 1 3.2-1.7 2.7.3 1.7.9 1 1.1-.2 1.4 3.1 1.1 3.4-.2 2.4.3 1.5 1 1.9-.2.2-.8 2.6.2 3 .8-2.1.9 2.1.8 3.4.6 2.1.6-1.5 1.4h-3.2l-2.9.3-5.4.3-3 1.6-2.5 1.8-.4 1.6.6 1.1-1.5.5-3.3.2.2 3.9-.8 1.9-3.3.3-1.8 1.1-1.2 2.1-2.1 2 1 1-2.1 1.9 1.2 1.8-1 .6-2.1.3-2.2-.3-2.3-1.1-6.7-2.2-4.3-2.4-6-1.3-3.3-1.6-1.5-1.3.3-1.4 2.8-.2 2.9.7 1.7-1.9 11.3-1.1 7.3-.2-1.9-1.3-6.9.7-4.3-.2-2.1.1-2.1.6-4.3.5-4.6-.1-2.9-1-1.3-2 1.2-.6 3.8.1 6.4-.9 3-.8 3.1-.1-.5-.8 1.8-.4 2.4-.2 5.6.1.2-.6-2.6-.6-.9-.6 2.6-1.8-2.2.1-3 1.3-1.8.5-4.6.3-1.7-1.6.9-1.2-.8-.7-1.3 1.3-2.1.3-2-.9-1.9.5.7 1-.6 1 2 .9-2.3.6-2.1 1.1-3.9.2-4.5.1-4.6-1.6-2.2-1.2-1.8-1.2-2.7-.6-1.7-.8-.4-1.1-1.4-.7-.7-1.2h4.4l-1.7-1.8.5-1.6-3.4.1.4.9-2.2 1-1.2-.2-2.3-1.9-2.4-2.4.4-1.3-1.2-1 1.5-.7 2.5.9.8-.7 3.8-.4 4.6 1.1.4-1.1 4.2.5 3-.6 5-.3 2 .4-1 1.1-6.3.3-4 1.3 5.7-.2 1 .1.6 1.1 3 .5 2.3 1 .8-.5-.6-2.2 4.4-2.3 2.1.4 2.1.9 4 3 2.3 1.9 6.1 2.8-.7-1.5-4.2-4.5-.9-1.7.9-1.7 1.1-.5-.4-1.3 1.3-.5 2.4.3zm134.7-2.3l-8 .4-.9-.3 15.7-1.4 1.7.5zm-118.9-1.9l-1.8.6-3.2-.5.9-.7zm18.6.5l5.6.1 1.5.9 5.5 1.1.8-1.5-.6-2.2 1.9-.1 1.7-.6 3.1.3.2 1.3-.5 1.4 2.1.1 2.8-.3 1.9-1.1 2.4.1 1.3-.6 1.4.6 8.2.7 3.3.6h5.2l3.7.2 2.8 1 1.1 1.7-.9.4-6.7 2-1.6.7-2.4 2.3-4.1.7-3.5-.3-3 .7-1.9 1-1.5.2-9.2-.4-2.2-1.1 1.2-.9-8.2.3-9.2-.1-1-.5-5.6-.5-4.2-1.1 1.1-.5h5.8l-.7-1.5-2.9-.1-1.8.4-4.3.2-4-.1-1.9-.3-3.8-1-.7-.8 2.8-.4 2.1-.7-4.5-.3-1.9-.3-.6-.9 5.9-.2 5 .8-.7-2.2 3.9 1.1.2-1.1-2-1.4 2-.1 4.5.7z" class="map-item"/>
  <path id="PL" d="M521.15 347.05l.6-.6 2.3.7 4.5 2.2 1.1.9.8 3 2.1 5.1 2.9 4.9 1.7 3.6.9 3.9-.6 1.6-4 1.7-.8.5-2 2.7v1.2l3.3 1.3 1.8 1 .8 1-.2 2.4.4 1.1-.8 1.5.1 1.3 1 1.6 1.2 1.8v1.3l2.7 2.8 1.9 2.8 1.4 1-1.2 1.3 1.8 2.6.1 1.3-1.2 1.8-3 .5-4.8 4.6-2.4 2.7-3.4 4.4-.6 1 1.5 3.8-.1 1.8 1.9 1.4-.4.9-3.3-.7-.9-.2-5.7-1.9-.8-1.4-1-.7-3.1-1-3.6-.3-3.2.2-1.4 1.5-1.8-.1-2.4-1-3 .1-2.3 1-1.1 2.1-1.7-.6-1.4.4-.6-2.7-1.4-.4-3-3-2.2 1.3-1 1.7h-2.2l-.5-1.5-1.3-.2-.5-1.6-2.8-2.2-.5-1.8-2.7-.8-.5.2-3.5-1.8-1.8 1-1-.6-2.7-2.3 1.4-.5v-1.6l-3.6.7-3.3-1.9-2.2-.6h-1.3l1.7 2.4-3.5 2.5-1-.4-1.5-1.9-2-1.8-1.6-.9 1.6-1.2.7-1.1-1.8-1.2-3.2.7-.8-.9-2.7-1.1-4.6-1.1-1-1.1-.3-1.1-3.3-.8.1 1.9-2.1.4 1.6-3.6.4-2.3-1.6-3.2-2.2-.9v-1.6l-1.9-3.1.8-1.1.7-2.6-.8-1.9-2-2.3.6-2.6-1.4-1.7-3.3-2.1-1.6-1.4.7-1.6 1.9-1.8.3-2.7-1.8-4.1-.7-2.6 2.8.9.7-.5-.1-1.8-4.1-.7-.1-1.2 2 .4 3.8-1.4 6.5-1.8 6.9-1.7 3.3-.5 2-2.2 1.9-1.7 3.8-.7 1.3-.8 2.8-1.2 6.6-1.2 5.5-.4 5.4 2.3-.9.3-3-1.2 2.2 3.5 1.1 1.2 2 .9 1.7.3 4.9-.5 2.2-1.1.5.1 6.6.4 22.9.9z" class="map-item"/>
  <path id="PT" d="M160.35 610.95l-1.2.2-4.5 2.5h-1.3l-2.5-1.1-4.5-.4-1.5-.3-1.8.7h-1.5l-1.1 1-.8-.3 1-2.1 1.6-4.1v-2.6l.4-2.2-.3-2.1-.7-1.4 1.1-3.5v-1.8l-.9-2.3 2.8.3-1.7-1.4h-1.5l-2.3.9-1.5.1.1-1.4-.5-1.8 2-.6 1.6-1.7-.3-1.6-1.2 1.1-.6 1.4-2.8.7-1.5-.5v-1.9l.6-1.7.4-2.3.8-2.2-.2-1.4 1.6-1.3 1.4-1.9 4.3-8.9-.6-1 1.7-6.6 1.2-2.3.6-4.3-.2-2-.7-2-.7-4.3v-1.4l-.9-1.8.1-1 1.4-1.7 1.2-1.1 1.9-.9 4.1-1 1 1.8-1.3 1.9.9 1.3 3-1.1 2.9-.1 2.2.8h1.4l2.5-.9.8-1.4 1.5.5 5.2.1.7 1.1.1 3.1 1.9.2 1.9.9.3 1.1-2.5 2.5-2.1 1.1-1.6 1.4-1.1 1.6-2 1.6.8 2 .4 3.5-.4 3.8.4 1.1-2.7 2.1-.2 1 1.4 1.3v1.9l-1.7 3.5-1 .5h-4.3l-1.1.3 1.1 1.9 1.4 1.2.3 1.9 1.6 3.2 1.7.4.5.8-.6 2.4-3.2 3-.9 4 3 4.3 1.7-.2-.7 2.4-2.1.6-3.5 4.3-.8 2.2z" class="map-item"/>
  <path id="RO" d="M605.75 482.25l1.5 1.6 1.8.9 4 .9.6-1.2.9.3 1.6-.5 2.2-1.3 2.2-.2 2.2.7 1.9 1.8-.2 4.3-.7 2.1-6.2 1.3.4-.6-.7-2-1-1-.9 1.1.6 1.7-.7 1.4-.2 2.4.6.9-1.6 2-.5 1.3.8 4.8-.4 3.7h-2l-2.6-.5-2.2-.7-2.5-2.6-1.7.5-.9-.6-3.2-.4-4.5-2.3-2.9.4-4.4.9-3.2 1.2-3.3 2.1-1.2 1.6-1.6.9-2.3.6-4.2-.2-9.4-1.7-2.5.5-3.5-.4-5.3-1-3.9-.3-3.7.6-.9-1.8 1.8-2-4.3-2.5-.8-1.2-1.6-.9-.5-1.7 2.5-1.8-3-1.6-1.7.5-1.7 1.8-1.3.2-1-1.2-1.5-.7-3.5-.7-1.5-1.2-2.1-.6.2-.6 1.8-.8-2.3-1.1 1.5-2-.9-1.1-2.6-.8-3.8-1.9-2.2-1.8-.4-4.1-.8.2-1.8-2-2.9-1.7-1.7-2 3.2-.9 1.4.5 2.5-2 2.6.3 1.3-.9 1.5-4.7 2.1-1.5-.2-1.3 1.6-2.7v-1.2l1.4-1.5.7-2.5 1.4-1.4-.1-1.7 1.2-1 1.9-2.4 4.6-1.1 2.2-2.3 2.1-.9.9-1.2h.7l2.7 1.5 2.7-.1 6.9 1.4 3.6-.7 1.2.3 4.3 3.3 2.1-.5 1-1.2 3.4-1.3 8.4-1.2 1.1-1.9.2-1.4 3.7-.8h2.1l2.5 1.6 2.5 3 3 4.9 1.5 1.3 2.5 3.2 2.1 1.8 1.3 1.7 3 2.1 1.4 2.9 1.4 2.3.5 2.9-.9 4.8.1 2.6 1.4 5-.9.7z" class="map-item"/>
  <path id="RS" d="M505.95 472.15l1.7 2 2.9 1.7 1.8 2 .8-.2.4 4.1 2.2 1.8 3.8 1.9 2.6.8.9 1.1-1.5 2 2.3 1.1-1.8.8-.2.6 2.1.6 1.5 1.2 3.5.7 1.5.7 1 1.2 1.3-.2 1.7-1.8 1.7-.5 3 1.6-2.5 1.8.5 1.7 1.6.9.8 1.2-.9.7-.2 1.9-2.1 1-.4 2.3.6 2.4 2.4 3.9 2.9 1.5 1.3 1.6 1.6 1-.3 1.4-1.6 1.7-1.1 1.6-1.8.1-1.1.6v3.3l1.4 2.9-1.1 1.7-1 .3-1.4-.7-2.3.8-1.9-.3-2 .9-2.2.3-.6-1.3 1-.9 1.2-3.2.2-1.2-4.7-1.2v-1.3l-2.2-1.2-.2-.7-2.3-2.1-2.8-1.3-1.1-1.3-1.7.9.6 1.6-.4 1-1.7 1.3v1.4l-1.5.5-.1-1-5.3-2.9-2.1-.5-3-1.6-1.9-2-2.6-1.7-.4-1.2.7-.8 2.5.3.2-2.2-3.2-3.7.5-.8 3.1.1.3-.8-3.3-2.9-2.4-1.2-.5-.8.1-2.6 1.6-2.7.5-2.5-1.5-.8-2.8.7 1-1.6-.7-2.6 1.7-.4 2.3-.1-.9-1.5-3-1-1.2-1 .4-2-1.3-.4-.2-1.6-1.6-2.7.7-1.5 2.1-1.3 1.6.5 2.2-1 1.5-1.6 1-.3 2.9.4 1.1-.2 2.8.3z" class="map-item"/>
  <path id="SK" d="M529.15 426.75l-1.5 3-.8 2.9-1.6 1.7.1 2.5-4.3 1.1-.6-.2-2.2-2.2-1.4-.9-4.6.7-2.5-.6-2.7-.1-1.8.4-1.6 3.5-5 2.5-3.5-1.4-.7.2-1 1.5-2.4.6-4.3.4-1.4.7-.4 1 .5 1.3-.6 1-7 .4-4.7-.1-1.6-.7-4.2-2.7-2.1-.3-2.3-2.9-1.6-2.9-.1-.8.9-2.4 1.1-2.8 1.4-1.2 3.6.5 1.7-.2 1.5-.7 2.1-1.9 1.6-.8.7-3 2.3-1.2.6-.8 2-1.5 2.8-.3 1.3.2.5 1.5h2.2l1-1.7 2.2-1.3 3 3 1.4.4.6 2.7 1.4-.4 1.7.6 1.1-2.1 2.3-1 3-.1 2.4 1 1.8.1 1.4-1.5 3.2-.2 3.6.3 3.1 1 1 .7.8 1.4 5.7 1.9z" class="map-item"/>
  <path id="SI" d="M459.55 466.15l-2.5-.6-.9.8v1.7h-2l-.7 1-4.4 1.7-.4 1.4.9.9.2 2.2-.4 1.1-2.1.6-2.1 1 1 1.1-.7.7.8 2.3-1.2.4-1.6-.2-2-.7-1.3.5-1.5-.7-2.6-2.1-1.2 2.2-.6.3-3.6.1-1.1-.5-1.4 1.3-3.3-.8-.5-.6 1.7-1.1 1.5-.1-.2-1.3-1.5-1.3-1.9-1.1.4-2-1.3-.2-.3-1 1.6-2.1-2.3-.7-.7-1.4 3.3-2.3.2-.9 5 .9 5 .7 3-1.2 1-1.3 1.9-.7 2.6-.2 2.8.2 2.3-1.1 1.6-.2 2.4.5.1-1.9 1.3-.9 2.4.1 1.4 3.3z" class="map-item"/>
  <path id="SE" d="M445.45 318.45l-1.5-.3-.3-3.8 2-4.6 1-.3 2.7-6.5.5 2-1.5 3.2-.3 2.2-.6.5zm26.2-22.7l-1.3 1.4-1.4.5.1 3.3 1.5 1.2-1.3.5-.7 1.8-1.8.6-1.5 1.6-.3 1.6-2.1.9 1.2-2.4-.9-.7-1.4-2.1.4-.9-.6-3.2 2.7-2.9 1.3-1.1 3.3-1h1.3zm36.8-113l-2.7.3-2.2-.6-1 .3-3.8.3-1.1.7-2.1-.7-2-1.2-2 1.1-1.6-1-1 1.9.1 1.8-1.8-.2.3 1.1-2 1.5-3.2.2.7 1.5-.9.7 1 1.7-1.3 1.5-2.1 1.9-.5 1 1.7 1.1 1.6 2.5 1.6 1.1-.4 1.2-2.1 1.1-2.2 1.7-2 4.3-3.1 1.3-2.4 1.6-3 .7-2.4 2.2-1.8-.8-1.5.5-1 1.8-1.9 1.5-2.4-.2.2.8-2.3.3-1 4-2.2.6-.7.8-.9-.6-2.1.1 1.6 2.8-1.7 1.8h-1.2l-1.5.7-1.9-.8-.2 1.2.8 1.3 1.3 1-.1 1.3-.9 4.3.7 1.8-2.1 1.2-.8 1.1.6 1.7-.1 1.1.7 1.9.8 4.2 1.1 2-.1 1.6 1.3.9 2.1-.1 1.4 1.6 3.1-.8.8 1.1 2.9 2.2 1.7.3 1.9 1.2v1.5l2.9 1 1.9 2 .8 1.6-.1 1-2.6 1.5-1.3 1.3-3.8 2.1-.6-.1-2.1 1 2 .6 1.4-.7 2.6-.6 1.4 1.2-2.2.5-.3 1.6-.8 1-2 .7-2.8 1.5-4 1.4-1.1 1.2-2.6 1-1.3.8h-3.8l-3.7-.1 1 .9.9-.2 3.6.4 1.7 1.3-3 .9 1.7 3.2-.7.8.4 3.5-1.1.1-.3 1.4.6 2.5 1 2.1-.1 1-1.5 2.4.9 2.9-1.5 5.3-1.9 3.1-1.3 4.1-1.8 1.4-2.4-.9-3.4.5-3.2-.3-3 .2-.8.4.7 1.4-2.3-.2-1.7 1.1-2 2.1v1.5l1.9 3-1.7 2h-1.1l-3.2-.5-5.5 1.2-5.1-1 .5-1 .2-3.1-.6-1.7-1.3-1.1-3.1-3.8-1.2-2.3 2.4.9 1-.5-1.8-2.6 2.2-.1.7-1-.6-1.5-1.9-.6-1.9-2.4-1.8-1.2-3.5-4.7-1.3-3.2-1.1.3-1.2-3.7-1.7-.6-.6-3.7-1.8-.4-1.3-1.7-.4-3.2-1.2-.6-.8-1.4-.8-3-.3-2.7-.9-1.8.5-1.2 1.1-.2 1.1.8 1 1.8 1.9-.2.7-1.4.6-3.9-1.6-4.4 1.5-1.5.9-2.4 2.6-.7 1.3-.8 1.9-2 .1-2.8.6-2.1-.5-1.4-3.1-4.9-.3-1.6 1.8-.6h2.4l1.3-2.5.4-1.9-3.4-2.7-1.2-.4-3.8-2.1.9-6.4v-1.6l-2.5-4.4.1-1.8-.6-2.8 1.1-1.1-2.7-4.1 2-2.8-.5-1.5 1.2-1 3.5-3.8 3.3-1.5 3.3-.4 7.1.9 1.7-2.2-.1-1.2-1.1-2.9-4.7-1.6 4.4-5 3.3-5 .1-4.7.6-2.7-1.4-3.9 3.8-.4 2.4-.5 3.3-1.5-1-2.5 1.3-.9 3-2.9 3.3-2.9 1.5-1 .2-1.4-1-1.3-2.7-2.3.5-1.1 2.7-.6 1.1-1.1 1.5-3.5 3.7-1.9 1.5-.9 6.3 1.8 2.1-3.1-.8-3.6v-.8l2.1-.5 4.1.9 2.9.1 8.6 1.7 1 .1 2.5-1.6-2.9-.9 1.6-.9 1.4-1.9-.1-2-2.6-1.6 5.1-.2 2.9.8.4.9 2.9 1.1 4.8 2.3 4.2 1.8 8.3 1.7 3.5 1.8 1.2 1.6 1.4.1 1.9 1.5 1.8.9-1.1 1 .4 2.4.7 1.4-.3 1.9 2.8.4.6 1.3-1 .8-.1 1.1.8 1.6 3.3 2.6.6.9-.7 1.4.1 1.8-1.5 1.3v1.3l1.3 2.6 1.8.6 1.9 2.2z" class="map-item"/>
  <path id="TR" d="M587.75 564.75l-2.9.5-.1-1.5 2.2-.6zm194.5-21.5l4.3 1.3 1.1-1 3.6.1 3.4.8.9-1.9 1.4-.4 1.4.3.6 1.1 1.2.4 3.5 2.5 1.1 1.7 1.9.2 1.3 1.2 1.3 1.6 1.7 1.2 1.7 3.3-.2 2.3-1 1.4.8 1.9 1.9 3-.5.6 1.8.9 2.9.9 3.5-.4 1.6.7 2.3 1.7 3.2 2.8.8.9-3.3-1.9-1.4 1.6-.1 3.8-.6.4-2.8-.1-1.2.4 1.2 2.5 1.4 1.2v2.3l2.1 2.5.2 2.1.9 2.2.3 2.2.5.7 1.4.3-.6 3.8-.6 1.2-.4 2 1.7.6 3.2 2 .1 1.3.6 1.5.3 2 3.2 2.3v2.3l-2.1-.5-3.7 3.1-1.2-1.2-.3-2.4-1.5-1.5-1.3-.2-2.1 1.4-4.2-.3-2.9-1.1-2.9-.8-1.9.6-2.2-.7-1.5 1.9-2 1.9-1.2.3-1.6-2.6-1.3-.2-1.2 1.3-2.2.8-4.6 1-3.2.3-4.1-.6-3.2.2-3.1 1.4-5.2 2.8-4.1 1.4-4.2.9-7.6-.2-1.1-.3-3.5-2.3-3.4-.6-3.4 1.6-2.3.8-3.5 1.6-4.8-.1-1.9-1.7-3.7-.7-.6 1.6-.3 3.8 1.8 3.1-3.3 1.4v2.6l-1.8 1.1-.8 1.6-2.2-1.2-1-.1.7-1.3-2.5-4.9.7-1.5 3.5-3.9-.4-2.4-2-1.6-2.9 2.1-1.7.8-.3 1.2-1.1.8-1.8.4-2.9-1-3.2-1.4-1.9-1.1-1.4-.3-1.3.5-3.5 2.8-3.1 4.1-.8.8-3.2 1.7-2.2.6-1-.1-4.4.8-2.2.1-1.6.9-3.5-1-2.2-1.3-1.4-1.3-2.3-2.9-1.6-1.3-3.3-1.2-5.8-3-5.3-.7-4-.3-.7 1.1.1 4.2-.5 1.2-.1 2.2-1.1 1.1-2.1-1-1.9.9-3.7 1.3-1.2.1-4.6-1.6-2.9-2.1-.6-2-1.3-2.7-1.8.3-2.3-.4-3.2-1.6-2.4-.1-1.2 1.9-1 .7-1.3-.4.8-1.3-3.7.2-1.8 1-1.5-.1-1-1 2-.6 3.9-.4.9-.4.9-1.3 1.7-1.2-1.2-.5-6 .3-4.2-.2-1 .7-.4-1.6 3.6-1.4-.3-1.3-4.2-2.2-.3-1.6-2-3.1 1.9-.5.1-2.5-.4-1.5-3.9-1.3-.8.1-1.1-1.3-1.7-.9-1.2.7-3.3-1.4-.6-.6.5-1.4 1-1.1-.9-1.9-.1-1 1.8-.1 1 1.1.3 2.2 3.6.7 2.9-.6-2.5-1.1-1.1-1.2-1.2-2.3 1.8-1.1 1.2-1.7-2.7-1.2.2-2.4-2.5-2.7.3-.8 2.3-2.8-1.2-.7-4.3.7-1.6.6-3.1.2-.3-1.6.6-1.3-.5-3.4.2-1.8 1.7-.6 1.7-2.7 3-3.1h3.5l1.3-.9h2.1l.8 1.2 1.9.9 3.2-.1 1.4-.9-1.6-1.5 1.7-.5 1.5.4-.1 1.8 4.1-.5 4.4.4 1.4-.2h3.4l.5-.5-3.6-1.7 2-1.5 6.8-1.2 3.7-.8-5.7-.8-1.4-.6-2-1.4-1-1.1.3-2.6.6-.7 2.2-.1 7.7 1.2 5.3-.8 6.1 1.8 5.6-.4 1.1-.7 1.1-2.6 7.4-4.2 2.4-2.1 2.8-1.2 5-1.4 4-1.7 1.2-.2 10.4.8 7 .1 3-1.6 2 .5-.1 2.1 2.6 2.6 3.5 1.4 4.4-1.2 1.8.5 2.2 4 1.5 1.4 1.8.9 1.3.2 1.5-1.4 1.7-.1 2.9 1.3 1.2 1.4 4.8 1.1 4.3.6 2 1.2 6.2 1.2 2.2-.2 3.6-1.3 7-1.3 5.2 1.9 2.5.1 1.7.5 1.7-.3 5-2.3 1.4-1.2 1.7-.4 5.2-3.3zm-171.9-7.1l-.1 1.8 1 2 2.3 2.7 2 1.4 8.1 3.3 1.4.3-.9 3.5-2.1.5-6.4-1.5-1.6-.1-2.9 1.4-2.3-.4-3.1.6-.6 2.1-2 2.4-3.3 1.9-2.5 1-3.5 3.7-1.5 2.2-1.5.7.5-2-.3-1.7 2.3-2 3.3-1.6.7-1.3-5.4.3h-3.3l-1-1.8.8-.4 2.5-3.2-.5-4.4 3.4-2.5-.9-3.1-2.3-1.5-1.2-.3.3-1.4 1.9-.3 1-2.2 3.4-.4 1.5-1.1 3.5-.3 3.4 2.5 1.5-.6h1.8l.9-.4z" class="map-item"/>
  <path id="UA" d="M651.05 470.65v.6l-3.9-.8-.9-.9zm-26.4 14.6l-1.9-1.8-2.2-.7-2.2.2-2.2 1.3-1.6.5-.9-.3-.6 1.2-4-.9-1.8-.9-1.5-1.6 1.1-.7 2-.2.4-1-.5-1.4 2.5-2.9v-1.3l2.3-1.7.4-2-1-1.7-.5-2.1 2.5-1.6 2.1 1 1.9.2 2.1.8 1.6-.6 1.2 1.3 2.9-.4.6-.7-2.9-1.7-.2-2.9-1-1.6-2.1-.8-2-1.3-.9-1.9v-2.4l-2.9-2-2.3-1.2-.6-1.2.6-3.1-.6-2.3-1.4-1.4-1.4.7-1.4-1-1.4-1.9-5.6-.6-.6-1.2-2.5-.3-3.6-2.4-3.5-1-1.6 1-.8-.3-1.2 1-4-.1-.7-.2-2.3 1.4-.2.6-3.7.8-.2 1.4-1.1 1.9-8.4 1.2-3.4 1.3-1 1.2-2.1.5-4.3-3.3-1.2-.3-3.6.7-6.9-1.4-2.7.1-2.7-1.5h-.7l-.9 1.2-2.1.9-.7-1.7-.9-.7-2.3-.4-.9-1.1-2.2-.8-1.4-2.3h-1.5l-.1-2.5 1.6-1.7.8-2.9 1.5-3 3.3.7.4-.9-1.9-1.4.1-1.8-1.5-3.8.6-1 3.4-4.4 2.4-2.7 4.8-4.6 3-.5 1.2-1.8-.1-1.3-1.8-2.6 1.2-1.3-1.4-1-1.9-2.8-2.7-2.8v-1.3l-1.2-1.8-.1-1.4 1.1-.5 1.9.3 1.1.5 1.9-1.2 1.6-1.6.8-1.4 5.9-.5 2.3-.5 2.4-.1 7.8.4 6.5 1.5 6.1.9h2.3l1.8 2.1 1 .3 3-.1 1.1.4.8 1.4 1.2-1.7 1.9.5 1.9-.7 5.1 1 .8 1.3 1 .3.6-1.1 3.8-1.6 2.5 3 .6.5 2.3-.8 7.1-.6 2 1.1.5 1.2 2.7.9.8-1.4-1.8-3.6 1-3.3.8-1.2 2.2-2.3 1.1-.5 1.7.4 1.4-.8 5 .1 2.6.8 1.7-.1 1.8-.9.5-2.4 1.6-.6 3.7.9 1-.1 2.7-1.2 1.6-.2 2 .3 3.4-.2 2.5 1.4 1.4 1.4 1.7 2.7 4 3-.1 1-2.9.5 1.3 1.9.5 2 1.2 1.7-.4 1 3.1.1 2.9 1 4.1-.5 1.5 2.2 1.9.2.2.9 1.4 2.8.9 1.1-.2 1.8.5 1 1.9 1.6.7 1 1.1.4 2.3-1.4 2.8.4 2.7 2h2.3l1.7 1.1 1.4-1.3 4.3-.9 2.3-1 1 .1 2.3 1.8.5 1.2 1.5 1.6 4.7 2.9 1.3-.6.9-1.5 2.6 1.4 2.4.2 3.6 1.9 1.4.1 1.6-.6 2 1.8 1.9.2 4.4 2.3 2.9-.3 1 .8-.1 1.7 1 .9-.1 2.6-1.7 2.1-2.3.8 1.1 1.5 3.1.9-.9.9-1.4-.2-.8 1-.3 2.3 2.5.7 1.2 2.8v1.1l1.2.3-1.3 4.7-.1 1.8-4.2.2-6-.3-.9.2-.9 1.9-2.3 1.4-1.7.2-.8.8v2.3l-.4 1.3 1.1.7-.7 1.6.5 1.3-.5.1-4.3-.2-3.4.3-2.1 2.4h-1.5l-3.2 1.5-1.4 1.7-1.4-.8-3.1.5-1.7 1.1-3.1-.1-2.3.6-4.6 3.8-1.3.1-1-1-1.6 2.6-2.4 1.2.6 3.1 2.8 4.5 3.6 3.9 1.7 1.4 2.4.7 3.1-1.4 2.4.4 1.7-1.2 1.5-.1 3.7 1-1.1 2.5-.3 2.6-1.9.6-2.2-.1-2.2.4-2.7-1.5h-2.5l-1.1 1.9-2.3 1.3-.6 1.4-2.6-.3-2.1.2-2.8 1.4-1.9 2.8-2.3 1.8-1.9.5-2-.1-1.3-.6-2.9-1.8.7-2 .5-3.5-1.2-2.9-2.3-1.4-1.6.2-.9-.3-3.7-2.4-1.9-.2-1.9.5-1.5-1.2 3.5-2.9 3.5-2.4 1.7-.2 2.1-1.2 2.2-1.6-1.3-2.3-1.9.6-2.2-1.1-.9-.8-3.1.8-1.8-.1-3.8.8-1.9-.8-4-2-2.6-.3v-1l1.8-.3.1-1-3.8-.6-.1-1.3 2 .5 3.2.2 2.9.5 2.1-1.8-2.4.5-2.9-.5-2.1-1.8-2.2 1.2-3.2-.5-2.4.8-2.3-.2-4.1 1.1-.4 2.9-2 4-3.1 3.7-4.6 2.1-1.7-.4-.9 1.1.2 1.3 1 .9 1.1 3.1z" class="map-item"/>
  <path id="XK" d="M528.35 531.85l-2.1.4-1.5 1.9-1.6-1.2-1 .1-3.4 1.5-.2 2.6-.5.8-1.7-.3-.1-2.2-1.4-3.2-1.9-1.3-1.4-.5-2-2.9-.5-.4.2-1.3-.9-1.5 2-.4.2-.7 1.6-.4 1.5-.5v-1.4l1.7-1.3.4-1-.6-1.6 1.7-.9 1.1 1.3 2.8 1.3 2.3 2.1.2.7 2.2 1.2v1.3l4.7 1.2-.2 1.2-1.2 3.2-1 .9z" class="map-item"/>
  <path id="NL" d="M306.55 391.55l-.6 1.2-3.2 1.5-3.9-1.1-1.2.6-1.2-.7-.3-1.3 2.8-.4 3.5.7 1.5-.6 1.2.5zm-3.4-5.3l1.5 1.4-1.5.3-1.6-1zm18.1-8.5l-3-.4-.9-.7 2.4-1.7 3.2-1.5 1.7.4.5.9-1.1 1.1zm-7.6-11.5l-1.1 1.1-.6-1.4 1.7-1.4zm-7.1 25.3l-2.6-.8-2.2.5-2.8-.7-1.7-1.3 1.2-.7 2.3-.1 4 .7 1.2-.9-.6-1-2.3-2.1 1.6-2.7 1.4-1 3.2-3.8.9-2 1.2-5.5 1-2 1.4.5 2-.8 3.4-2 1-1.7 1-.9 4-1.6 2.1-.4 8.9-.5 1.8 1.7 2.7.6.1 4.3-.7 1.7-1.1 3.8-3.1-.1-.6 1.6.7 1 2.6.3.8 1-.6 2.6-2.6 1.6-.3.9 1 .9-.7 1-4.5 1.3-2.3-.8-1.8.7-.7 1.1 3.1 4.1v1.2l-1.3 2.8.7 1.2-2.2 1.6-.5.8 1.9 1.2-.6 2.4-1.2-.1-2.4-.3-.7-1.1 1.1-1.3 1-2.9-2.6-1.1-1.7-1.3-1.9.4-2.6-1.4-.5-1.6-2.5.8-1.1-1.3-1.5 1-1.5-.8-1.4.7.2.9zm18.1-15.6l.9-.9-.5-1.9-2.1-.3-.5-.8.4-2.5-2.8-.4-.4-2.5-1.5.3-2.3 1.5.6 1.3 1.6 1.6v.9l-2.1.7.1 2.6-.2 1.6 5.4 1.4z" class="map-item"/>
  <path id="ES" d="M274.75 583.75l-.4 1-2-.4v-1.5l1.2-1.6 2.7-.7.8 1.3zm21.7-13.6l1.2.5 1.3-.5 1.4.4.2 1-2.2 3.5-.6 1.4-2.1 1.3-4-1.7-.3-1.6-1.4-.7-1.7 1.3-1.4-1-.3-1.2 5.3-3.7 1.5-.9 3.2-.9.5 1.2zm14.7-.8l-.3.2-3.9-1.9-1.6-.4.1-1.4 2.6-.2 2.1.7 1.2 1.8zm-77.4-55.5l.5 1.3 4.3 1.3-.3 3.2 1.8-.4 4.4 1.7 2.2.2 2.2 2.1 3.6-.4 3.2 2.1 3.1-.4.7.4h4.7l.8-2.4 4 1.1 2.5 1 1.7.3 1.1 1.5v2.1l.7.4 2.8-1.1 2.8 1.2 1.3 1.2 2.1-1.1 4.7 1.2 1.2-.8 3.8-1.1 3.1.6 1.2 2.2-1.8.5-.2 1.4 1.2 1.3.1 2.1-3 2.8-8.7 4.7-2.9 2.7-6.6 1.5-4.5 1.5-2.2.5-4.1 3.8 1.1.3 1.2 1.2-.4.6-2.5 1.1h-.9l-2.9 4.6-2.6 3.3-1.5 1.5-1.5 2.1-3.2 5.6-.1 1.6 1.6 5.5 2.2 2.7 2.4 1.1.6 1-.8 1-2.4 1.7-4.3 2.3-1.8 1.9-.3 1.8-1.3.8-.5 2.5-1.8 4.4 1.3 1.2-1.3.8-6.5.3-4.1 2.8-2 2.4-1.9 4.5-2.2 2.6-1 .5-1.5-1.2-1.9-.1-1.9.3-1 1-1.5.5-1.5-.5-4.6-.2-2.3.8-1.9-.5-3.2-.3-7 .6-4 3.4h-3.4l-3.1 1.2-2.1 3-.5 1.6-1-.3-.3 1.2-2.1.8-2.4-1-2-1.5-1-.1-1.6-2.2-1.2-3.1v-1.1l-1.5-.6-.3-1.4.2-1.6-1.2-2-5-3.7-3.7-.3-3 .5-1.1-6.4.8-2.2 3.5-4.3 2.1-.6.7-2.4-1.7.2-3-4.3.9-4 3.2-3 .6-2.4-.5-.8-1.7-.4-1.6-3.2-.3-1.9-1.4-1.2-1.1-1.9 1.1-.3h4.3l1-.5 1.7-3.5v-1.9l-1.4-1.3.2-1 2.7-2.1-.4-1.1.4-3.8-.4-3.5-.8-2 2-1.6 1.1-1.6 1.6-1.4 2.1-1.1 2.5-2.5-.3-1.1-1.9-.9-1.9-.2-.1-3.1-.7-1.1-5.2-.1-1.5-.5-.8 1.4-2.5.9h-1.4l-2.2-.8-2.9.1-3 1.1-.9-1.3 1.3-1.9-1-1.8-4.1 1-1.9.9-1.2 1.1-1.3-.1v-2.5l2.6-2.6-1.6-.2 1.2-1.9-1-1 .1-2.6-2.3.9-.5-1.2 1.4-2.2-1.4-.2-2.3-2.5.8-3.1 2-1 1.9-1.5 2.6.3 1.7-.3 3.6-1.6-.4-1.5.4-.7 3.2-1.7 2-.2 1.9-.9 1.3.5 1.1-.1 1.3.6 1.7 1.6 2.5.6 2-.5 3.6-.1 1.7.2 3.2-.3 1.8.1 2.9-.8 2.3 1 4.4.4 2.6.8 7.2 1.4h2.7l3.7-.8 1.6-.5 1.5.3 2.1-.6 2.3 1 4.7 1.3 2.1-1.3 3.4.6 3.3 1.3 1.8.1 2.6-.3z" class="map-item"/>
  <path id="FR" d="M375.55 523.15l-.3 2.3 1 1.7.6 6.5-1.8 3.2.1 3-1.6 4.3-.8 1.1-3.8-2-1.2-1.1 1-1.8-2.2-.9.4-1.7-.2-.9-1.6-.5 1-1.3v-.8l-1.5-1-.3-.9 1.3-1.1-.6-.9.1-1.3.9-1.9 1.2-.9 2.8-.8 1.2-1.1 1.9.6.6-1.2-.2-2.7.3-1.1 1.3.5zm-133.9-47.9l-.4 1.4-1.9-2.4 1-.5zm84.4-55.6l2.1 1.2h1.4l2-.6 1.3.7 1.4.1 3.5 4.3 1.8-.7 1.4.4.3.9 2.1.1 3-.6 2 1.4 4.8.8 1.6.6.1 1.3-3.5 3.8-1.4 5.5-1 1.8-.3 1.5.2 2.4-.6 2v1.5l1.1 1.3-1.5.7-.8 1.4-2.7.3-.8-.8h-1.1l-1.8 1.4 1.3 1.1-.6.9-3.8 4-2.1.9-.5 2.9-3 2.2-1.1 2.9.8.7-.3 1.5-1.5 1v1l1.4.1 2.3-1.6-.5-1.3 2.3-1.5 1.9-.1 2.2.3.8 2.2-.5 1.7 2.3 2.3.9 1.4-2.6 1.7.1 1.6.9.6 1.7 2.6 1.8 1.6-.8 2.5-1.2.3-1.7 1.3-1.9-.2-.8.4 1.5 3.1 3.2 1.4.5 1.7-.8.7-1.4 2.5.7 1.3.1 1.4.9.9 5.1 2.4 3.3-.6.3 2-2.1 2.6.2 1.5-.6.3-.8.3-2.4 1.1-3.9 3.4-1.8 1-.7 1.8-2 1.4-2.4.5-2.3 1-1.1-.4h-2.8l-1.7-1.2-3.4-.8-1.1-1.8-2.5-.1-.8-1.5-1.9.3-1.5.7-2-.1-5.9-1.8-1.4-1.4-1.7.5-1.6 1.6-6.5 4.1-2.6 4.3-.1 1.2.7 3.9 1.6 2.5-3.1-.6-3.8 1.1-1.2.8-4.7-1.2-2.1 1.1-1.3-1.2-2.8-1.2v-1.5l-2.6-.6-.9.7-1.1-1.5-1.7-.3-2.5-1-4-1.1-.8 2.4h-4.7l-.7-.4-3.1.4-3.2-2.1-3.6.4-2.2-2.1-2.2-.2-4.4-1.7-1.8.4.3-3.2-4.3-1.3-.5-1.3 2-.5 1.9-1.9 1.7-7.1 1.3-8.3 1-1.6 1.2-.4-1-1.2-1.1 1.5.7-7.6.5-2.8.9-3 3.1 2.4.8 1 .9 3.4.6.1-1.1-4.6-1.8-2.3-3.6-2.3-.5-1.3 1.8-.6-.5-1.8-.5-5.9-3-.6-4.8-2.6-1.7-2.6-1.6-1.9-.4-1.7.9-1.8-.8-1.1-1.4-.8 1.1-1.6-3-.2-1.8-.5-.3-1.1 1.3-1.4-1.6-.8-2.6.2-.2-1.7-2.2.3-1.2-.3-1.1-1.1-1.3.2-2.2-.4-.8-.7-4.8-1.3-2-.1-1.9.6-1.1-.3-1.3-2.2-3.1-1.1.6-.7 3.1-.6.6-.7-2.2-.9-.2-1.2 1.6.3.1-1.2-4 .1-.4-1.3.5-1.4 2.3-1.2 5.8-1.4 2.5.2 1.7-.2 3-1.6 2.9-.4 2.7.8 2.5 2.8 1.2 1 3.1-1.7 4.4.1.9.9 1.2-1.7 1 1 4.7-.2-1.5-2.5-.2-6-1.3-1.7-2.1-4.3.2-1.4 3.2.3 2.7-.6 1.3.4.3 2.8 1.1 1.6h2.2l2.3.5 3 .1 4.3.8 1.8-.5 3.5-2-1.8-.7-.2-.7.9-2.2 5.2-2.5 3.7-.7 3.8-1.3 2-1.4 1.2-1.8.5-1.3.3-6.8 1-2.2 2.9-1.6 6.4-1.1.9-.5.9 2.2v1.2l2.9 2.4 3.2-1 1.6 1.8.5 2 4.2 1.1.6 2 .9-.3 3.6.4 1.6 1.1-.4 1.6.7.7-.7 1.4.5.6 2.3.3 2.2-.3 1.3-.6.5-1.4 1.9-.6-.8 2.7.6.6.4 2 1.7.1 3.3 1.5 2.8 2.6z" class="map-item"/>
  <path id="CY" d="M697.55 645.35h-.2l.1-.1zm0 0h.2l.1.1h-.3zm-.4-.3h-.1v-.1h.1v-.1l.1.1v.1zm3.5-.8l.2.1.3.3.2.4.1.3.2.2.2.1h-.5l-.3-.1-.2-.2h-.2l-.7.1-.6.1-.1.1-.1.1h-.6l-.1-.1.2-.1h.1l-.1-.3h-.2l-.2-.1v-.4l-.1-.1-.3-.1v-.2l.1-.1.2-.1.1.1.1.1.2-.1.1-.1.1-.1.1-.1.2.2.2.1h.1l.2.1h.1l.3-.1h.2l.1.1h.4zm-4 1.1v.2l-.3.1-.3.3v.2l-.1.3v1h-.1l-.1.1v.3l-.1.1h-.6l-.2.1-.1.1-.1.2-.1.1-.2.1-.4.1-.4.2-.3.1-.2-.3.1.5-.4.2-.9.2-.2.1-.1.1-.2.1h-.2l-.9-.1-1 .1-.1.1-.2.1-.6.5-.1.3h-.3l-.3.1v.1l-.1-.1-.1-.2.1-.2.1.1h.3l-.1-.4-.4-.1-.2.2-.1.1-.2-.1v.1l-.4-.1-.3-.2-.1-.1v-.2h-.4l-.1.1v.1h-.2l-.1.2h-.4l-.1.1.1.2-.2.1h-.5l-.6-.1-.5-.2-.7-.4-.3-.1-.3-.1h-.5l-.3-.1-.2-.2-.6-.4-.1-.1-.1-.4v-.1l-.1-.1-.4-.9-.1-.1-.3-.2-.2-.1-.1-.1-.1-.2v-.2l.1-.2-.3-.4-.1-.2v-.4l-.1-.2-.3-.5-.2-.3-.1-.4.1-.3h.1l.3.1.4.5.3.1.2.1h.6l.4-.2.3-.4.3-.4.1-.5.1-.3.2-.1.1-.1v-.1h.1l.1.1h.3l.1.1.2.2h.3l.2-.2.1-.2v-.2l.4.1.2.4.1.2.1.2.2.1.4.1.3.1.2.2.2.1.1.2v.2l.1.1.1.1h.1l.4-.1.1-.2.1-.2.1-.1.1.1.1.1.2.1h.2l.2-.1.2-.2.2-.2.2-.1.3-.2.1-.2h.2l.3.1h.7l.1-.1h.1l.1-.2.3-.2h.2l.2.1.1.1h.3l.2.2.2.2.2.1.3.1h.1l.1-.1v-.1l.1-.2.3-.3h.9v.2l.1.2.1.1.2.2.2.2v.1l.1.3v.9l-.1.3.1.2.1.1h.4v-.7l.1-.1.1-.1.1-.1.1.1.1.4.1.2.1.1.3-.1v-.2l.1-.1h.2l.1.1h.2l.1-.1.1.1h.1l.3.2h.3z" class="map-item"/>
</svg>
