<svg xmlns="http://www.w3.org/2000/svg" id="svg2" width="296.1" height="236.5" fill="none" stroke="#000" stroke-linejoin="round" viewBox="0 0 296.1 236.5">
  <defs id="defs4">
    <style id="style6">
      path{fill-rule:evenodd}
    </style>
  </defs>
  <path id="AG" class="map-item" fill="#f2f2f2" fill-rule="evenodd" d="M284.6 100.3l.2-.1V99.9l-.1-.1-.1-.2-.4-.2-.5.5v.2l.1.3.6.1zm.2-3.5v-.5l-.1-.2h-.3l-.1-.1h-.1l-.1.1.1.6.5.3z" data-id="AG" data-name="Antigua and Barb."/>
  <path id="BS" class="map-item" fill="#f2f2f2" fill-rule="evenodd" d="M224.7 73.8l.2-.6-.3-.1-.5.7-.6.3h-.3l-.7-.3h-.5l-.4.5-.6.1.1.1v.2l-.2.3v.2l.1.3 1.5-.1 1.3-.2.7-.9zm.8-2l-.4-.3-.4.3.1.3zm0-5.8l-.4-.2-.3.5.3.1.7-.1.5.1.5.4.3-.2-.1-.1-.4-.3-.6-.1h-.2zm-6.6 1.3l.7-.6.7-.3.9-1.1-.1-.9.2-.4-.6.1-.1.3-.1.3.3.4v.2l-.2.4-.3.1-.1.2-.3.1-.4.5-.8.6-.2.3zm1.2-3.2l-.6-.2-.2-.4-.4-.1-.1.2v.2l.1.4.2-.1.8.4.4-.3zM216 63v-.7l-.4-.5-.6-.4-.1-1.2-.3-.7-.2-.6-.4-.8v.5l.1.1.1.6.4.9.1.4-.1.4-.4.1-.1.2.5.3.8.3.5 1.3zm-4.1-3.5l-.5-.3-.2-.3-.7-.7-.3-.1-.2.4.4.1.9.7.4.2zm7.3-4l-.1-.3h-.1l-.3.1-.3.9h.3zm-17.6-1.1l-.2-.3-.3.2h-.5l-.2.1h-.4l-.3.2.4.8.3.3.1 1 .2.1-.1.7 1.1.1.4-.8V55.1l-.3-.5-.4.6-.4-.3.6-.4zm12.9.3l-1-1.4v-.2l-.5-1.5-.3-.1-.1.1-.1.2.4.4v.4l.3.2.4 1.1.4.4-.1.3-.4.3-.1.2h.1l.6-.1h.4zM204 49.5l.5-.2-.3-.2h-.7l-.4.1-.2.2.1.1.4.1zm-2.4 2l-.5-.6-.3-.9-.2-.4.1-.5-.3-.4-.6-.4-.3.1.1 1.1-.2.6-.8 1.1.1.4.1.2-.5.4v-.3l-.6.1.3.5.6.4.3.1.3-.2v.5l.3.4.1.4.3-.3.6-.2.2-.2.7-.4v-.2l.1-.6zm6.7-5l-.3-.5-.1.1-.1.4-.3.4.5-.1.4.1.6.5.7.2.3.6.6.6v.6l-.4.6-.1.7-.6.1.1.1.3.3.1.4.2.2v-.7l.3-.8.4-1.3-.1-.3-.3-.3-.7-.9-.7-.3zm-8.8-7.9l-.5-.4-.2.4v.1l-.1.3-.5.4-.5.1-.7-.6-.2-.1.8 1.1.3.1h.4l.9-.3 1.6-.5 1.7-.2.1-.2-.1-.3-.8.2-1-.1-.2.2h-.4zm6.1 5.2l.2-.3.4-1.8.8-.6.1-1.2-.5-.5-.4-.2-.1-.2.1-.2-.2-.1-.3-.2-.4-.6-.4-.4-.7-.1-.6-.1-.4-.1-.5.3h.8l1.5.3.7 1.5.5.4.1.4-.2.4v.4l-.3.5-.1.8-.3.4-.7.5.4.2.3.6z" data-id="BS" data-name="Bahamas"/>
  <path id="BB" class="map-item" fill="#f2f2f2" fill-rule="evenodd" d="M295.2 125.4l.4-.4-.3-.3-.6-.8-.3.1v1l.1.3.5.3z" data-id="BB" data-name="Barbados"/>
  <path id="BZ" class="map-item" fill="#f2f2f2" fill-rule="evenodd" d="M132.8 107.6l1.4-2.2 1-.2 1.3-1.7 1-3.2-.3-.6.9-2.3-.4-1 1.3-2.7.3-1.8h-1.1l.1-.9h-1l-2.5 3.9-.9-.8-.7.3-.1 1-.7 5-1.2 7.2z" data-id="BZ" data-name="Belize"/>
  <path id="DM" class="map-item" fill="#f2f2f2" fill-rule="evenodd" d="M286.1 111.6l.3-.7-.1-1-.2-.4-.8-.3v.2l-.1.5.3.8.1 1.1z" data-id="DM" data-name="Dominica"/>
  <path id="DO" class="map-item" fill="#f2f2f2" fill-rule="evenodd" d="M229.9 93.9v1.8l1.4 1 2.6-4.4 2-.9.6 1.6 2.2-.4 1.1-1.2 1.8.3 2.6-.2 2.5 1.3 2.3-2.6-2.5-2.3-2.4-.2.3-1.9-3 .1-.8-2.2-1.4.1-3.1-1.6-4.4-.1-.8 1.1.2 3.5-.7 2.4-1.5 1.1 1.2 1.9z" data-id="DO" data-name="Dominican Rep."/>
  <path id="GD" class="map-item" fill="#f2f2f2" fill-rule="evenodd" d="M282.4 132.2l.5-.2.2-1.1-.3-.1-.3.3-.3.5v.4l-.2.3z" data-id="GD" data-name="Grenada"/>
  <path id="GT" class="map-item" fill="#f2f2f2" fill-rule="evenodd" d="M133.1 95.4l-5.1-.1h-5.2l-.4 3.6h-2.6l1.8 2.1 1.9 1.5.5 1.4.8.4-.4 2.1h-7.1l-3.3 5.2.7 1.2-.8 1.5-.4 1.9 2.7 2.6 2.5 1.3 3.4.1 2.8 1.1.2-1 2.1-1.6 1.1-.7-.2-.7 1.4-.4 1.3-1.6-.3-1.3.5-1.2 2.8-1.8 2.8-2.4-1.5-.8-.6.9-1.7-1.1h-1.6l1.2-7.2z" data-id="GT" data-name="Guatemala"/>
  <path id="HT" class="map-item" fill="#f2f2f2" fill-rule="evenodd" d="M230.9 83.2l-4.6-1-3.4-.2-1.4 1.7 3.4 1-.3 2.4 2.2 2.8-2.1 1.4-4.2-.5-5-.9-.7 2.1 2.8 1.9 2.7-1.1 3.3.4 2.7-.4 3.6 1.1.2-1.8-1.2-1.9 1.5-1.1.7-2.4z" data-id="HT" data-name="Haiti"/>
  <path id="HN" class="map-item" fill="#f2f2f2" fill-rule="evenodd" d="M164.4 113.3l-1.3-1.8-1.9-1-1.5-1.4-1.6-1.2-.8-.1-2.5-.9-1.1.5-1.5.2-1.3-.4-1.7-.4-.8.7-1.8.7-2.6.2-2.5-.6-.9.4-.5-.6-1.6.1-1.3 1.1-.6-.2-2.8 2.4-2.8 1.8-.5 1.2.3 1.3-1.3 1.6 1.5.5 1.1 1.3 1.6 1 .1.9 2.5-.8 1.1.5.7.7-.6 2.5 1.7.6.7 2 1.8-.3.8-1.5h.8l.2-3.1 1.3-.2h1.2l1.4-1.7 1.5 1.3.6-.8 1.1-.7 2.1-1.8.3-1.3.5.1.8-1.5.6-.2.9.9 1.1.3 1.3-.8h1.4l2-.8.9-.9z" data-id="HN" data-name="Honduras"/>
  <path id="JM" class="map-item" fill="#f2f2f2" fill-rule="evenodd" d="M201 95l3.9-.1-.8-1.8-2.7-1.5-3.7-.6-1.2-.2-2.4.4-.8 1.5 2.9 2.3 3 1z" data-id="JM" data-name="Jamaica"/>
  <path id="CR" class="map-item" fill="#f2f2f2" fill-rule="evenodd" d="M159.4 139.1l-1.4 1.3-1.7-.4-.8-1.3-1.7-.5-1.4.8-3.5-1.7-.9.8-1.4 1.2 1.5.9-.9 2-.1 2 .7 1.3 1.7.6 1.2 1.8 1.2-1.6-.3-1.8 1.4 1.1.3 1.9 1.9.8 2.1 1.3 1.5 1.5.1 1.4-.7 1.1 1.1 1.3 2.9 1.4.4-1.2.5-1.3-.1-1.2.8-.7-1.1-1 .1-2.5 2.2-.6-2.4-2.7-2-2.6z" data-id="CR" data-name="Costa Rica"/>
  <path id="CU" class="map-item" fill="#f2f2f2" fill-rule="evenodd" d="M189.3 63.8l-4.9-2.1-4.3-.1-4.7-.5-1.4.7-4.2.6-3 1.3-2.7 1.4-1.5 2.3-3.1 2 2.2.6 2.9-.7.9-1.6 2.3-.1 4.4-3.3 5.4.3-2.3 1.6 1.8 1.3 7 1 1.5 1.3 4.9 1.7 3.2-.2.8 3.6 1.7 1.8 3.5.4 2.1 1.7-4.1 3.5 7.9-.6 3.8.5 3.7-.3 3.8-.8.8-1.5-3.9-2.6-4-.3.6-1.7-3.1-1.3h-1.9l-3-2.8-4.2-4-1.8-1.5-5.2.8z" data-id="CU" data-name="Cuba"/>
  <path id="NI" class="map-item" fill="#f2f2f2" fill-rule="evenodd" d="M164.4 113.3l-1.9-.2-.9.9-2 .8h-1.4l-1.3.8-1.1-.3-.9-.9-.6.2-.8 1.5-.5-.1-.3 1.3-2.1 1.8-1.1.7-.6.8-1.5-1.3-1.4 1.7h-1.2l-1.3.2-.2 3.1h-.8l-.8 1.5-1.8.3-.4.4-.9-1-.7 1 2.6 2.9 2.2 2 1 2.1 2.5 2.6 1.8 2 .9-.8 3.5 1.7 1.4-.8 1.7.5.8 1.3 1.7.4 1.4-1.3-.8-1.1-.1-1.7 1.2-1.6-.2-1.7.7-2.7.9-.7.1-2.8-.2-1.7.4-2.8.9-2.5 1.4-2.2-.3-2.3.4-1.4z" data-id="NI" data-name="Nicaragua"/>
  <path id="PA" class="map-item" fill="#f2f2f2" fill-rule="evenodd" d="M193.8 153.5l-2-1.8-1.7-1.9-2.5-1.1-3.1-.2.3-.6-3.1-.4-2 1.9-3.5 1.3-2.5 1.6-2.7.5-1.5-1.6-.5.5-2.3-.3.2-1.3-1.9-2.3-2.2.6-.1 2.5 1.1 1-.8.7.1 1.2-.5 1.3-.4 1.2.6 1 .3-1.4h2.4l1.4.7 2.3.5 1 2.5 1.8.4.8-1.1.8 3.8 2.6-.3.9-.9 1.5-.9-2.5-3.4.6-1.3 1.3-.3 2.3-1.6 1.2-2.2 2.5-.4 2.7 1.8 1 2.1 1.4.4-1.5 1.7 1 3.5 1.8 1.8.9-3.1 1.8.5 1.1-1.9-1.1-3.8z" data-id="PA" data-name="Panama"/>
  <path id="PR" class="map-item" fill="#f2f2f2" fill-rule="evenodd" d="M251.1 93.8v-.1h.1v-.1l.1-.1v-.1h-.5v.2l.2.1v.1zm13.6-.3l.7-.2v-.1l-.4-.1h-.6l-.5.2.1.2h.2zm-3.7-2.2l-.1-.2h-.2l-3.5-.1-1.3-.2-.3.1-.3.1-.1.4-.2.2-.3.2.1.3.1.2.2.4-.1.5-.2 1 .3.2.7-.1.3.1.3.1.4-.1.4-.2.9.1.5-.1.6.3.4-.1.2.1H260.7l.9-.2.8-.5.3-.5.4-.3.6-.4v-.9l-.7-.1-.6-.3-1.1-.1h-.1l.1.2h-.1z" data-id="PR" data-name="Puerto Rico"/>
  <path id="KN" class="map-item" fill="#f2f2f2" fill-rule="evenodd" d="M280.2 99.7v-.3l-.2-.2h-.3v.5l.2.2zm-.5-.7l-.1-.2-.1-.1-.2-.4-.4-.4-.2.1-.1.2v.1l.3.3.4.1.2.4z" data-id="KN" data-name="St. Kitts and Nevis"/>
  <path id="LC" class="map-item" fill="#f2f2f2" fill-rule="evenodd" d="M287.7 120.7l.1-1.2-.1-.5-.2.1-.3.4-.4.6-.1.3v.6l.6.4z" data-id="LC" data-name="Saint Lucia"/>
  <path id="VC" class="map-item" fill="#f2f2f2" fill-rule="evenodd" d="M284.8 127.9v-.1h.1v-.2h-.1v.2h-.1v.1zm.7-1.9l.1-.2.1-.1-.1-.1v.1l-.2.1v.2h-.2.1l.1.1zm.3-1.1l.3-.2.1-.6-.1-.4h-.2l-.3.1-.2.3-.1.5.4.4z" data-id="VC" data-name="St. Vin. and Gren."/>
  <path id="SV" class="map-item" fill="#f2f2f2" fill-rule="evenodd" d="M137.5 123.5l.6-2.5-.7-.7-1.1-.5-2.5.8-.1-.9-1.6-1-1.1-1.3-1.5-.5-1.4.4.2.7-1.1.7-2.1 1.6-.2 1 1.4 1.3 3.1.4 2.2 1.3 1.9.6 3.3.1z" data-id="SV" data-name="El Salvador"/>
  <path id="TT" class="map-item" fill="#f2f2f2" fill-rule="evenodd" d="M285.7 144.2l.1-.2v-.6l.2-.4-.2-.4-.1-.6.1-.5v-.7l.2-.3.5-.8h-.9l-.6.2-1.1.1-.5.2-.7.1-.4.2.1.1.5.2.2.2.1.2.1.4-.3 1.7-.1.1-.6.1-.2.3-1.4.8.8-.1.9.1 2.4-.1zm1.8-6.7l1.2-.5.1-.4h-.2l-.8.3-.6.5v.2z" data-id="TT" data-name="Trinidad and Tobago"/>
  <path id="MX" class="map-item_inactive" fill="#f2f2f2" fill-rule="evenodd" d="M94.7 44.3l-3.6-1.4-3.9-2-.8-3-.2-4.5-2.4-3.6-1-3.7-1.6-4.4-3.1-2.5-4.4.1-4.8 5-4-1.9-2.2-1.9-.4-3.5-.8-3.3-2.4-2.8-2.1-2-1.3-2.2h-9.3l-.8 2.6h-15L19.9 4.9l-7.1-3.1 1-1.3-7 .7-6.3.5.2 5.7.7 5.1.7 4.1.8 4 2.6 1.8 2.9 4.5-1 2.9-2.7 2.3-2.1-.3-.6.5L4.3 36l2.9 1.5 1 1.7.9-.9 3.1 2.9 2.1 2 .1 3.4-1.2 4.7 2.5 1.6L19 56l2.9 3.6.7 3.9h1l2.7-2.3.4-1.2-1.5-2.8-1.6-2.9-2.6-.2.4-3.4-.9-3-1-2.8L19 39l-2.6-3.2-.6-2.3-1.2-1.6v-4.1l-1 .1-.1-2.2-.7-.5-.4-1.4-2.7-4.4-1.1-2.6 1-4.8.1-3 1.8-2.6 2.4 1.7 1.9-.2 3.1 2.5-.9 2.4.4 4.9 1.5 4.7-.4 2 1.7 3.1 2.3 3.4 2.7.5.3 4.4 2.4 3.1 2.5 1.5-1.8 4 .7 1.5 4.1 2.6 1.9 4 4.5 4.9 3.8 6.4 1.3 3.2v2.5l1.4 2.9-.3 2.2-1.6 1.6.3 1.8-1.9.7.8 3.1 2.2 4 5.3 3.6 1.9 2.9 5.4 2 3 .4 1.2 1.7 4.2 3 5.9 3 4 .9 4.8 2.9 4 1.2 3.7 1.7 2.9-.7 4.8-2.4 3.1-.4 4.4 1.6 2.6 2.1 5.5 6.9.4-1.9.8-1.5-.7-1.2 3.3-5.2h7.1l.4-2.1-.8-.4-.5-1.4-1.9-1.5-1.8-2.1h2.6l.4-3.6h5.2l5.1.1.1-1 .7-.3.9.8 2.5-3.9h1l1.2-.1 1.2 1.6 2-5 1.2-2.7-.9-1.1 1.8-3.9 3.5-3.8.6-3.1-1.2-1.3-3.4.5-4.8-.2-6 1.5-4 1.7-1.2 1.8-1.2 5.4-1.8 3.7-3.9 2.6-3.6 1.1-4.3 1.1-4.3.6-5.1 1.8-1.9-2.6-5.6-1.7-1.8-3.2-.7-3.6-3-4.7-.4-5-1.2-3.1-.5-3.4 1.1-3.1 1.8-8.6 1.8-4.5 3.1-5.6z" data-id="MX" data-name="Mexico"/>
  <path id="CO" class="map-item_inactive" fill="#f2f2f2" fill-rule="evenodd" d="M228.6 133.7l1.2-2.1-1.3-1.7-2-.4-2.9 3.1-2.3 1.4-4.6 3.2-4.3-.5-.5 1.3-3.6.1-3.3 3-1.4 5.4-.1 2.1-2.4.7-4.4 4.4-2.9-.2-.7.9 1.1 3.8-1.1 1.9-1.8-.5-.9 3.1 2.2 3.4.6 5.4-1.2 1.6 1.1 5.9-1.2 3.7 2 1.5-2.2 3.3-2.5 4-2.8.4-1.4 2.3.2 3.2-2.1.5.8 2 5.6 3.6 1-.1 1.4 2.7 4.7.9 1.6-1 2.8 2.1 2.4 1.5 1.5-.6 3.7 3 1.8 3 2.7 1.7 3.4 6.7 4.2.8 3-1.7 2.1 1.1 3.3-.6 4.4 3-3.5 6.5 1.7.1 2.9 3.4 2.2-17.4.1-2.8-.9-3.6-2.5-2.4v-4.6l3.2-1 1.1.6.2-2.4-3.3-.7v-3.9l10.9.1 1.9-2.2 1.6 2 1 3.8 1.1-.8-1.7-6.4-1.4-2.2-2-1.4 2.9-3.1-.2-1.5-1.5-1.9-1-4.2.5-4.6 1.3-2.1 1.2-3.4-2-1.1-3.2.7-4-.3-2.3.7-3.8-5.5-3.2-.8-7.2.6-1.3-2.2-1.3-.6-.2-1.3.8-2.4-.4-2.5-1.1-1.4-.6-2.9-2.9-.5 1.8-3.7.9-4.5 1.8-2.4 2.2-1.8 1.6-3.2z" data-id="CO" data-name="Colombia"/>
  <path id="VE" class="map-item_inactive" fill="#f2f2f2" fill-rule="evenodd" d="M292.3 155.4l-2.2-1.5-2.9.2-.7-5.1-4.1-3.2-4.4-.4-1.8-3 4.8-1.9-6.7.1-6.9.4-.2 1.6-3.2 1.9-4.2-.7-3.1-2.9-6 .7-5-.1-.1-2.1-3.5-3.5-3.9-.1-1.7-4.5-2.1 2 .6 3-7.1 2.6v4.8l1.6 2.2-1.5 4.6-2.4.4-1.9-5 2.7-3.7.3-3.3-1.7-2.9 3.3-.8.3-1.5-3.7 1.1-1.6 3.2-2.2 1.8-1.8 2.4-.9 4.5-1.8 3.7 2.9.5.6 2.9 1.1 1.4.4 2.5-.8 2.4.2 1.3 1.3.6 1.3 2.2 7.2-.6 3.2.8 3.8 5.5 2.3-.7 4 .3 3.2-.7 2 1.1-1.2 3.4-1.3 2.1-.5 4.6 1 4.2 1.5 1.9.2 1.5-2.9 3.1 2 1.4 1.4 2.2 1.7 6.4 3 3.4 4.4-.5 1.1-1.9 4.2-1.5 2.3-1 .7-2.7 4.1-1.8-.3-1.4-4.8-.5-.7-4 .3-4.3-2.4-1.6 1-.6 4.2.8 4.4 1.6 1.7-1.5 4-1 6.4-2.4 2.1-2.4-.7-1.8-3.7-4.8 1.6-1.8v-2.9l3.4-1.1 1.5-1.2-1.9-2.3.6-2.3z" data-id="VE" data-name="Venezuela"/>
</svg>
