<svg xmlns="http://www.w3.org/2000/svg" id="svg2" width="673.3" height="449.9" fill="none" stroke="#000" stroke-linejoin="round" viewBox="0 0 673.3 449.9">
  <defs id="defs4">
    <style id="style6">
      path{fill-rule:evenodd}
    </style>
  </defs>
  <path id="BS" class="map-item" fill="#f2f2f2" fill-rule="evenodd" d="M477.2 360.5l.2-.6-.3-.1-.5.7-.6.3h-.3l-.7-.3h-.5l-.4.5-.6.1.1.1v.2l-.2.3v.2l.1.3 1.5-.1 1.3-.2.7-.9zm.8-2l-.4-.3-.4.3.1.3zm0-5.8l-.4-.2-.3.5.3.1.7-.1.5.1.5.4.3-.2-.1-.1-.4-.3-.6-.1h-.2zm-6.6 1.3l.7-.6.7-.3.9-1.1-.1-.9.2-.4-.6.1-.1.3-.1.3.3.4v.2l-.2.4-.3.1-.1.2-.3.1-.4.5-.8.6-.2.3zm1.2-3.2l-.6-.2-.2-.4-.4-.1-.1.2v.2l.1.4.2-.1.8.4.4-.3zm-4.1-1.1v-.7l-.4-.5-.6-.4-.1-1.2-.3-.7-.2-.6-.4-.8v.5l.1.1.1.6.4.9.1.4-.1.4-.4.1-.1.2.5.3.8.3.5 1.3zm-4.1-3.5l-.5-.3-.2-.3-.7-.7-.3-.1-.2.4.4.1.9.7.4.2zm7.3-4l-.1-.3h-.1l-.3.1-.3.9h.3zm-17.6-1.1l-.2-.3-.3.2h-.5l-.2.1h-.4l-.3.2.4.8.3.3.1 1 .2.1-.1.7 1.1.1.4-.8V341.8l-.3-.5-.4.6-.4-.3.6-.4zm12.9.3l-1-1.4v-.2l-.5-1.5-.3-.1-.1.1-.1.2.4.4v.4l.3.2.4 1.1.4.4-.1.3-.4.3-.1.2h.1l.6-.1h.4zm-10.5-5.2l.5-.2-.3-.2h-.7l-.4.1-.2.2.1.1.4.1zm-2.4 2l-.5-.6-.3-.9-.2-.4.1-.5-.3-.4-.6-.4-.3.1.1 1.1-.2.6-.8 1.1.1.4.1.2-.5.4v-.3l-.6.1.3.5.6.4.3.1.3-.2v.5l.3.4.1.4.3-.3.6-.2.2-.2.7-.4v-.2l.1-.6zm6.7-5l-.3-.5-.1.1-.1.4-.3.4.5-.1.4.1.6.5.7.2.3.6.6.6v.6l-.4.6-.1.7-.6.1.1.1.3.3.1.4.2.2v-.7l.3-.8.4-1.3-.1-.3-.3-.3-.7-.9-.7-.3zm-8.8-7.9l-.5-.4-.2.4v.1l-.1.3-.5.4-.5.1-.7-.6-.2-.1.8 1.1.3.1h.4l.9-.3 1.6-.5 1.7-.2.1-.2-.1-.3-.8.2-1-.1-.2.2h-.4zm6.1 5.2l.2-.3.4-1.8.8-.6.1-1.2-.5-.5-.4-.2-.1-.2.1-.2-.2-.1-.3-.2-.4-.6-.4-.4-.7-.1-.6-.1-.4-.1-.5.3h.8l1.5.3.7 1.5.5.4.1.4-.2.4v.4l-.3.5-.1.8-.3.4-.7.5.4.2.3.6z" data-id="BS" data-name="Bahamas"/>
  <path id="BZ" class="map-item" fill="#f2f2f2" fill-rule="evenodd" d="M385.3 394.3l1.4-2.2 1-.2 1.3-1.7 1-3.2-.3-.6.9-2.3-.4-1 1.3-2.7.3-1.8h-1.1l.1-.9h-1l-2.5 3.9-.9-.8-.7.3-.1 1-.7 5-1.2 7.2z" data-id="BZ" data-name="Belize"/>
  <path id="DO" class="map-item" fill="#f2f2f2" fill-rule="evenodd" d="M482.4 380.6v1.8l1.4 1 2.6-4.4 2-.9.6 1.6 2.2-.4 1.1-1.2 1.8.3 2.6-.2 2.5 1.3 2.3-2.6-2.5-2.3-2.4-.2.3-1.9-3 .1-.8-2.2-1.4.1-3.1-1.6-4.4-.1-.8 1.1.2 3.5-.7 2.4-1.5 1.1 1.2 1.9z" data-id="DO" data-name="Dominican Rep."/>
  <path id="GT" class="map-item" fill="#f2f2f2" fill-rule="evenodd" d="M385.6 382.1l-5.1-.1h-5.2l-.4 3.6h-2.6l1.8 2.1 1.9 1.5.5 1.4.8.4-.4 2.1h-7.1l-3.3 5.2.7 1.2-.8 1.5-.4 1.9 2.7 2.6 2.5 1.3 3.4.1 2.8 1.1.2-1 2.1-1.6 1.1-.7-.2-.7 1.4-.4 1.3-1.6-.3-1.3.5-1.2 2.8-1.8 2.8-2.4-1.5-.8-.6.9-1.7-1.1h-1.6l1.2-7.2z" data-id="GT" data-name="Guatemala"/>
  <path id="HT" class="map-item" fill="#f2f2f2" fill-rule="evenodd" d="M483.4 369.9l-4.6-1-3.4-.2-1.4 1.7 3.4 1-.3 2.4 2.2 2.8-2.1 1.4-4.2-.5-5-.9-.7 2.1 2.8 1.9 2.7-1.1 3.3.4 2.7-.4 3.6 1.1.2-1.8-1.2-1.9 1.5-1.1.7-2.4z" data-id="HT" data-name="Haiti"/>
  <path id="HN" class="map-item" fill="#f2f2f2" fill-rule="evenodd" d="M416.9 400l-1.3-1.8-1.9-1-1.5-1.4-1.6-1.2-.8-.1-2.5-.9-1.1.5-1.5.2-1.3-.4-1.7-.4-.8.7-1.8.7-2.6.2-2.5-.6-.9.4-.5-.6-1.6.1-1.3 1.1-.6-.2-2.8 2.4-2.8 1.8-.5 1.2.3 1.3-1.3 1.6 1.5.5 1.1 1.3 1.6 1 .1.9 2.5-.8 1.1.5.7.7-.6 2.5 1.7.6.7 2 1.8-.3.8-1.5h.8l.2-3.1 1.3-.2h1.2l1.4-1.7 1.5 1.3.6-.8 1.1-.7 2.1-1.8.3-1.3.5.1.8-1.5.6-.2.9.9 1.1.3 1.3-.8h1.4l2-.8.9-.9z" data-id="HN" data-name="Honduras"/>
  <path id="JM" class="map-item" fill="#f2f2f2" fill-rule="evenodd" d="M453.5 381.7l3.9-.1-.8-1.8-2.7-1.5-3.7-.6-1.2-.2-2.4.4-.8 1.5 2.9 2.3 3 1z" data-id="JM" data-name="Jamaica"/>
  <path id="CA" class="map-item" fill="#f2f2f2" fill-rule="evenodd" d="M561.8 199.9l-.7-3-2.5 1.9.5 2.1 5.6 2.6 1.9-.4 3.3-2.5-4.7.1zm14.4-15.9l.2-1.1-4.1-2.6-5.9-1.6-1.9.6 3.5 2.9 5.7 1.9zm-305.3 3.7l.2-3.4-3.2-2.6-.4-2.9-.1-2.1-4.1-.7-2.4-.9-4.1-1.4-1.4 1.5-.6 3.3 4.3 1.1-.4 1.8 2.9 2.2v2.2l6.3 2.8zM607 174.2l3.9-3.8 1.4-1.7-2.1-.3-4.9 2.2-4.2 3.5-8.1 9.8-5.3 3.7 1.6 1.7-3.8 2.2.2 1.9 9.6.1 5.4-.3 4.4 1.5-4.4 2.9 2.9.2 7.3-5.4 1.2.8-2.5 5.1 3 1.2 2.3-.2 3.5-5.5-.5-3.9.3-3.3-3.7 1.1 2.8-4.6-4.3-1.9-2.7 1.5-3.9-1.7 2.4-2.1-2.9-1.3-3.8 2zM250.2 153l-1.9 2-1.4 2.6.9 1.9-.6 2.8.7 2.8h1.9l-.2-4.9 7.1-6.9-4.9.5zm280.9-47l-.4-1.2-1.7-.1-2.8 1.7-.4.4.1 1.7 1.7.5zm-9.6-3.2l.8-1.1-6-.1-4.9 2.7v1.5l3 .2zm-3.1-16.6l-2.7-.5-5 5.2-3.6 4.4-5.7 2.8 6.3-.6-.8 3.4 8.2-3 6.2-3 .8 2.6 5.9 1.3 4.9-1.8-1.9-1.8-3.4.4 1.3-2.7-3.7-1.7-3.4-1.9-1.5-1.5-2.8.9zM563 78l3.7-1.7 1-.7 1.4-2.3-2.3-1.5-4.2.7-3.8 3.1-.7 2.6zm-73.8-10.7l-.8-2-.3-1-1.6-1-3-1.5-4.9 2.3-5 1.7 3.5 2.4 3.8-.6 4.1 1.6zm22.4-2.1l-6.6-1 5.7-2.6-.4-6-1.9-2.3-4.5-.8-8.1 3.8-5.5 5.8 2.9 2.1 1.6 3.3-6.3 5.5-3.2-.2-6.2 4.4 4.2-5.2-4.8-1.8-4.5.9-2.4 3.4-5.9-.1-7.2.8-5.1-2.4-5 .4-1.5-2.9-2.1-1.3-3.8.5-5.2.3-4.4 1.8 2 2.3-7 2.8-1.4-3.3-4.4 1-11.8.6-6.4-1.2 8.5-2.6-2.8-2.8-4.4.4-4.7-1-7.5-1.9-3.8-2.3-4.5-.3-3.3 1.6-5.9.9 3.9-4.1-9.4 3.6-1.4-4.7-2.1-.6-3.8 2.5-4.5 1.2-.2-2.2-8.2 1.4-8.8 2.3-5.2-.6-7 1.6-6.2 2.3-3.7-.5-3.3-2.6-5.9-1.3-24.3 20.2-35.4 32.4 4.2.1 2.7 1.6.6 2.6.2 3.9 7.6-3.3 6.4-1.9-.5 3 .7 2.4 1.7 2.7-1.1 4.2-1.5 6.8 4.6 3.8-3.1 3.7-5.1 2.9-2.5 3.1 2.1 4.4-3.1 4.9 4.1 2.6-3.6 3.7-1.3 5.5 6.9 2.5 1.6 2.7 5.4 6.1h136.6l1.3-2.4h1.6l-.8 3.4 1 1 3.2.4 4.6 1 3.8 1.9 4.4-.8 5.3 1.6 3.2-2.4 3.2-1 1.8-1.5 1.5-.8 4 1.2 3.3.2.8.8.1 3.5 5.2 1-1.7 1.7 1.2 1.9-1.9 2.3 1.8.8-1.9 2.1 1.2.2 1.3-.9.5 1.4 3.4.7 3.8.1 3.8.6 4 1.2.8 2 1.4 4.7-2.4 2-3.8-.8-1-3.8-.9 3.9-3.8 3.4-.8 2.9-1.1 1.7-4.1 2-3.7 3.4-2 2.2 2.7.4 4.5-2 2.9-1.7 1.6-.3 2.6.6 1.7-.9 2.8-.8 4.7-.8.3-1.8-.3.1-1.7.3-1.8-.6 2.3-2.1 1.9-.7 3.9-.9 4.6-.9 1.8 1.2 1.9-1.4 1.9-.8.9.4.1.1 6.7-4.2 2.7-1.2h17l1-1.6 1.7-.3 2.5-.9 2.7-2.8 3.2-4.9 5.5-4.7 1.1 1.7 3.7-1.1 1.5 1.8-2.8 8.5 2.1 3.5 5.9-.8 8.1-.2-10.4 5.1-1.5 5.2 3.7.5 7.1-4.5 5.8-2.4 12.2-3.7 7.5-4.1-2.6-2.2 1-4.5-7.1 7-8.6.8-5.5-3.1-.1-4.6.6-6.8 6.1-4.1-3.3-3.1-7.6.6-12.1 5.2-10.9 8.2-4.6 1 7.8-5.7 10.1-8.3 7.2-2.7 5.7-4.4 5.2-.5 7.3.1 10 1.3 8.6-1 7.8-5.1 8.7-2.2 4.2-2.1 4.2-2.3 2-6.8-1.1-2.3-3.4-.8v-5.1l-2.3-1.9-6.9-1.6-2.8-3.4-4.8-3.4 3.4-3.7-2-7.1-2.6-7.5-1-5.2-4.3 2.7-7.4 6.5-8.1 3.2-1.6-3.4-3.7-1 2.2-7.3 2.6-4.9-7.7-.5-.1-2.2-3.6-3.3-3-2-4.5 1.5-4.2-.5-6.6-1.6-3.9 1.3-3.8 9-1 5.3-8.8 6.1 3.1 4.5.5 5-1.7 4-4.7 4.1-7.5 4.2-9 2.8 1.7 3.2-2.2 9.6-5.6 6.3-4.6 1.9-4.4-5.8-.1-6.8 1.7-6 3.6-5.2-4.8-.6-7.5-.4-3.6-2.5-4.8-1.6-1.7-2.9-3.3-2.2-7-2.6-7.1 1.2.7-4.5 1.5-5.5-6-1 4.9-6.8 4.9-4.6 9.4-6.5 8.6-4.6 5.6-.7 2.9-3.7 5.1-2.4 6.4-.4 7.7-3.8 2.9-2.4 7.4-4.7 3.2-2.8 3.2 1.7 6.5-.9 10.8-3.8 2.3-2.7-.8-2.9 5-2.9L548 67l-3.5-2.6-5.4-.8-5.5-.4-4.6 5.9-6.5 4.6-7.2 4L514 74l4.2-4-2.2-3.5-8.7 4.2zm-75.5-18.9l-2.8-1-14.1 3.2-5.1 2-7.8 3.9 5.4 1.4 6.2-.1-11.5 2.1v1.9l5.6.1 9-.4 6.5 1.2-6.2 1-5.5-.3-7.1.9-3.3.6.6 4.2 4.2-.6 4.1 1.5-.3 2.5 7.8-.5 11.2-.8 9.4-1.8 5-.4 5.7 1.5 6.7.8 3.1-1.9-.7-2.1 7-.4 2.6-2.4-5-2.5-4.2-2.6 2.4-3.6 2.7-5.1-2.2-2-3-.9-4.2.8-2.8 5.3-4.3 2.1 2.2-5.1-1.7-1.7-7.3 2.7-2.6-2.6-10.4 1.5zm39.1-1.5l-1.7-1.1-5.4.2-2.1.7 2.2 3.6zm107.7 1.6l-4.4-2.8-8.4-.5-2.1.3-1.7 1.8 2 2.8.9.3 4.8-.7 4.1.1 4.1.1zm-39.4-.3l5.7-3.2-11.2 1.3-5.8 2.1-7.1 4.6-3.3 5.2 5.6.1-6.1 2.3 1.8 1.9 5.9.8 7.3 1.5 13.8 1.2 7.9-.6 3.2-1.6 2 1.8 3.3.3 2 3.3-3.5 1.4 7.1 1.8 4.6 2.6.5 1.9-.4 2.4-8.6 5.4-3.2 2.7.2 2-9.2.7-8 .1-5.4 4.2 2.4 1.9 13-.9.9-1.6 4.7 2.7 4.7 2.9-2.4 1.6 3.8 2.8 7.6 3.3 10.7 2.3.3-2-2.8-3.5-3.5-4.9 8.5 4.6 4.7 1.5 3.6-4.1v-5.6l-1-1.5-4.4-2.5-2.7-3.3 2.3-3.2 5.8-.7 3.8 5.4 4 2.4 10.7-6.5 3.3-3.9-6.4-.3-3.2-5.1-5.9-1.2-7.7-3.5 9-2.5-.8-5-2.2-2.1-8.3-2.1-1.9-3.3-8.2 1.2 1.1-2.3-3.6-2.5-6.8-2.6-5.2 2.1-9 1.5 3.3-3.4-2.3-5.3-11.6 2.1-7.1 4.1zm-50-3.4l-7.1 2.4.9 3.4-7.4-.7-1.7 1.7 5.8 3.9.9 2 3.4.5 8.4-2 5.1-4.7L498 47l6-2.4.5-1.5-7.5.6zm22.3 5.4l5.6-1 10-4.5-6.1-1.2-7.8-.2-5.2 1.4-4.2 2.1-2.5 2.6-1.8 4.5 4.3.2zm-114.7 7.2l2.6-2.3 9.1-3.6 13.8-3.6 6.4-1.3-1.6-2.1-1.9-1.5-9.4-.2-4.1-1.1-14 .8-.3 3.1-7.6 3.3-7.4 3.8-4.3 2.2 5.9 2.7-.6 2.3zM525.2 37l.3-1.6-1.4-1.7-6.9 1.3-4.4 2.2 3.2 1.3 5.1.4zm-8.7-8.6l-1.1.7-4.8-.3-7.6 1.6-3.8-.1-4.3 3.8 6.6-.4-3.4 2.9 3.2.8 6.8-.5 5.8-3.7 2.8-2.5zm-39.1 2.5l1.8-2.3-3.1-.5-5.7 1.7-.7 4.7-6.1-.4-2.8-2.9-8.2-1.6-5.4 1.4-11.6 4.8 4.1.8 17.8-.5-10.6 2.2-1.5 1.6 5.9-.1 12.2-2.2 13.8-.8 5.1-2.3 2.3-2.4-3.7-.2-4.3.8zm55.2-4.3l-7.1-.3-3.8 2 2.6 1.5 7 .6 1.4 2.1-2.2 2.4-1.5 2.8 8.5 1.6 5.5.6 8-.1 11.6-.8 4.3.6 6.7-1 3.5-1.4 1-2-2.3-1.9-5.8-.3-8 .4-7 1.1-5.1-.4-4.8-.3-1.2-1.1-3.1-1.1 2.8-1.9-1.4-1.6-7.3.1zm-75-2.6l-6 .7-5.5-.1-12.1 3.1-11.6 3.7 3.6 1 7-.7 9.8-2.1 3.8-.3 5.2-1.6zm80.5.6l1-.5-1.5-.9-7.2-.1-.6 1.3 6.4.3zm-58.4-.8l3.2-1.4-4.1-.8-5.9.5-5.1 1.5 3.3 1.5zm7.8-4.2l-3.3-.9-1.6-.2-5.7 1.3-1 .7h6zm46.4 2.5l3-1.7-2.3-1.6-1.7-.3-4.4-.1-2.1 1.8-.7 1.8 1.6 1.1zm-13.7-1.2l.1-2.2-7.4-1.7-6.1-.6-2.1 1.7 2.8 1.1-5.3 1.4 7.7.2 4 1.5 5.2.5zm53.7-6.1l.6-2.8-4.7-.8-4.7-.9-1.6-2.2-8.2.2.3.9-3.9.3-4.1 1.3-4.9 1.9-.3 1.9 2 1.5h6.5l-4.3 1.2-2.1 1.6 1.6 1.9 6.7.6 6.8-.4 10.5-3.4 6.4-1.3zM652.4 1l-7-.2-6.9-.3-10.2.6-1.4-.4-10.3.2-6.4.4-5.1.6-5 2-2.3-1-3.9-.2-6.7 1.4-7.4.6-4.1.1-6 .8-1.1 1.3 2.5 1.2.8 1.6 4.4 1.5 12.4-.3 7.2.5-7.2 1.5-2.2-.4-9.3-.2-1.1 2.2 3 1.7-2.8 1.6-7.5 1.1-4.9 1.7 4.8.9 1.7 3-7.5-2-2.5.3-2 3.4-8 1.1-2 2.3 6.7.3 4.9.6 11.7-.8 8.4 1.4 12.6-3 1-1.1-6.4.2.5-1.1 6.5-1.4 3.6-1.9 6.8-1.3 5-1.6-.8-2.2 3.3-.8-4.3-.6 11.1-.4 3.2-.9 7.9-.8 9.3-3.5 6.8-1.1 10.3-2.5h-7.4l3.9-.9 9-.8 9.7-1.6 1.1-1.1-5.2-1-6.7-.4z" data-id="CA" data-name="Canada"/>
  <path id="CR" class="map-item" fill="#f2f2f2" fill-rule="evenodd" d="M411.9 425.8l-1.4 1.3-1.7-.4-.8-1.3-1.7-.5-1.4.8-3.5-1.7-.9.8-1.4 1.2 1.5.9-.9 2-.1 2 .7 1.3 1.7.6 1.2 1.8 1.2-1.6-.3-1.8 1.4 1.1.3 1.9 1.9.8 2.1 1.3 1.5 1.5.1 1.4-.7 1.1 1.1 1.3 2.9 1.4.4-1.2.5-1.3-.1-1.2.8-.7-1.1-1 .1-2.5 2.2-.6-2.4-2.7-2-2.6z" data-id="CR" data-name="Costa Rica"/>
  <path id="CU" class="map-item" fill="#f2f2f2" fill-rule="evenodd" d="M441.8 350.5l-4.9-2.1-4.3-.1-4.7-.5-1.4.7-4.2.6-3 1.3-2.7 1.4-1.5 2.3-3.1 2 2.2.6 2.9-.7.9-1.6 2.3-.1 4.4-3.3 5.4.3-2.3 1.6 1.8 1.3 7 1 1.5 1.3 4.9 1.7 3.2-.2.8 3.6 1.7 1.8 3.5.4 2.1 1.7-4.1 3.5 7.9-.6 3.8.5 3.7-.3 3.8-.8.8-1.5-3.9-2.6-4-.3.6-1.7-3.1-1.3h-1.9l-3-2.8-4.2-4-1.8-1.5-5.2.8z" data-id="CU" data-name="Cuba"/>
  <path id="MX" class="map-item" fill="#f2f2f2" fill-rule="evenodd" d="M347.2 331l-3.6-1.4-3.9-2-.8-3-.2-4.5-2.4-3.6-1-3.7-1.6-4.4-3.1-2.5-4.4.1-4.8 5-4-1.9-2.2-1.9-.4-3.5-.8-3.3-2.4-2.8-2.1-2-1.3-2.2h-9.3l-.8 2.6h-15l-10.7-4.4-7.1-3.1 1-1.3-7 .7-6.3.5.2 5.7.7 5.1.7 4.1.8 4 2.6 1.8 2.9 4.5-1 2.9-2.7 2.3-2.1-.3-.6.5 2.3 3.7 2.9 1.5 1 1.7.9-.9 3.1 2.9 2.1 2 .1 3.4-1.2 4.7 2.5 1.6 3.3 3.1 2.9 3.6.7 3.9h1l2.7-2.3.4-1.2-1.5-2.8-1.6-2.9-2.6-.2.4-3.4-.9-3-1-2.8-.5-5.9-2.6-3.2-.6-2.3-1.2-1.6v-4.1l-1 .1-.1-2.2-.7-.5-.4-1.4-2.7-4.4-1.1-2.6 1-4.8.1-3 1.8-2.6 2.4 1.7 1.9-.2 3.1 2.5-.9 2.4.4 4.9 1.5 4.7-.4 2 1.7 3.1 2.3 3.4 2.7.5.3 4.4 2.4 3.1 2.5 1.5-1.8 4 .7 1.5 4.1 2.6 1.9 4 4.5 4.9 3.8 6.4 1.3 3.2v2.5l1.4 2.9-.3 2.2-1.6 1.6.3 1.8-1.9.7.8 3.1 2.2 4 5.3 3.6 1.9 2.9 5.4 2 3 .4 1.2 1.7 4.2 3 5.9 3 4 .9 4.8 2.9 4 1.2 3.7 1.7 2.9-.7 4.8-2.4 3.1-.4 4.4 1.6 2.6 2.1 5.5 6.9.4-1.9.8-1.5-.7-1.2 3.3-5.2h7.1l.4-2.1-.8-.4-.5-1.4-1.9-1.5-1.8-2.1h2.6l.4-3.6h5.2l5.1.1.1-1 .7-.3.9.8 2.5-3.9h1l1.2-.1 1.2 1.6 2-5 1.2-2.7-.9-1.1 1.8-3.9 3.5-3.8.6-3.1-1.2-1.3-3.4.5-4.8-.2-6 1.5-4 1.7-1.2 1.8-1.2 5.4-1.8 3.7-3.9 2.6-3.6 1.1-4.3 1.1-4.3.6-5.1 1.8-1.9-2.6-5.6-1.7-1.8-3.2-.7-3.6-3-4.7-.4-5-1.2-3.1-.5-3.4 1.1-3.1 1.8-8.6 1.8-4.5 3.1-5.6z" data-id="MX" data-name="Mexico"/>
  <path id="NI" class="map-item" fill="#f2f2f2" fill-rule="evenodd" d="M416.9 400l-1.9-.2-.9.9-2 .8h-1.4l-1.3.8-1.1-.3-.9-.9-.6.2-.8 1.5-.5-.1-.3 1.3-2.1 1.8-1.1.7-.6.8-1.5-1.3-1.4 1.7h-1.2l-1.3.2-.2 3.1h-.8l-.8 1.5-1.8.3-.4.4-.9-1-.7 1 2.6 2.9 2.2 2 1 2.1 2.5 2.6 1.8 2 .9-.8 3.5 1.7 1.4-.8 1.7.5.8 1.3 1.7.4 1.4-1.3-.8-1.1-.1-1.7 1.2-1.6-.2-1.7.7-2.7.9-.7.1-2.8-.2-1.7.4-2.8.9-2.5 1.4-2.2-.3-2.3.4-1.4z" data-id="NI" data-name="Nicaragua"/>
  <path id="PA" class="map-item" fill="#f2f2f2" fill-rule="evenodd" d="M446.3 440.2l-2-1.8-1.7-1.9-2.5-1.1-3.1-.2.3-.6-3.1-.4-2 1.9-3.5 1.3-2.5 1.6-2.7.5-1.5-1.6-.5.5-2.3-.3.2-1.3-1.9-2.3-2.2.6-.1 2.5 1.1 1-.8.7.1 1.2-.5 1.3-.4 1.2.6 1 .3-1.4h2.4l1.4.7 2.3.5 1 2.5 1.8.4.8-1.1.8 3.8 2.6-.3.9-.9 1.5-.9-2.5-3.4.6-1.3 1.3-.3 2.3-1.6 1.2-2.2 2.5-.4 2.7 1.8 1 2.1 1.4.4-1.5 1.7 1 3.5 1.8 1.8.9-3.1 1.8.5 1.1-1.9-1.1-3.8z" data-id="PA" data-name="Panama"/>
  <path id="PR" class="map-item" fill="#f2f2f2" fill-rule="evenodd" d="M503.6 380.5v-.1h.1v-.1l.1-.1v-.1h-.5v.2l.2.1v.1zm13.6-.3l.7-.2v-.1l-.4-.1h-.6l-.5.2.1.2h.2zm-3.7-2.2l-.1-.2h-.2l-3.5-.1-1.3-.2-.3.1-.3.1-.1.4-.2.2-.3.2.1.3.1.2.2.4-.1.5-.2 1 .3.2.7-.1.3.1.3.1.4-.1.4-.2.9.1.5-.1.6.3.4-.1.2.1H513.2l.9-.2.8-.5.3-.5.4-.3.6-.4v-.9l-.7-.1-.6-.3-1.1-.1h-.1l.1.2h-.1z" data-id="PR" data-name="Puerto Rico"/>
  <path id="SV" class="map-item" fill="#f2f2f2" fill-rule="evenodd" d="M390 410.2l.6-2.5-.7-.7-1.1-.5-2.5.8-.1-.9-1.6-1-1.1-1.3-1.5-.5-1.4.4.2.7-1.1.7-2.1 1.6-.2 1 1.4 1.3 3.1.4 2.2 1.3 1.9.6 3.3.1z" data-id="SV" data-name="El Salvador"/>
  <path id="US" class="map-item" fill="#f2f2f2" fill-rule="evenodd" d="M19.5 373.9l2-.9 2.5-1.4.2-.4-.9-2.2-.7-.8-.8-.6-1.9-1.1-.4-.1-.4.6v1.3l-1.2 1-.4.7.4 2.3-.6 1.8 1.2.9zm-.6-9.9l.6-.7-1.2-1-1.8-.6-.7.5v.4l.5.5.6 1.4zm-3-3.4l-2.6-.2-.6.7 2.9.2zm-4.7-.9l-1.1-2.1-.3-.4-1.7.9.1.2.4 1.5 1.8.2.4.1zm-8.3-4.2l.3-1.5-1.3-.1-1 .6-.4.5 1.6 1.1zM415 182.3h-1.6l-1.3 2.4H276.2l-1.6 5.1-2.4 5.1-2.3 1.6 1.1-5.9-5.8-2.1-1.4 1.2-.4 2.9-1.8 5.4-4.2 8.3-4 5.6-4 5.6-5.4 5.8-1.1 4.7-2.8 5.3-3.9 5.2 1 3.4-1.9 5.2 1.5 5.4 1.3 2.2-.8 1.5.4 9 2.5 6.5-.8 3.5 1 1 4.6.7 1.3 1.7 2.8.3-.1 1.9 2.2.7 2.1 3.7-.3 3.2 6.3-.5 7-.7-1 1.3 7.1 3.1 10.7 4.4h15l.8-2.6h9.3l1.3 2.2 2.1 2 2.4 2.8.8 3.3.4 3.5 2.2 1.9 4 1.9 4.8-5 4.4-.1 3.1 2.5 1.6 4.4 1 3.7 2.4 3.6.2 4.5.8 3 3.9 2 3.6 1.4 2.1-.2-.6-2.2.4-3.1 1-4.4 1.9-2.8 3.7-3.1 6-2.7 6.1-4.7 4.9-1.5 3.5-.4 3.5 1.4 4.9-.8 3.3 3.4 3.8.2 2.4-1.2 1.7.9 1.3-.8-.9-1.3.7-2.5-.5-1.7 2.4-1 4.2-.4 4.7.7 6.2-.8 3 1.5 2 3 .9.3 6.1-2.9 1.9 1 3 5.3.8 3.5-2 4.2.4 2.5 1.6 4.9 2 5.5 1.8 1.4.4 2.8 2.6.8 1.7-.8 2-3.9.7-2.5.9-4.3-1.2-7.4.5-2.7-1.5-4.5-.7-5.4.1-4.4 1.8-4.5 3.5-3.8 3.7-3 6.9-4.1 1.3-2.2 3.3-2.3 2.8-.4 4.4-3.8 6-1.9 4.6-4.8.9-6.5.1-2.2-1.4-.4 1.5-6.2-3-2.1 3.2 1v-4.1l1.9-2.7-1 5.3 2 2.5-2.9 4.4.4.2 4.4-5.1 2.4-2.5.6-2.5-.9-1.1-.1-3.5 1.2 1.6 1.1.4-.1 1.6 5.2-4.9 2.5-4.5-1.4-.3 2.1-1.8-.4.8h3.3l7.8-1.9-1.1-1.2-7.9 1.2 4.8-1.8 3.1-.3 2.4-.3 4.1-1.1 2.4.1 3.8-1 1-1.7-1.1-1.4-.2 2.2-2.1-.1-.6-3.3 1.1-3.3 1.4-1.3 3.9-3.7 5.9-1.8 6-2.1 6.3-3-.2-2-2.1-3.5 2.8-8.5-1.5-1.8-3.7 1.1-1.1-1.7-5.5 4.7-3.2 4.9-2.7 2.8-2.5.9-1.7.3-1 1.6h-17l-2.7 1.2-6.7 4.2.2.9-.6 2.4-4.6 2-3.9-.5-4-.2-2.6.7-.3 1.8-.1.6-5.8 3.7-4.5 1.8-2.9.8-3.7 1.7-4 .9-2.5-.3-2.7-1.3 2.7-2.4 2-2.2 3.7-3.4.7-2.5.5-3.5-1.6-.7-4.3 2.8-.9-.1.3-1.5 3.8-2.5 1.6-2.8.7-2.8-2.7-2.4-3.7-1.3-1.7 2.4-1.4.6-2.2 3.1.4-2.1-2.6 1.5-2.1 2-2.6 3.1-1.3 2.6.1 3.8-1.8 4-3.3 3-1.4.9-1.6.7h-1.8l-.3-.4-.1-3.3.7-1.6.7-1.5.6-3 2.5-3.5 2.9-4.3 4.6-4.7h-.7l-5.4 4-.4-.7 2.9-2.3 4.7-4 3.7-.5 4.4-1.3 3.7.7h.1l4.7-.5-1.5-2.5-1.2-.2-1.4-.3-.4-1.7-5.1.5-5 1.4-2.5-2.3-2.5-.8 3.1-3.3-5.3 2-4.9 2.1-4.6 1.5-2.1-2.1-5.5 1.3.4-.9 4.6-2.6 4.7-2.5 5.9-2.1-5.3-1.6-4.4.8-3.8-1.9-4.6-1-3.2-.4-1-1zm-240.6-46.9l6.9-2.8v-1.8l-2.6-.4-3.4.9-6.4 2.1-2.2 2.7.7 1.6zM135.7 119l2.3-2.3-2.9-.5-5.7 1 .8 1.6 1.6 1.1zm1.2-22.3l-3.1 2.2.4.5 4.2-.4.3 1.1 1.7 1.2 4.9-1.2 1.2-.6-3.3-.8-1.6-1.5-3.4.6zm124.9-40.2l-4.4-1.1-10.2 2.8-3.2-.3-11 2.3-4.8.6-7.8 2.5-4.8 2.6-8.6 2.5-7.6.1-6.3 2.9 3.2 1.7.7 2.3-.8 2.7 2.3 2.1-1.2 3.5-9.2.2 4.3-2.8H189l-13.1 2.7-9.1 2.3 1 3.3-1.2 2.2 4.5 1.4 6.9-.7 1.8 1.3 2.9-1.3 6.1-1.2h2.7l-5.9 2.1 1.1 1-2.5 2.6-5.5 1.8-2.5-.5-7 2.7-1.8-.9-4.1.4-5.3 3-7.6 3.1-5.8 3.4.3 2.4-4 3.3 1.4 1.4.5 2.7 7.2-1.1.4 2.1-3.3 2.1-3.6 3.5h2.8l7.2-2.3-1.6 2.9 3.6-2.1-.4 3 4.8-2.2.4 1.1 7.2-1.8-6.2 3.4-5.7 4.5-5.7 2.1-2.3 1.2-10.3 3.6-4.9 2.4-6.5.7-8.5 3.3-6.6 1.8-8.1 2.8-.4 1 10-1.7 6-2 6.9-2 6.1-1.7 2.8.5 8.1-2.6 4.5-2.8 10.5-3.1 3.9-2.6 6.6-1.8 7.6-2.5 8.9-4.2-.2-2.9 11.1-4.1 7.4-3.9 9.2-3.2-.4 1.4-6.7 1.8-8.3 5.7-3.2 3.5 6.4-1.3 6.1-1.9 6.5-1.3 2.9-.3 3.5-4.1 6.3-1.2 2.6 2.5 6 2.7 6.7-.5 5.7 2 3.2 1.1 3.3 6.1 3.7 1.7 7.1.2 4.1.4-2.7 5.5 1.6 4.9-3.3 5.2 2.5 1.9.6 2.2 5.1-2.9 3.1-3.7-4.6-3.8 1.5-6.8 1.1-4.2-1.7-2.7-.7-2.4.5-3-6.4 1.9-7.6 3.3-.2-3.9-.6-2.6-2.7-1.6-4.2-.1 35.4-32.4 24.3-20.2-3.5-.7-4.1-1.6-6.5.8-2.2-.7-7.1-.5-6.2-1.6-4.8.5-4.9-.9 2-1.2-6.3-.3-3.3 1z" data-id="US" data-name="United States"/>
</svg>
